<svg width="200" height="202" viewBox="0 0 200 202" fill="none" xmlns="http://www.w3.org/2000/svg">
<path d="M192.929 118.399L117.506 193.822C107.83 203.498 92.4487 203.498 82.7728 193.822L7.34951 118.399C-2.32638 108.724 -2.32638 93.3415 7.34951 83.6656L82.7728 8.24306C92.4487 -1.43283 107.83 -1.43283 117.506 8.24306L192.929 83.6656C202.357 93.3415 202.357 108.972 192.929 118.399Z" fill="#262626"/>
<path d="M91.4548 154.622L46.5488 109.716C41.8349 105.002 41.8349 97.0635 46.5488 92.1015L91.4548 47.1955C96.1687 42.4816 104.108 42.4816 109.07 47.1955L153.976 92.1015C158.69 96.8154 158.69 104.754 153.976 109.716L109.07 154.622C104.108 159.584 96.1687 159.584 91.4548 154.622Z" fill="#7B8260"/>
<path d="M125.941 106.491L105.1 127.331C102.123 130.308 97.6572 130.308 94.68 127.331L73.8389 106.491C70.8617 103.514 70.8617 99.0482 73.8389 96.071L94.68 75.2307C97.6572 72.2535 102.123 72.2535 105.1 75.2307L125.941 96.071C128.918 98.8001 128.918 103.514 125.941 106.491Z" fill="#262626"/>
</svg>
