<svg width="9" height="9" viewBox="0 0 9 9" fill="none" xmlns="http://www.w3.org/2000/svg">
<path opacity="0.8" d="M8.14986 5.62999L5.10982 8.67C4.71982 9.06 4.09986 9.06 3.70986 8.67L0.669819 5.62999C0.279819 5.23999 0.279819 4.62 0.669819 4.23L3.70986 1.18999C4.09986 0.799991 4.71982 0.799991 5.10982 1.18999L8.14986 4.23C8.52986 4.62 8.52986 5.24999 8.14986 5.62999Z" fill="#262626"/>
<path d="M4.0598 7.09001L2.2498 5.28001C2.0598 5.09001 2.0598 4.77002 2.2498 4.57002L4.0598 2.76002C4.2498 2.57002 4.56982 2.57002 4.76982 2.76002L6.57982 4.57002C6.76982 4.76002 6.76982 5.08001 6.57982 5.28001L4.76982 7.09001C4.56982 7.29001 4.2498 7.29001 4.0598 7.09001Z" fill="#7B8260"/>
<path opacity="0.8" d="M5.4498 5.15L4.60978 5.98999C4.48978 6.10999 4.30979 6.10999 4.18979 5.98999L3.34977 5.15C3.22977 5.03 3.22977 4.85001 3.34977 4.73001L4.18979 3.89002C4.30979 3.77002 4.48978 3.77002 4.60978 3.89002L5.4498 4.73001C5.5698 4.84001 5.5698 5.03 5.4498 5.15Z" fill="#262626"/>
</svg>
