<svg width="1254" height="792" viewBox="0 0 1254 792" fill="none" xmlns="http://www.w3.org/2000/svg">
<g clip-path="url(#clip0)">
<path d="M1665.73 0H-373.343V1288.24H1665.73V0Z" fill="#4F565E"/>
<path d="M522.985 690.853C491.479 656.327 494.932 224.299 494.932 224.299C494.932 224.299 495.795 130.643 515.217 94.8209C525.143 75.8307 726.574 79.2835 734.898 94.8209C754.32 131.075 758.204 224.299 758.204 224.299C758.204 224.299 763.383 653.737 732.309 690.853C706.413 718.906 543.858 713.727 522.985 690.853Z" fill="url(#paint0_linear)"/>
<path d="M555.441 495.323C548.855 493.605 533.93 488.573 528.372 498.241C522.528 508.409 527.232 513.355 530.512 516.618C535.148 521.228 548.872 524.706 555.407 524.654C560.266 524.62 571.272 524.732 574.535 521.133C574.535 521.133 579.041 519.104 574.63 508.987C572.282 503.584 561.138 496.808 555.441 495.323Z" fill="#DDE0D9"/>
<path d="M558.29 537.438C551.704 535.721 536.779 530.688 531.22 540.356C525.376 550.524 530.081 555.47 533.361 558.733C537.996 563.343 551.721 566.821 558.255 566.769C563.115 566.735 574.121 566.847 577.383 563.248C577.383 563.248 581.889 561.219 577.478 551.103C575.122 545.699 563.987 538.923 558.29 537.438Z" fill="#DDE0D9"/>
<path d="M560.715 581.979C554.129 580.261 539.205 575.229 533.646 584.896C527.802 595.065 532.506 600.011 535.786 603.274C540.422 607.883 554.146 611.362 560.681 611.31C565.54 611.275 576.546 611.388 579.809 607.788C579.809 607.788 584.315 605.76 579.904 595.643C577.556 590.248 566.412 583.472 560.715 581.979Z" fill="#DDE0D9"/>
<path d="M564.297 625.509C557.711 623.792 542.787 618.759 537.228 628.427C531.384 638.595 536.088 643.541 539.369 646.804C544.004 651.414 557.729 654.892 564.263 654.841C569.123 654.806 580.128 654.918 583.391 651.319C583.391 651.319 587.897 649.29 583.486 639.174C581.13 633.77 569.994 626.994 564.297 625.509Z" fill="#DDE0D9"/>
<path d="M697.418 496.066C703.935 494.106 718.67 488.521 724.574 497.982C730.789 507.926 726.275 513.045 723.116 516.428C718.653 521.21 705.066 525.181 698.532 525.379C693.672 525.526 682.684 526.044 679.291 522.565C679.291 522.565 674.708 520.71 678.748 510.429C680.897 504.948 691.782 497.766 697.418 496.066Z" fill="#DDE0D9"/>
<path d="M696.132 538.258C702.649 536.299 717.384 530.714 723.288 540.175C729.503 550.119 724.989 555.237 721.829 558.621C717.367 563.403 703.78 567.374 697.246 567.572C692.386 567.719 681.398 568.237 678.005 564.758C678.005 564.758 673.422 562.902 677.462 552.622C679.602 547.14 690.487 539.959 696.132 538.258Z" fill="#DDE0D9"/>
<path d="M695.338 582.868C701.855 580.908 716.59 575.324 722.494 584.784C728.709 594.728 724.195 599.847 721.035 603.231C716.573 608.013 702.986 611.983 696.452 612.182C691.592 612.329 680.604 612.846 677.211 609.368C677.211 609.368 672.628 607.512 676.667 597.231C678.817 591.741 689.702 584.56 695.338 582.868Z" fill="#DDE0D9"/>
<path d="M693.37 626.493C699.887 624.534 714.622 618.949 720.526 628.41C726.741 638.354 722.226 643.472 719.067 646.856C714.605 651.638 701.018 655.609 694.484 655.807C689.624 655.954 678.635 656.472 675.243 652.993C675.243 652.993 670.66 651.137 674.699 640.857C676.849 635.367 687.733 628.185 693.37 626.493Z" fill="#DDE0D9"/>
<path d="M627.008 503.567C620.267 503.455 604.513 505.328 601.147 511.163C596.952 518.414 603.797 524.508 607.232 526.994C611.773 530.282 623.547 532.889 628.726 532.889C633.915 532.889 643.676 530.239 647.733 527.494C650.711 525.483 658.54 519.838 656.106 513.519C653.948 507.909 639.421 503.783 627.008 503.567Z" fill="#DDE0D9"/>
<path d="M626.905 547.624C620.163 547.512 604.41 549.385 601.043 555.22C596.848 562.471 603.693 568.565 607.129 571.051C611.669 574.34 623.012 578.207 628.596 577.853C633.482 577.542 643.573 574.296 647.63 571.552C650.608 569.54 658.437 563.895 656.003 557.576C653.845 551.966 639.317 547.831 626.905 547.624Z" fill="#DDE0D9"/>
<path d="M626.136 591.293C619.395 591.18 603.642 593.054 600.275 598.889C596.08 606.14 602.925 612.234 606.361 614.72C610.901 618.008 622.243 621.875 627.828 621.522C632.714 621.211 642.804 617.965 646.861 615.22C649.839 613.209 657.669 607.564 655.234 601.245C653.076 595.635 638.54 591.5 626.136 591.293Z" fill="#DDE0D9"/>
<path d="M627.466 635.22C620.724 635.108 604.971 636.981 601.604 642.816C597.409 650.067 604.254 656.161 607.69 658.647C612.23 661.936 623.573 665.803 629.157 665.449C634.043 665.138 644.134 661.893 648.191 659.148C651.169 657.137 658.998 651.491 656.564 645.173C654.397 639.562 639.87 635.427 627.466 635.22Z" fill="#DDE0D9"/>
<path d="M623.547 86.6206C595.044 86.6896 559.645 92.8355 539.964 97.1083C531.98 98.8433 525.67 104.946 523.658 112.862L513.991 163.772C511.954 171.757 504.547 244.67 504.729 270.713C505.172 333.509 501.774 398.142 542.933 449.885C548.423 456.765 577.254 490.826 626.292 490.118C692.714 489.151 723.159 423.886 723.159 423.886C723.159 423.886 756.089 366.941 745.075 256.85C736.711 173.267 731.437 139.241 727.993 121.148C726.577 113.725 720.172 102.106 713.292 98.9728C699.343 92.637 663.685 86.5233 623.547 86.6206Z" fill="#C3C4C4"/>
<path d="M617.504 93.9577C597.651 93.9577 554.725 95.4603 545.006 112.327C526.931 143.678 520.378 226.155 521.173 264.524C521.82 295.832 520.542 361.201 534.932 389.004C539.524 397.886 551.854 418.568 564.047 416.454C576.24 414.339 609.593 405.472 624.121 405.032C641.177 404.514 674.058 412.514 688.683 414.339C703.308 416.164 704.763 407.442 713.709 389.004C732.055 351.191 729.981 264.384 729.981 264.384C729.981 264.384 720.008 124.575 706.275 109.297C691.298 92.6457 639.947 93.9577 617.504 93.9577Z" fill="#75797C"/>
<path d="M616.529 404.991L593.634 409.521L584.47 412.139C578.488 413.65 577.677 420.942 583.21 423.661L591.591 427.779C611.091 436.808 616.192 437.049 626.015 436.445C655.7 434.624 668.536 424.283 670.383 422.893C670.53 422.781 670.668 422.669 670.806 422.539C675.096 418.655 672.748 411.456 667.043 410.463L635.631 404.991C630.97 403.886 616.529 404.991 616.529 404.991Z" fill="#A2A4A2"/>
<path d="M582.312 441.996C576.115 438.379 557.66 427.451 549.028 422.876C544.858 420.666 535.976 426.225 534.656 430.757C532.185 439.233 546.032 453.415 546.032 453.415C546.032 453.415 557.953 467.296 563.616 467.943C570.15 468.694 576.33 461.253 578.497 457.593C580.543 454.115 585.791 444.024 582.312 441.996Z" fill="#A2A4A2"/>
<path d="M701.864 414.701C688.015 423.48 673.857 435.719 658.135 440.96C658.135 440.96 650.737 442.686 650.737 449.592L653.525 467.14C654.147 470.766 655.675 474.201 658.135 476.937C660.785 479.889 664.203 481.788 667.371 480.39C667.371 480.39 680.042 473.968 689.822 465.768C701.752 455.763 704.272 451.016 706.491 448.996C706.68 448.823 706.862 448.642 707.008 448.435C712.854 440.687 720.276 432.319 723.677 422.833C724.497 419.19 721.734 415.565 718.152 414.511C712.202 412.775 707.762 411.355 701.864 414.701Z" fill="#A2A4A2"/>
<path d="M594.827 188.503L594.863 188.587L600.575 195.631H605.339V186.235H602.567V193.351L602.519 193.231L596.855 186.235H592.055V195.631H594.827V188.503ZM606.971 193.231C606.971 193.615 607.015 193.939 607.103 194.203C607.191 194.467 607.355 194.707 607.595 194.923C607.811 195.123 608.043 195.279 608.291 195.391C608.539 195.495 608.859 195.575 609.251 195.631C609.643 195.679 610.119 195.711 610.679 195.727C611.239 195.743 612.059 195.751 613.139 195.751C614.219 195.751 615.043 195.743 615.611 195.727C616.179 195.711 616.655 195.679 617.039 195.631C617.431 195.575 617.755 195.495 618.011 195.391C618.275 195.279 618.511 195.123 618.719 194.923C618.959 194.707 619.123 194.467 619.211 194.203C619.299 193.939 619.343 193.615 619.343 193.231C619.343 192.319 619.343 191.243 619.343 190.003V188.635C619.343 188.251 619.299 187.935 619.211 187.687C619.123 187.431 618.959 187.195 618.719 186.979C618.511 186.771 618.279 186.611 618.023 186.499C617.775 186.387 617.459 186.307 617.075 186.259C616.699 186.211 616.239 186.183 615.695 186.175C615.151 186.159 614.311 186.151 613.175 186.151C612.039 186.151 611.199 186.159 610.655 186.175C610.111 186.183 609.643 186.211 609.251 186.259C608.867 186.307 608.547 186.387 608.291 186.499C608.035 186.611 607.803 186.771 607.595 186.979C607.355 187.195 607.191 187.431 607.103 187.687C607.015 187.935 606.971 188.251 606.971 188.635V193.231ZM609.623 189.043C609.623 188.867 609.687 188.727 609.815 188.623C609.951 188.519 610.175 188.467 610.487 188.467C613.631 188.467 615.423 188.467 615.863 188.467C616.199 188.467 616.427 188.507 616.547 188.587C616.675 188.667 616.739 188.819 616.739 189.043V191.779V192.859C616.739 193.011 616.663 193.139 616.511 193.243C616.367 193.339 616.139 193.387 615.827 193.387C612.707 193.387 610.927 193.387 610.487 193.387C610.151 193.387 609.923 193.351 609.803 193.279C609.683 193.199 609.623 193.059 609.623 192.859V189.043ZM620.973 186.235V195.667H623.913V186.235H620.973ZM623.913 190.783L629.289 195.667H633.549L627.465 190.783L632.853 186.235H628.953L623.913 190.783ZM637.599 193.471V191.911H644.547V190.003H637.599V188.419H645.003V186.235H637.767H634.779H634.659V195.667H634.863H637.767H645.003V193.471H637.599ZM659.478 186.235H655.95L652.878 190.063L649.806 186.235H646.278L651.39 192.391V195.667H654.342V192.391L659.478 186.235Z" fill="#1B5096"/>
<g filter="url(#filter0_d)">
<path d="M622.821 103.505C621.086 103.694 618.686 104.359 618.056 105.49C617.452 106.569 621.068 108.028 622.303 108.01C624.927 107.967 627.594 106.655 628.267 105.619C628.759 104.868 627.56 102.987 622.821 103.505Z" fill="#292E32"/>
<path d="M622.822 118.075C621.087 118.265 618.687 118.93 618.057 120.061C617.453 121.14 621.069 122.598 622.304 122.581C624.928 122.538 627.595 121.226 628.268 120.19C628.76 119.439 627.561 117.557 622.822 118.075Z" fill="#292E32"/>
<path d="M622.701 134.381C620.966 134.571 618.566 135.235 617.936 136.366C617.332 137.445 620.948 138.904 622.183 138.887C624.807 138.844 627.474 137.531 628.147 136.496C628.639 135.745 627.431 133.863 622.701 134.381Z" fill="#292E32"/>
<path d="M622.822 150.108C621.087 150.298 618.687 150.963 618.057 152.093C617.453 153.172 621.069 154.631 622.304 154.614C624.928 154.571 627.595 153.259 628.268 152.223C628.76 151.472 627.561 149.59 622.822 150.108Z" fill="#292E32"/>
<path d="M623.106 166.215C621.371 166.405 618.972 167.07 618.342 168.201C617.737 169.28 621.354 170.738 622.589 170.721C625.213 170.678 627.88 169.366 628.553 168.33C629.037 167.579 627.837 165.697 623.106 166.215Z" fill="#292E32"/>
</g>
<path d="M780.645 182.514L781.793 179.174H783.457V186H782.156V181.16L781.125 184.389H780.176L779.098 181.137V186H777.797V179.174H779.508L780.645 182.514ZM790.729 182.965C790.729 183.391 790.662 183.793 790.529 184.172C790.396 184.551 790.205 184.883 789.955 185.168C789.705 185.453 789.398 185.68 789.035 185.848C788.676 186.012 788.268 186.094 787.811 186.094C787.35 186.094 786.938 186.012 786.574 185.848C786.215 185.68 785.908 185.453 785.654 185.168C785.404 184.883 785.213 184.551 785.08 184.172C784.947 183.793 784.881 183.391 784.881 182.965V182.221C784.881 181.795 784.947 181.393 785.08 181.014C785.213 180.635 785.402 180.303 785.648 180.018C785.898 179.729 786.203 179.5 786.562 179.332C786.926 179.164 787.338 179.08 787.799 179.08C788.256 179.08 788.666 179.164 789.029 179.332C789.393 179.5 789.699 179.727 789.949 180.012C790.199 180.297 790.391 180.631 790.523 181.014C790.66 181.393 790.729 181.795 790.729 182.221V182.965ZM789.328 182.215C789.328 181.961 789.299 181.715 789.24 181.477C789.182 181.234 789.09 181.02 788.965 180.832C788.844 180.645 788.688 180.494 788.496 180.381C788.305 180.264 788.072 180.205 787.799 180.205C787.521 180.205 787.287 180.264 787.096 180.381C786.904 180.494 786.748 180.646 786.627 180.838C786.51 181.025 786.422 181.24 786.363 181.482C786.309 181.721 786.281 181.965 786.281 182.215V182.965C786.281 183.215 786.309 183.461 786.363 183.703C786.422 183.941 786.512 184.156 786.633 184.348C786.754 184.535 786.91 184.688 787.102 184.805C787.297 184.922 787.533 184.98 787.811 184.98C788.084 184.98 788.316 184.924 788.508 184.811C788.699 184.693 788.855 184.541 788.977 184.354C789.098 184.162 789.186 183.945 789.24 183.703C789.299 183.461 789.328 183.215 789.328 182.965V182.215ZM794.941 184.107L795.064 184.623L795.188 184.119L796.863 179.174H798.352L795.779 186H794.355L791.789 179.174H793.277L794.941 184.107ZM804.352 183.023H801.088V184.887H804.879V186H799.67V179.174H804.873V180.299H801.088V181.904H804.352V183.023ZM818.051 183.322L818.707 179.174H820.008L818.736 186H817.494L816.639 181.828L815.795 186H814.547L813.275 179.174H814.582L815.238 183.299L816.023 179.174H817.254L818.051 183.322ZM821.461 179.18H826.33V180.34H824.578V184.84H826.33V186H821.461V184.84H823.172V180.34H821.461V179.18ZM834.211 180.299H831.779V186H830.361V180.299H827.965V179.174H834.211V180.299ZM840.715 186H839.338V183.229H836.883V186H835.506V179.174H836.883V182.104H839.338V179.174H840.715V186ZM854.08 184.553H851.25L850.705 186H849.281L852.018 179.174H853.324L856.055 186H854.631L854.08 184.553ZM851.654 183.486H853.67L852.662 180.844L851.654 183.486ZM859.834 183.504H858.504V186H857.104V179.174H859.764C860.131 179.178 860.477 179.221 860.801 179.303C861.129 179.385 861.414 179.51 861.656 179.678C861.898 179.846 862.09 180.061 862.23 180.322C862.371 180.58 862.441 180.889 862.441 181.248C862.441 181.506 862.408 181.732 862.342 181.928C862.275 182.123 862.184 182.297 862.066 182.449C861.949 182.598 861.809 182.729 861.645 182.842C861.484 182.955 861.309 183.055 861.117 183.141L862.734 185.941V186H861.229L859.834 183.504ZM858.504 182.379H859.764C859.939 182.375 860.104 182.354 860.256 182.314C860.412 182.271 860.549 182.209 860.666 182.127C860.783 182.041 860.875 181.936 860.941 181.811C861.012 181.682 861.047 181.529 861.047 181.354C861.047 181.174 861.014 181.02 860.947 180.891C860.881 180.758 860.789 180.65 860.672 180.568C860.559 180.482 860.424 180.418 860.268 180.375C860.111 180.332 859.943 180.311 859.764 180.311H858.504V182.379ZM867.041 183.504H865.711V186H864.311V179.174H866.971C867.338 179.178 867.684 179.221 868.008 179.303C868.336 179.385 868.621 179.51 868.863 179.678C869.105 179.846 869.297 180.061 869.438 180.322C869.578 180.58 869.648 180.889 869.648 181.248C869.648 181.506 869.615 181.732 869.549 181.928C869.482 182.123 869.391 182.297 869.273 182.449C869.156 182.598 869.016 182.729 868.852 182.842C868.691 182.955 868.516 183.055 868.324 183.141L869.941 185.941V186H868.436L867.041 183.504ZM865.711 182.379H866.971C867.146 182.375 867.311 182.354 867.463 182.314C867.619 182.271 867.756 182.209 867.873 182.127C867.99 182.041 868.082 181.936 868.148 181.811C868.219 181.682 868.254 181.529 868.254 181.354C868.254 181.174 868.221 181.02 868.154 180.891C868.088 180.758 867.996 180.65 867.879 180.568C867.766 180.482 867.631 180.418 867.475 180.375C867.318 180.332 867.15 180.311 866.971 180.311H865.711V182.379ZM877.213 182.965C877.213 183.391 877.146 183.793 877.014 184.172C876.881 184.551 876.689 184.883 876.439 185.168C876.189 185.453 875.883 185.68 875.52 185.848C875.16 186.012 874.752 186.094 874.295 186.094C873.834 186.094 873.422 186.012 873.059 185.848C872.699 185.68 872.393 185.453 872.139 185.168C871.889 184.883 871.697 184.551 871.564 184.172C871.432 183.793 871.365 183.391 871.365 182.965V182.221C871.365 181.795 871.432 181.393 871.564 181.014C871.697 180.635 871.887 180.303 872.133 180.018C872.383 179.729 872.688 179.5 873.047 179.332C873.41 179.164 873.822 179.08 874.283 179.08C874.74 179.08 875.15 179.164 875.514 179.332C875.877 179.5 876.184 179.727 876.434 180.012C876.684 180.297 876.875 180.631 877.008 181.014C877.145 181.393 877.213 181.795 877.213 182.221V182.965ZM875.812 182.215C875.812 181.961 875.783 181.715 875.725 181.477C875.666 181.234 875.574 181.02 875.449 180.832C875.328 180.645 875.172 180.494 874.98 180.381C874.789 180.264 874.557 180.205 874.283 180.205C874.006 180.205 873.771 180.264 873.58 180.381C873.389 180.494 873.232 180.646 873.111 180.838C872.994 181.025 872.906 181.24 872.848 181.482C872.793 181.721 872.766 181.965 872.766 182.215V182.965C872.766 183.215 872.793 183.461 872.848 183.703C872.906 183.941 872.996 184.156 873.117 184.348C873.238 184.535 873.395 184.688 873.586 184.805C873.781 184.922 874.018 184.98 874.295 184.98C874.568 184.98 874.801 184.924 874.992 184.811C875.184 184.693 875.34 184.541 875.461 184.354C875.582 184.162 875.67 183.945 875.725 183.703C875.783 183.461 875.812 183.215 875.812 182.965V182.215ZM882.914 183.322L883.57 179.174H884.871L883.6 186H882.357L881.502 181.828L880.658 186H879.41L878.139 179.174H879.445L880.102 183.299L880.887 179.174H882.117L882.914 183.322ZM895.465 183.199L894.668 183.973V186H893.262V179.174H894.668V182.203L895.318 181.418L897.305 179.174H899.039L896.414 182.227L899.174 186H897.492L895.465 183.199ZM905.25 183.023H901.986V184.887H905.777V186H900.568V179.174H905.771V180.299H901.986V181.904H905.25V183.023ZM910.365 182.367L912.064 179.174H913.623L911.057 183.627V186H909.645V183.568L907.113 179.174H908.672L910.365 182.367ZM919.008 184.195C919.012 184.035 918.971 183.9 918.885 183.791C918.803 183.678 918.691 183.582 918.551 183.504C918.41 183.426 918.248 183.359 918.064 183.305C917.881 183.25 917.691 183.199 917.496 183.152C917.156 183.066 916.832 182.971 916.523 182.865C916.219 182.76 915.949 182.629 915.715 182.473C915.484 182.312 915.301 182.117 915.164 181.887C915.027 181.652 914.959 181.365 914.959 181.025C914.959 180.697 915.035 180.412 915.188 180.17C915.34 179.924 915.539 179.721 915.785 179.561C916.035 179.4 916.318 179.281 916.635 179.203C916.951 179.121 917.275 179.08 917.607 179.08C917.967 179.08 918.309 179.121 918.633 179.203C918.961 179.285 919.248 179.412 919.494 179.584C919.744 179.756 919.945 179.975 920.098 180.24C920.254 180.506 920.34 180.824 920.355 181.195H918.943C918.939 181.023 918.9 180.873 918.826 180.744C918.756 180.615 918.658 180.508 918.533 180.422C918.412 180.332 918.271 180.266 918.111 180.223C917.951 180.176 917.783 180.152 917.607 180.152C917.439 180.152 917.277 180.17 917.121 180.205C916.969 180.24 916.832 180.293 916.711 180.363C916.594 180.434 916.5 180.521 916.43 180.627C916.359 180.732 916.324 180.855 916.324 180.996C916.324 181.152 916.367 181.283 916.453 181.389C916.543 181.494 916.658 181.584 916.799 181.658C916.943 181.732 917.107 181.795 917.291 181.846C917.479 181.896 917.67 181.945 917.865 181.992C918.205 182.074 918.525 182.172 918.826 182.285C919.131 182.395 919.398 182.533 919.629 182.701C919.859 182.869 920.041 183.072 920.174 183.311C920.307 183.549 920.373 183.836 920.373 184.172C920.373 184.516 920.295 184.809 920.139 185.051C919.986 185.293 919.781 185.492 919.523 185.648C919.27 185.801 918.977 185.914 918.645 185.988C918.316 186.059 917.979 186.094 917.631 186.094C917.283 186.094 916.938 186.057 916.594 185.982C916.254 185.904 915.947 185.779 915.674 185.607C915.4 185.432 915.176 185.205 915 184.928C914.824 184.65 914.729 184.311 914.713 183.908H916.125C916.129 184.119 916.174 184.297 916.26 184.441C916.35 184.586 916.465 184.703 916.605 184.793C916.75 184.879 916.914 184.941 917.098 184.98C917.281 185.016 917.471 185.033 917.666 185.033C917.842 185.033 918.01 185.016 918.17 184.98C918.33 184.945 918.471 184.895 918.592 184.828C918.717 184.758 918.816 184.67 918.891 184.564C918.969 184.459 919.008 184.336 919.008 184.195Z" fill="#EAEAEA"/>
<path d="M786.074 248.195C786.078 248.035 786.037 247.9 785.951 247.791C785.869 247.678 785.758 247.582 785.617 247.504C785.477 247.426 785.314 247.359 785.131 247.305C784.947 247.25 784.758 247.199 784.562 247.152C784.223 247.066 783.898 246.971 783.59 246.865C783.285 246.76 783.016 246.629 782.781 246.473C782.551 246.312 782.367 246.117 782.23 245.887C782.094 245.652 782.025 245.365 782.025 245.025C782.025 244.697 782.102 244.412 782.254 244.17C782.406 243.924 782.605 243.721 782.852 243.561C783.102 243.4 783.385 243.281 783.701 243.203C784.018 243.121 784.342 243.08 784.674 243.08C785.033 243.08 785.375 243.121 785.699 243.203C786.027 243.285 786.314 243.412 786.561 243.584C786.811 243.756 787.012 243.975 787.164 244.24C787.32 244.506 787.406 244.824 787.422 245.195H786.01C786.006 245.023 785.967 244.873 785.893 244.744C785.822 244.615 785.725 244.508 785.6 244.422C785.479 244.332 785.338 244.266 785.178 244.223C785.018 244.176 784.85 244.152 784.674 244.152C784.506 244.152 784.344 244.17 784.188 244.205C784.035 244.24 783.898 244.293 783.777 244.363C783.66 244.434 783.566 244.521 783.496 244.627C783.426 244.732 783.391 244.855 783.391 244.996C783.391 245.152 783.434 245.283 783.52 245.389C783.609 245.494 783.725 245.584 783.865 245.658C784.01 245.732 784.174 245.795 784.357 245.846C784.545 245.896 784.736 245.945 784.932 245.992C785.271 246.074 785.592 246.172 785.893 246.285C786.197 246.395 786.465 246.533 786.695 246.701C786.926 246.869 787.107 247.072 787.24 247.311C787.373 247.549 787.439 247.836 787.439 248.172C787.439 248.516 787.361 248.809 787.205 249.051C787.053 249.293 786.848 249.492 786.59 249.648C786.336 249.801 786.043 249.914 785.711 249.988C785.383 250.059 785.045 250.094 784.697 250.094C784.35 250.094 784.004 250.057 783.66 249.982C783.32 249.904 783.014 249.779 782.74 249.607C782.467 249.432 782.242 249.205 782.066 248.928C781.891 248.65 781.795 248.311 781.779 247.908H783.191C783.195 248.119 783.24 248.297 783.326 248.441C783.416 248.586 783.531 248.703 783.672 248.793C783.816 248.879 783.98 248.941 784.164 248.98C784.348 249.016 784.537 249.033 784.732 249.033C784.908 249.033 785.076 249.016 785.236 248.98C785.396 248.945 785.537 248.895 785.658 248.828C785.783 248.758 785.883 248.67 785.957 248.564C786.035 248.459 786.074 248.336 786.074 248.195ZM790.656 247.627V250H789.256V243.174H792.045C792.412 243.178 792.758 243.23 793.082 243.332C793.406 243.434 793.688 243.582 793.926 243.777C794.168 243.969 794.357 244.205 794.494 244.486C794.635 244.764 794.705 245.08 794.705 245.436C794.705 245.783 794.635 246.094 794.494 246.367C794.357 246.637 794.168 246.865 793.926 247.053C793.688 247.24 793.406 247.383 793.082 247.48C792.758 247.578 792.412 247.627 792.045 247.627H790.656ZM790.656 246.502H792.045C792.225 246.498 792.391 246.473 792.543 246.426C792.699 246.379 792.832 246.311 792.941 246.221C793.055 246.131 793.143 246.021 793.205 245.893C793.268 245.76 793.299 245.611 793.299 245.447C793.299 245.271 793.268 245.115 793.205 244.979C793.143 244.838 793.055 244.719 792.941 244.621C792.832 244.52 792.699 244.441 792.543 244.387C792.391 244.332 792.225 244.303 792.045 244.299H790.656V246.502ZM800.424 248.553H797.594L797.049 250H795.625L798.361 243.174H799.668L802.398 250H800.975L800.424 248.553ZM797.998 247.486H800.014L799.006 244.844L797.998 247.486ZM809.037 247.721C809.002 248.119 808.902 248.467 808.738 248.764C808.574 249.061 808.363 249.309 808.105 249.508C807.848 249.703 807.551 249.85 807.215 249.947C806.879 250.045 806.523 250.094 806.148 250.094C805.695 250.094 805.285 250.016 804.918 249.859C804.555 249.699 804.244 249.48 803.986 249.203C803.729 248.922 803.529 248.594 803.389 248.219C803.252 247.84 803.182 247.432 803.178 246.994V246.191C803.182 245.746 803.256 245.334 803.4 244.955C803.545 244.576 803.748 244.248 804.01 243.971C804.271 243.693 804.584 243.477 804.947 243.32C805.311 243.16 805.713 243.08 806.154 243.08C806.557 243.08 806.926 243.133 807.262 243.238C807.598 243.344 807.891 243.5 808.141 243.707C808.395 243.91 808.598 244.16 808.75 244.457C808.906 244.754 809.004 245.096 809.043 245.482H807.637C807.598 245.076 807.453 244.762 807.203 244.539C806.957 244.316 806.607 244.205 806.154 244.205C805.896 244.205 805.67 244.258 805.475 244.363C805.279 244.469 805.115 244.613 804.982 244.797C804.85 244.977 804.75 245.186 804.684 245.424C804.617 245.662 804.582 245.916 804.578 246.186V246.994C804.582 247.268 804.615 247.525 804.678 247.768C804.744 248.006 804.842 248.215 804.971 248.395C805.104 248.574 805.268 248.717 805.463 248.822C805.658 248.928 805.887 248.98 806.148 248.98C806.355 248.98 806.545 248.957 806.717 248.91C806.889 248.859 807.039 248.783 807.168 248.682C807.297 248.58 807.4 248.449 807.479 248.289C807.561 248.129 807.613 247.939 807.637 247.721H809.037ZM815.559 247.023H812.295V248.887H816.086V250H810.877V243.174H816.08V244.299H812.295V245.904H815.559V247.023ZM825.314 250V243.174H827.904C828.264 243.178 828.605 243.213 828.93 243.279C829.258 243.346 829.545 243.455 829.791 243.607C830.041 243.756 830.238 243.949 830.383 244.188C830.527 244.422 830.6 244.711 830.6 245.055C830.6 245.402 830.5 245.697 830.301 245.939C830.102 246.182 829.836 246.365 829.504 246.49C829.707 246.537 829.887 246.609 830.043 246.707C830.199 246.805 830.33 246.922 830.436 247.059C830.545 247.191 830.627 247.342 830.682 247.51C830.74 247.678 830.77 247.855 830.77 248.043C830.77 248.395 830.701 248.695 830.564 248.945C830.432 249.191 830.246 249.393 830.008 249.549C829.773 249.705 829.496 249.82 829.176 249.895C828.855 249.965 828.512 250 828.145 250H825.314ZM826.721 247.023V248.881H828.145C828.312 248.881 828.471 248.861 828.619 248.822C828.768 248.783 828.896 248.729 829.006 248.658C829.119 248.584 829.207 248.492 829.27 248.383C829.336 248.27 829.369 248.139 829.369 247.99C829.369 247.826 829.34 247.686 829.281 247.568C829.227 247.447 829.148 247.348 829.047 247.27C828.945 247.188 828.822 247.127 828.678 247.088C828.537 247.049 828.379 247.027 828.203 247.023H826.721ZM826.721 246.033H827.998C828.158 246.033 828.311 246.018 828.455 245.986C828.6 245.955 828.727 245.906 828.836 245.84C828.945 245.773 829.031 245.688 829.094 245.582C829.16 245.473 829.193 245.342 829.193 245.189C829.193 245.018 829.16 244.877 829.094 244.768C829.027 244.654 828.938 244.564 828.824 244.498C828.711 244.428 828.58 244.379 828.432 244.352C828.283 244.324 828.127 244.311 827.963 244.311H826.721V246.033ZM836.459 248.553H833.629L833.084 250H831.66L834.396 243.174H835.703L838.434 250H837.01L836.459 248.553ZM834.033 247.486H836.049L835.041 244.844L834.033 247.486ZM842.213 247.504H840.883V250H839.482V243.174H842.143C842.51 243.178 842.855 243.221 843.18 243.303C843.508 243.385 843.793 243.51 844.035 243.678C844.277 243.846 844.469 244.061 844.609 244.322C844.75 244.58 844.82 244.889 844.82 245.248C844.82 245.506 844.787 245.732 844.721 245.928C844.654 246.123 844.562 246.297 844.445 246.449C844.328 246.598 844.188 246.729 844.023 246.842C843.863 246.955 843.688 247.055 843.496 247.141L845.113 249.941V250H843.607L842.213 247.504ZM840.883 246.379H842.143C842.318 246.375 842.482 246.354 842.635 246.314C842.791 246.271 842.928 246.209 843.045 246.127C843.162 246.041 843.254 245.936 843.32 245.811C843.391 245.682 843.426 245.529 843.426 245.354C843.426 245.174 843.393 245.02 843.326 244.891C843.26 244.758 843.168 244.65 843.051 244.568C842.938 244.482 842.803 244.418 842.646 244.375C842.49 244.332 842.322 244.311 842.143 244.311H840.883V246.379ZM859.832 244.299H857.4V250H855.982V244.299H853.586V243.174H859.832V244.299ZM866.799 246.965C866.799 247.391 866.732 247.793 866.6 248.172C866.467 248.551 866.275 248.883 866.025 249.168C865.775 249.453 865.469 249.68 865.105 249.848C864.746 250.012 864.338 250.094 863.881 250.094C863.42 250.094 863.008 250.012 862.645 249.848C862.285 249.68 861.979 249.453 861.725 249.168C861.475 248.883 861.283 248.551 861.15 248.172C861.018 247.793 860.951 247.391 860.951 246.965V246.221C860.951 245.795 861.018 245.393 861.15 245.014C861.283 244.635 861.473 244.303 861.719 244.018C861.969 243.729 862.273 243.5 862.633 243.332C862.996 243.164 863.408 243.08 863.869 243.08C864.326 243.08 864.736 243.164 865.1 243.332C865.463 243.5 865.77 243.727 866.02 244.012C866.27 244.297 866.461 244.631 866.594 245.014C866.73 245.393 866.799 245.795 866.799 246.221V246.965ZM865.398 246.215C865.398 245.961 865.369 245.715 865.311 245.477C865.252 245.234 865.16 245.02 865.035 244.832C864.914 244.645 864.758 244.494 864.566 244.381C864.375 244.264 864.143 244.205 863.869 244.205C863.592 244.205 863.357 244.264 863.166 244.381C862.975 244.494 862.818 244.646 862.697 244.838C862.58 245.025 862.492 245.24 862.434 245.482C862.379 245.721 862.352 245.965 862.352 246.215V246.965C862.352 247.215 862.379 247.461 862.434 247.703C862.492 247.941 862.582 248.156 862.703 248.348C862.824 248.535 862.98 248.688 863.172 248.805C863.367 248.922 863.604 248.98 863.881 248.98C864.154 248.98 864.387 248.924 864.578 248.811C864.77 248.693 864.926 248.541 865.047 248.354C865.168 248.162 865.256 247.945 865.311 247.703C865.369 247.461 865.398 247.215 865.398 246.965V246.215ZM879.766 248.195C879.77 248.035 879.729 247.9 879.643 247.791C879.561 247.678 879.449 247.582 879.309 247.504C879.168 247.426 879.006 247.359 878.822 247.305C878.639 247.25 878.449 247.199 878.254 247.152C877.914 247.066 877.59 246.971 877.281 246.865C876.977 246.76 876.707 246.629 876.473 246.473C876.242 246.312 876.059 246.117 875.922 245.887C875.785 245.652 875.717 245.365 875.717 245.025C875.717 244.697 875.793 244.412 875.945 244.17C876.098 243.924 876.297 243.721 876.543 243.561C876.793 243.4 877.076 243.281 877.393 243.203C877.709 243.121 878.033 243.08 878.365 243.08C878.725 243.08 879.066 243.121 879.391 243.203C879.719 243.285 880.006 243.412 880.252 243.584C880.502 243.756 880.703 243.975 880.855 244.24C881.012 244.506 881.098 244.824 881.113 245.195H879.701C879.697 245.023 879.658 244.873 879.584 244.744C879.514 244.615 879.416 244.508 879.291 244.422C879.17 244.332 879.029 244.266 878.869 244.223C878.709 244.176 878.541 244.152 878.365 244.152C878.197 244.152 878.035 244.17 877.879 244.205C877.727 244.24 877.59 244.293 877.469 244.363C877.352 244.434 877.258 244.521 877.188 244.627C877.117 244.732 877.082 244.855 877.082 244.996C877.082 245.152 877.125 245.283 877.211 245.389C877.301 245.494 877.416 245.584 877.557 245.658C877.701 245.732 877.865 245.795 878.049 245.846C878.236 245.896 878.428 245.945 878.623 245.992C878.963 246.074 879.283 246.172 879.584 246.285C879.889 246.395 880.156 246.533 880.387 246.701C880.617 246.869 880.799 247.072 880.932 247.311C881.064 247.549 881.131 247.836 881.131 248.172C881.131 248.516 881.053 248.809 880.896 249.051C880.744 249.293 880.539 249.492 880.281 249.648C880.027 249.801 879.734 249.914 879.402 249.988C879.074 250.059 878.736 250.094 878.389 250.094C878.041 250.094 877.695 250.057 877.352 249.982C877.012 249.904 876.705 249.779 876.432 249.607C876.158 249.432 875.934 249.205 875.758 248.928C875.582 248.65 875.486 248.311 875.471 247.908H876.883C876.887 248.119 876.932 248.297 877.018 248.441C877.107 248.586 877.223 248.703 877.363 248.793C877.508 248.879 877.672 248.941 877.855 248.98C878.039 249.016 878.229 249.033 878.424 249.033C878.6 249.033 878.768 249.016 878.928 248.98C879.088 248.945 879.229 248.895 879.35 248.828C879.475 248.758 879.574 248.67 879.648 248.564C879.727 248.459 879.766 248.336 879.766 248.195ZM888.66 244.299H886.229V250H884.811V244.299H882.414V243.174H888.66V244.299ZM894.115 248.553H891.285L890.74 250H889.316L892.053 243.174H893.359L896.09 250H894.666L894.115 248.553ZM891.689 247.486H893.705L892.697 244.844L891.689 247.486ZM899.869 247.504H898.539V250H897.139V243.174H899.799C900.166 243.178 900.512 243.221 900.836 243.303C901.164 243.385 901.449 243.51 901.691 243.678C901.934 243.846 902.125 244.061 902.266 244.322C902.406 244.58 902.477 244.889 902.477 245.248C902.477 245.506 902.443 245.732 902.377 245.928C902.311 246.123 902.219 246.297 902.102 246.449C901.984 246.598 901.844 246.729 901.68 246.842C901.52 246.955 901.344 247.055 901.152 247.141L902.77 249.941V250H901.264L899.869 247.504ZM898.539 246.379H899.799C899.975 246.375 900.139 246.354 900.291 246.314C900.447 246.271 900.584 246.209 900.701 246.127C900.818 246.041 900.91 245.936 900.977 245.811C901.047 245.682 901.082 245.529 901.082 245.354C901.082 245.174 901.049 245.02 900.982 244.891C900.916 244.758 900.824 244.65 900.707 244.568C900.594 244.482 900.459 244.418 900.303 244.375C900.146 244.332 899.979 244.311 899.799 244.311H898.539V246.379ZM910.281 244.299H907.85V250H906.432V244.299H904.035V243.174H910.281V244.299Z" fill="#EAEAEA"/>
<path d="M807.524 139.281H833.234V165.505H807.524V139.281Z" fill="#D6D6D6"/>
<path d="M833.705 168.076H807.567C806.123 168.076 804.953 166.906 804.953 165.462V139.324C804.953 137.879 806.123 136.71 807.567 136.71H833.705C835.15 136.71 836.319 137.879 836.319 139.324V165.462C836.319 166.906 835.15 168.076 833.705 168.076ZM810.181 162.848H831.092V141.937H810.181V162.848Z" fill="#A2A4A2"/>
<path d="M833.234 139.281H859.458V165.505H833.234V139.281Z" fill="#D6D6D6"/>
<path d="M859.415 168.076H833.277C831.832 168.076 830.663 166.906 830.663 165.462V139.324C830.663 137.879 831.832 136.71 833.277 136.71H859.415C860.86 136.71 862.029 137.879 862.029 139.324V165.462C862.029 166.906 860.86 168.076 859.415 168.076ZM835.891 162.848H856.801V141.937H835.891V162.848Z" fill="#A2A4A2"/>
<path d="M833.234 113.571H859.458V139.281H833.234V113.571Z" fill="#D6D6D6"/>
<path d="M808.035 200.835H884.612V226.545H808.035V200.835Z" fill="#D6D6D6"/>
<path d="M859.415 142.366H833.277C831.832 142.366 830.663 141.197 830.663 139.752V113.614C830.663 112.169 831.832 111 833.277 111H859.415C860.86 111 862.029 112.169 862.029 113.614V139.752C862.029 141.197 860.86 142.366 859.415 142.366ZM835.891 137.138H856.801V116.228H835.891V137.138Z" fill="#A2A4A2"/>
<path d="M859.458 139.281H885.168V165.505H859.458V139.281Z" fill="#D6D6D6"/>
<path d="M885.378 168.076H859.435C858.001 168.076 856.84 166.915 856.84 165.481V139.538C856.84 138.104 858.001 136.943 859.435 136.943H885.378C886.812 136.943 887.972 138.104 887.972 139.538V165.481C887.972 166.915 886.812 168.076 885.378 168.076ZM862.029 162.887H882.784V142.132H862.029V162.887Z" fill="#A2A4A2"/>
<path d="M825.708 158.618V146.401C825.708 145.711 824.921 145.317 824.369 145.731L816.224 151.84C815.777 152.175 815.777 152.844 816.224 153.179L824.369 159.288C824.921 159.702 825.708 159.308 825.708 158.618V158.618Z" fill="#4F565E"/>
<path d="M867.776 158.618V146.401C867.776 145.711 868.564 145.317 869.115 145.731L877.26 151.84C877.707 152.175 877.707 152.844 877.26 153.179L869.115 159.288C868.563 159.702 867.776 159.308 867.776 158.618V158.618Z" fill="#4F565E"/>
<path d="M840.075 147.321H852.292C852.982 147.321 853.376 148.108 852.962 148.66L846.853 156.805C846.518 157.252 845.849 157.252 845.514 156.805L839.405 148.66C838.992 148.108 839.385 147.321 840.075 147.321V147.321Z" fill="#4F565E"/>
<path d="M840.075 131.197H852.292C852.982 131.197 853.376 130.409 852.962 129.857L846.853 121.712C846.518 121.266 845.849 121.266 845.514 121.712L839.405 129.857C838.992 130.409 839.385 131.197 840.075 131.197V131.197Z" fill="#4F565E"/>
<path d="M881.083 229.976H811.917C808.093 229.976 805 228.784 805 227.31V200.643C805 199.169 808.093 197.976 811.917 197.976H881.083C884.907 197.976 888 199.169 888 200.643V227.31C888 228.784 884.907 229.976 881.083 229.976ZM810.292 224.643H882.708V213.976V203.31H810.292V224.643Z" fill="#A2A4A2"/>
<path opacity="0.8" d="M337.84 664.66L337.887 665.428C338.008 665.154 338.174 664.939 338.385 664.783C338.6 664.623 338.859 664.543 339.164 664.543C339.676 664.543 340.01 664.768 340.166 665.217C340.291 665.006 340.449 664.842 340.641 664.725C340.836 664.604 341.07 664.543 341.344 664.543C341.535 664.543 341.713 664.578 341.877 664.648C342.045 664.719 342.189 664.832 342.311 664.988C342.436 665.141 342.531 665.34 342.598 665.586C342.668 665.828 342.703 666.125 342.703 666.477V671H341.221V666.471C341.221 666.35 341.207 666.25 341.18 666.172C341.156 666.094 341.123 666.033 341.08 665.99C341.037 665.943 340.986 665.912 340.928 665.896C340.873 665.877 340.816 665.867 340.758 665.867C340.645 665.867 340.549 665.895 340.471 665.949C340.393 666 340.332 666.07 340.289 666.16V671H338.854V666.465C338.854 666.344 338.842 666.244 338.818 666.166C338.795 666.088 338.762 666.027 338.719 665.984C338.68 665.941 338.633 665.912 338.578 665.896C338.523 665.877 338.465 665.867 338.402 665.867C338.277 665.867 338.176 665.902 338.098 665.973C338.023 666.043 337.965 666.137 337.922 666.254V671H336.439V664.66H337.84ZM347.994 671C347.955 670.922 347.922 670.832 347.895 670.73C347.867 670.629 347.844 670.521 347.824 670.408C347.734 670.506 347.631 670.598 347.514 670.684C347.396 670.77 347.266 670.846 347.121 670.912C346.98 670.975 346.824 671.023 346.652 671.059C346.48 671.098 346.295 671.117 346.096 671.117C345.771 671.117 345.473 671.07 345.199 670.977C344.93 670.883 344.697 670.752 344.502 670.584C344.307 670.416 344.154 670.217 344.045 669.986C343.936 669.752 343.881 669.498 343.881 669.225C343.881 668.557 344.129 668.041 344.625 667.678C345.125 667.311 345.869 667.127 346.857 667.127H347.766V666.752C347.766 666.447 347.666 666.207 347.467 666.031C347.268 665.852 346.98 665.762 346.605 665.762C346.273 665.762 346.031 665.834 345.879 665.979C345.727 666.119 345.65 666.309 345.65 666.547H344.021C344.021 666.277 344.08 666.021 344.197 665.779C344.318 665.537 344.492 665.324 344.719 665.141C344.949 664.957 345.229 664.812 345.557 664.707C345.889 664.598 346.268 664.543 346.693 664.543C347.076 664.543 347.432 664.59 347.76 664.684C348.092 664.777 348.379 664.916 348.621 665.1C348.863 665.283 349.053 665.516 349.189 665.797C349.326 666.074 349.395 666.396 349.395 666.764V669.482C349.395 669.822 349.416 670.104 349.459 670.326C349.502 670.549 349.564 670.74 349.646 670.9V671H347.994ZM346.441 669.857C346.605 669.857 346.758 669.838 346.898 669.799C347.039 669.76 347.166 669.709 347.279 669.646C347.393 669.584 347.49 669.514 347.572 669.436C347.654 669.354 347.719 669.271 347.766 669.189V668.1H346.934C346.68 668.1 346.463 668.125 346.283 668.176C346.104 668.223 345.957 668.291 345.844 668.381C345.73 668.467 345.646 668.572 345.592 668.697C345.537 668.818 345.51 668.951 345.51 669.096C345.51 669.314 345.586 669.496 345.738 669.641C345.895 669.785 346.129 669.857 346.441 669.857ZM351.07 667.783C351.07 667.303 351.125 666.863 351.234 666.465C351.348 666.066 351.512 665.725 351.727 665.439C351.941 665.154 352.201 664.934 352.506 664.777C352.814 664.621 353.166 664.543 353.561 664.543C353.893 664.543 354.184 664.604 354.434 664.725C354.688 664.842 354.912 665.01 355.107 665.229V662H356.742V671H355.271L355.189 670.338C354.99 670.584 354.756 670.775 354.486 670.912C354.217 671.049 353.904 671.117 353.549 671.117C353.162 671.117 352.814 671.037 352.506 670.877C352.201 670.713 351.941 670.488 351.727 670.203C351.516 669.918 351.354 669.58 351.24 669.189C351.127 668.795 351.07 668.367 351.07 667.906V667.783ZM352.699 667.906C352.699 668.172 352.721 668.42 352.764 668.65C352.811 668.877 352.885 669.076 352.986 669.248C353.088 669.416 353.219 669.549 353.379 669.646C353.539 669.744 353.734 669.793 353.965 669.793C354.246 669.793 354.479 669.732 354.662 669.611C354.85 669.49 354.998 669.324 355.107 669.113V666.547C354.998 666.332 354.852 666.166 354.668 666.049C354.484 665.928 354.254 665.867 353.977 665.867C353.746 665.867 353.549 665.918 353.385 666.02C353.225 666.117 353.094 666.254 352.992 666.43C352.891 666.602 352.816 666.805 352.77 667.039C352.723 667.27 352.699 667.518 352.699 667.783V667.906ZM361.523 671.117C361.035 671.117 360.592 671.037 360.193 670.877C359.795 670.717 359.453 670.5 359.168 670.227C358.883 669.949 358.662 669.625 358.506 669.254C358.354 668.879 358.277 668.479 358.277 668.053V667.818C358.277 667.334 358.354 666.893 358.506 666.494C358.658 666.092 358.871 665.746 359.145 665.457C359.418 665.168 359.742 664.943 360.117 664.783C360.492 664.623 360.9 664.543 361.342 664.543C361.799 664.543 362.205 664.619 362.561 664.771C362.92 664.92 363.223 665.131 363.469 665.404C363.719 665.678 363.908 666.008 364.037 666.395C364.166 666.777 364.23 667.201 364.23 667.666V668.357H359.93C359.961 668.572 360.023 668.77 360.117 668.949C360.215 669.125 360.338 669.277 360.486 669.406C360.635 669.535 360.805 669.635 360.996 669.705C361.188 669.775 361.396 669.811 361.623 669.811C361.783 669.811 361.941 669.795 362.098 669.764C362.258 669.732 362.41 669.688 362.555 669.629C362.699 669.566 362.834 669.49 362.959 669.4C363.084 669.311 363.193 669.205 363.287 669.084L364.102 669.963C364 670.107 363.867 670.25 363.703 670.391C363.543 670.527 363.352 670.65 363.129 670.76C362.91 670.865 362.666 670.951 362.396 671.018C362.127 671.084 361.836 671.117 361.523 671.117ZM361.33 665.861C361.146 665.861 360.979 665.895 360.826 665.961C360.674 666.023 360.539 666.115 360.422 666.236C360.309 666.357 360.213 666.502 360.135 666.67C360.057 666.838 359.998 667.025 359.959 667.232H362.631V667.104C362.623 666.932 362.59 666.77 362.531 666.617C362.473 666.465 362.389 666.334 362.279 666.225C362.17 666.111 362.035 666.023 361.875 665.961C361.719 665.895 361.537 665.861 361.33 665.861ZM376.916 669.014L377.467 664.66H378.961L377.824 671H376.395L375.562 666.969L374.76 671H373.33L372.193 664.66H373.682L374.232 669.031L375.029 664.66H376.119L376.916 669.014ZM380.502 664.66H383.953V669.676H385.67V671H380.502V669.676H382.307V665.99H380.502V664.66ZM382.189 663.037C382.189 662.912 382.211 662.797 382.254 662.691C382.301 662.582 382.365 662.49 382.447 662.416C382.529 662.338 382.627 662.277 382.74 662.234C382.857 662.191 382.986 662.17 383.127 662.17C383.416 662.17 383.645 662.252 383.812 662.416C383.984 662.576 384.07 662.783 384.07 663.037C384.07 663.291 383.984 663.5 383.812 663.664C383.645 663.824 383.416 663.904 383.127 663.904C382.986 663.904 382.857 663.883 382.74 663.84C382.627 663.797 382.529 663.738 382.447 663.664C382.365 663.586 382.301 663.494 382.254 663.389C382.211 663.279 382.189 663.162 382.189 663.037ZM390.264 663.107V664.66H392.631V665.861H390.264V668.586C390.264 668.816 390.289 669.01 390.34 669.166C390.395 669.318 390.471 669.441 390.568 669.535C390.666 669.625 390.783 669.689 390.92 669.729C391.061 669.768 391.217 669.787 391.389 669.787C391.514 669.787 391.641 669.781 391.77 669.77C391.902 669.758 392.027 669.744 392.145 669.729C392.266 669.709 392.377 669.689 392.479 669.67C392.584 669.65 392.674 669.631 392.748 669.611L392.906 670.73C392.793 670.797 392.66 670.855 392.508 670.906C392.355 670.953 392.193 670.992 392.021 671.023C391.85 671.055 391.67 671.078 391.482 671.094C391.299 671.113 391.117 671.123 390.938 671.123C390.59 671.123 390.273 671.078 389.988 670.988C389.707 670.895 389.465 670.752 389.262 670.561C389.062 670.365 388.908 670.119 388.799 669.822C388.689 669.521 388.635 669.162 388.635 668.744V665.861H387.188V664.66H388.635V663.107H390.264ZM396.111 665.533C396.322 665.225 396.578 664.982 396.879 664.807C397.184 664.631 397.523 664.543 397.898 664.543C398.23 664.543 398.535 664.594 398.812 664.695C399.09 664.793 399.328 664.947 399.527 665.158C399.727 665.369 399.881 665.641 399.99 665.973C400.104 666.301 400.16 666.697 400.16 667.162V671H398.531V667.15C398.531 666.924 398.502 666.729 398.443 666.564C398.389 666.4 398.309 666.268 398.203 666.166C398.098 666.064 397.971 665.99 397.822 665.943C397.674 665.893 397.506 665.867 397.318 665.867C397.045 665.867 396.807 665.916 396.604 666.014C396.404 666.111 396.24 666.248 396.111 666.424V671H394.482V662H396.111V665.533ZM409.236 662H412.781V669.676H414.598V671H409.236V669.676H411.135V663.33H409.236V662ZM415.881 667.771C415.881 667.311 415.947 666.885 416.08 666.494C416.213 666.1 416.406 665.758 416.66 665.469C416.918 665.18 417.23 664.953 417.598 664.789C417.969 664.625 418.393 664.543 418.869 664.543C419.346 664.543 419.77 664.625 420.141 664.789C420.512 664.953 420.824 665.18 421.078 665.469C421.336 665.758 421.531 666.1 421.664 666.494C421.797 666.885 421.863 667.311 421.863 667.771V667.895C421.863 668.359 421.797 668.789 421.664 669.184C421.531 669.574 421.338 669.914 421.084 670.203C420.83 670.492 420.518 670.719 420.146 670.883C419.775 671.043 419.354 671.123 418.881 671.123C418.404 671.123 417.979 671.043 417.604 670.883C417.232 670.719 416.918 670.492 416.66 670.203C416.406 669.914 416.213 669.574 416.08 669.184C415.947 668.789 415.881 668.359 415.881 667.895V667.771ZM417.51 667.895C417.51 668.16 417.535 668.41 417.586 668.645C417.637 668.875 417.717 669.078 417.826 669.254C417.936 669.426 418.076 669.562 418.248 669.664C418.424 669.766 418.635 669.816 418.881 669.816C419.119 669.816 419.324 669.766 419.496 669.664C419.668 669.562 419.807 669.426 419.912 669.254C420.021 669.078 420.102 668.875 420.152 668.645C420.203 668.41 420.229 668.16 420.229 667.895V667.771C420.229 667.514 420.203 667.27 420.152 667.039C420.102 666.809 420.021 666.605 419.912 666.43C419.807 666.254 419.668 666.115 419.496 666.014C419.324 665.912 419.115 665.861 418.869 665.861C418.627 665.861 418.42 665.912 418.248 666.014C418.076 666.115 417.936 666.254 417.826 666.43C417.717 666.605 417.637 666.809 417.586 667.039C417.535 667.27 417.51 667.514 417.51 667.771V667.895ZM426.006 669.119L426.088 669.576L426.17 669.137L427.564 664.66H429.264L426.855 671H425.326L422.906 664.66H424.605L426.006 669.119ZM433.594 671.117C433.105 671.117 432.662 671.037 432.264 670.877C431.865 670.717 431.523 670.5 431.238 670.227C430.953 669.949 430.732 669.625 430.576 669.254C430.424 668.879 430.348 668.479 430.348 668.053V667.818C430.348 667.334 430.424 666.893 430.576 666.494C430.729 666.092 430.941 665.746 431.215 665.457C431.488 665.168 431.812 664.943 432.188 664.783C432.562 664.623 432.971 664.543 433.412 664.543C433.869 664.543 434.275 664.619 434.631 664.771C434.99 664.92 435.293 665.131 435.539 665.404C435.789 665.678 435.979 666.008 436.107 666.395C436.236 666.777 436.301 667.201 436.301 667.666V668.357H432C432.031 668.572 432.094 668.77 432.188 668.949C432.285 669.125 432.408 669.277 432.557 669.406C432.705 669.535 432.875 669.635 433.066 669.705C433.258 669.775 433.467 669.811 433.693 669.811C433.854 669.811 434.012 669.795 434.168 669.764C434.328 669.732 434.48 669.688 434.625 669.629C434.77 669.566 434.904 669.49 435.029 669.4C435.154 669.311 435.264 669.205 435.357 669.084L436.172 669.963C436.07 670.107 435.938 670.25 435.773 670.391C435.613 670.527 435.422 670.65 435.199 670.76C434.98 670.865 434.736 670.951 434.467 671.018C434.197 671.084 433.906 671.117 433.594 671.117ZM433.4 665.861C433.217 665.861 433.049 665.895 432.896 665.961C432.744 666.023 432.609 666.115 432.492 666.236C432.379 666.357 432.283 666.502 432.205 666.67C432.127 666.838 432.068 667.025 432.029 667.232H434.701V667.104C434.693 666.932 434.66 666.77 434.602 666.617C434.543 666.465 434.459 666.334 434.35 666.225C434.24 666.111 434.105 666.023 433.945 665.961C433.789 665.895 433.607 665.861 433.4 665.861ZM450.645 667.895C450.645 668.367 450.592 668.801 450.486 669.195C450.385 669.59 450.23 669.93 450.023 670.215C449.816 670.5 449.559 670.723 449.25 670.883C448.941 671.039 448.582 671.117 448.172 671.117C447.801 671.117 447.479 671.049 447.205 670.912C446.936 670.771 446.703 670.576 446.508 670.326L446.432 671H444.967V662H446.596V665.234C446.783 665.016 447.004 664.846 447.258 664.725C447.516 664.604 447.816 664.543 448.16 664.543C448.574 664.543 448.936 664.623 449.244 664.783C449.557 664.943 449.816 665.166 450.023 665.451C450.23 665.736 450.385 666.078 450.486 666.477C450.592 666.871 450.645 667.303 450.645 667.771V667.895ZM449.016 667.771C449.016 667.514 448.996 667.27 448.957 667.039C448.918 666.809 448.85 666.607 448.752 666.436C448.658 666.26 448.529 666.121 448.365 666.02C448.201 665.918 447.996 665.867 447.75 665.867C447.453 665.867 447.211 665.93 447.023 666.055C446.84 666.18 446.697 666.352 446.596 666.57V669.096C446.697 669.314 446.84 669.486 447.023 669.611C447.211 669.736 447.457 669.799 447.762 669.799C448.008 669.799 448.211 669.752 448.371 669.658C448.531 669.561 448.658 669.428 448.752 669.26C448.85 669.088 448.918 668.887 448.957 668.656C448.996 668.422 449.016 668.168 449.016 667.895V667.771ZM454.84 668.34L455.027 669.02L456.715 664.66H458.514L455.297 671.949C455.227 672.109 455.135 672.283 455.021 672.471C454.912 672.658 454.773 672.832 454.605 672.992C454.438 673.152 454.232 673.287 453.99 673.396C453.752 673.506 453.469 673.561 453.141 673.561C453.062 673.561 452.99 673.557 452.924 673.549C452.857 673.545 452.793 673.537 452.73 673.525C452.668 673.518 452.605 673.506 452.543 673.49C452.484 673.479 452.42 673.463 452.35 673.443L452.549 672.201C452.615 672.201 452.699 672.203 452.801 672.207C452.906 672.215 452.99 672.219 453.053 672.219C453.182 672.219 453.295 672.18 453.393 672.102C453.494 672.023 453.58 671.938 453.65 671.844C453.721 671.75 453.777 671.664 453.82 671.586C453.863 671.508 453.893 671.469 453.908 671.469L454.301 670.73L451.617 664.66H453.398L454.84 668.34ZM338.807 687.732H337.289L340.482 678.469H342L338.807 687.732ZM346.014 687.732H344.496L347.689 678.469H349.207L346.014 687.732ZM352.945 685.67H356.941V687H351.293V678.469H352.945V685.67ZM364.072 678.469L364.078 684.123C364.078 684.6 364.012 685.023 363.879 685.395C363.75 685.766 363.561 686.08 363.311 686.338C363.064 686.592 362.762 686.785 362.402 686.918C362.047 687.051 361.641 687.117 361.184 687.117C360.754 687.117 360.365 687.051 360.018 686.918C359.674 686.785 359.379 686.592 359.133 686.338C358.887 686.084 358.695 685.771 358.559 685.4C358.426 685.025 358.359 684.6 358.359 684.123L358.365 678.469H360.012L360.018 684.123C360.021 684.674 360.121 685.09 360.316 685.371C360.516 685.652 360.805 685.793 361.184 685.793C361.586 685.793 361.893 685.652 362.104 685.371C362.318 685.09 362.428 684.674 362.432 684.123L362.438 678.469H364.072ZM367.348 683.871V687H365.701V678.469H368.619C369.084 678.469 369.504 678.537 369.879 678.674C370.254 678.807 370.572 678.994 370.834 679.236C371.1 679.475 371.303 679.762 371.443 680.098C371.588 680.434 371.66 680.807 371.66 681.217C371.66 681.6 371.588 681.953 371.443 682.277C371.303 682.602 371.1 682.883 370.834 683.121C370.572 683.355 370.254 683.539 369.879 683.672C369.504 683.805 369.084 683.871 368.619 683.871H367.348ZM367.348 682.535H368.619C368.854 682.535 369.057 682.5 369.229 682.43C369.4 682.359 369.543 682.264 369.656 682.143C369.773 682.021 369.859 681.883 369.914 681.727C369.973 681.566 370.002 681.4 370.002 681.229C370.002 681.029 369.973 680.844 369.914 680.672C369.859 680.5 369.773 680.35 369.656 680.221C369.543 680.092 369.4 679.99 369.229 679.916C369.057 679.842 368.854 679.805 368.619 679.805H367.348V682.535ZM378.756 683.361C378.756 683.908 378.684 684.412 378.539 684.873C378.395 685.334 378.186 685.73 377.912 686.062C377.639 686.395 377.305 686.654 376.91 686.842C376.52 687.025 376.078 687.117 375.586 687.117C375.094 687.117 374.656 687.025 374.273 686.842C373.891 686.654 373.568 686.395 373.307 686.062C373.045 685.727 372.846 685.33 372.709 684.873C372.572 684.412 372.504 683.908 372.504 683.361V682.119C372.504 681.572 372.572 681.068 372.709 680.607C372.846 680.146 373.045 679.75 373.307 679.418C373.568 679.082 373.889 678.82 374.268 678.633C374.65 678.445 375.088 678.352 375.58 678.352C376.076 678.352 376.52 678.445 376.91 678.633C377.305 678.82 377.639 679.082 377.912 679.418C378.186 679.75 378.395 680.146 378.539 680.607C378.684 681.068 378.756 681.572 378.756 682.119V683.361ZM377.086 682.107C377.086 681.76 377.057 681.439 376.998 681.146C376.943 680.854 376.855 680.602 376.734 680.391C376.613 680.18 376.457 680.016 376.266 679.898C376.078 679.777 375.85 679.717 375.58 679.717C375.314 679.717 375.092 679.777 374.912 679.898C374.732 680.016 374.588 680.18 374.479 680.391C374.369 680.602 374.291 680.854 374.244 681.146C374.197 681.439 374.174 681.76 374.174 682.107V683.361C374.174 683.705 374.197 684.023 374.244 684.316C374.291 684.609 374.369 684.863 374.479 685.078C374.588 685.293 374.732 685.461 374.912 685.582C375.092 685.703 375.316 685.764 375.586 685.764C375.852 685.764 376.078 685.703 376.266 685.582C376.457 685.461 376.611 685.295 376.729 685.084C376.85 684.869 376.939 684.615 376.998 684.322C377.057 684.029 377.086 683.709 377.086 683.361V682.107ZM385.934 684.328C385.906 684.758 385.812 685.145 385.652 685.488C385.496 685.832 385.285 686.125 385.02 686.367C384.754 686.609 384.438 686.797 384.07 686.93C383.703 687.059 383.297 687.123 382.852 687.123C382.348 687.123 381.9 687.031 381.51 686.848C381.119 686.66 380.791 686.4 380.525 686.068C380.26 685.732 380.057 685.33 379.916 684.861C379.775 684.393 379.705 683.877 379.705 683.314V682.166C379.705 681.6 379.779 681.082 379.928 680.613C380.076 680.145 380.287 679.742 380.561 679.406C380.834 679.07 381.164 678.811 381.551 678.627C381.941 678.439 382.379 678.346 382.863 678.346C383.332 678.346 383.748 678.412 384.111 678.545C384.479 678.678 384.791 678.867 385.049 679.113C385.307 679.359 385.51 679.66 385.658 680.016C385.807 680.371 385.9 680.771 385.939 681.217H384.299C384.283 680.963 384.244 680.74 384.182 680.549C384.123 680.357 384.035 680.199 383.918 680.074C383.805 679.945 383.66 679.85 383.484 679.787C383.312 679.721 383.105 679.688 382.863 679.688C382.609 679.688 382.389 679.742 382.201 679.852C382.014 679.961 381.857 680.121 381.732 680.332C381.611 680.543 381.521 680.803 381.463 681.111C381.404 681.416 381.375 681.764 381.375 682.154V683.314C381.375 684.154 381.492 684.775 381.727 685.178C381.965 685.58 382.34 685.781 382.852 685.781C383.281 685.781 383.621 685.668 383.871 685.441C384.121 685.211 384.26 684.84 384.287 684.328H385.934ZM393.17 683.361C393.17 683.908 393.098 684.412 392.953 684.873C392.809 685.334 392.6 685.73 392.326 686.062C392.053 686.395 391.719 686.654 391.324 686.842C390.934 687.025 390.492 687.117 390 687.117C389.508 687.117 389.07 687.025 388.688 686.842C388.305 686.654 387.982 686.395 387.721 686.062C387.459 685.727 387.26 685.33 387.123 684.873C386.986 684.412 386.918 683.908 386.918 683.361V682.119C386.918 681.572 386.986 681.068 387.123 680.607C387.26 680.146 387.459 679.75 387.721 679.418C387.982 679.082 388.303 678.82 388.682 678.633C389.064 678.445 389.502 678.352 389.994 678.352C390.49 678.352 390.934 678.445 391.324 678.633C391.719 678.82 392.053 679.082 392.326 679.418C392.6 679.75 392.809 680.146 392.953 680.607C393.098 681.068 393.17 681.572 393.17 682.119V683.361ZM391.5 682.107C391.5 681.76 391.471 681.439 391.412 681.146C391.357 680.854 391.27 680.602 391.148 680.391C391.027 680.18 390.871 680.016 390.68 679.898C390.492 679.777 390.264 679.717 389.994 679.717C389.729 679.717 389.506 679.777 389.326 679.898C389.146 680.016 389.002 680.18 388.893 680.391C388.783 680.602 388.705 680.854 388.658 681.146C388.611 681.439 388.588 681.76 388.588 682.107V683.361C388.588 683.705 388.611 684.023 388.658 684.316C388.705 684.609 388.783 684.863 388.893 685.078C389.002 685.293 389.146 685.461 389.326 685.582C389.506 685.703 389.73 685.764 390 685.764C390.266 685.764 390.492 685.703 390.68 685.582C390.871 685.461 391.025 685.295 391.143 685.084C391.264 684.869 391.354 684.615 391.412 684.322C391.471 684.029 391.5 683.709 391.5 683.361V682.107ZM397.318 683.812H396.07V687H394.424V678.469H397.283C397.756 678.469 398.184 678.525 398.566 678.639C398.949 678.748 399.275 678.91 399.545 679.125C399.818 679.34 400.027 679.607 400.172 679.928C400.32 680.248 400.395 680.619 400.395 681.041C400.395 681.346 400.357 681.621 400.283 681.867C400.213 682.109 400.109 682.328 399.973 682.523C399.84 682.715 399.678 682.883 399.486 683.027C399.299 683.172 399.088 683.297 398.854 683.402L400.688 686.924V687H398.924L397.318 683.812ZM396.07 682.477H397.289C397.754 682.477 398.111 682.359 398.361 682.125C398.615 681.887 398.742 681.562 398.742 681.152C398.742 680.727 398.619 680.396 398.373 680.162C398.127 679.924 397.764 679.805 397.283 679.805H396.07V682.477ZM401.596 687V678.469H403.805C404.371 678.469 404.883 678.566 405.34 678.762C405.801 678.953 406.193 679.223 406.518 679.57C406.846 679.914 407.098 680.326 407.273 680.807C407.453 681.287 407.543 681.814 407.543 682.389V683.092C407.543 683.666 407.453 684.193 407.273 684.674C407.098 685.15 406.85 685.562 406.529 685.91C406.209 686.254 405.824 686.521 405.375 686.713C404.926 686.904 404.43 687 403.887 687H401.596ZM403.254 679.805V685.676H403.887C404.195 685.676 404.471 685.617 404.713 685.5C404.959 685.383 405.166 685.213 405.334 684.99C405.506 684.768 405.637 684.498 405.727 684.182C405.816 683.861 405.861 683.498 405.861 683.092V682.377C405.861 681.994 405.816 681.646 405.727 681.334C405.641 681.018 405.51 680.746 405.334 680.52C405.162 680.293 404.947 680.117 404.689 679.992C404.436 679.867 404.141 679.805 403.805 679.805H403.254ZM414.088 683.262H410.584V685.67H414.68V687H408.932V678.469H414.662V679.811H410.584V681.961H414.088V683.262ZM418.939 683.812H417.691V687H416.045V678.469H418.904C419.377 678.469 419.805 678.525 420.188 678.639C420.57 678.748 420.896 678.91 421.166 679.125C421.439 679.34 421.648 679.607 421.793 679.928C421.941 680.248 422.016 680.619 422.016 681.041C422.016 681.346 421.979 681.621 421.904 681.867C421.834 682.109 421.73 682.328 421.594 682.523C421.461 682.715 421.299 682.883 421.107 683.027C420.92 683.172 420.709 683.297 420.475 683.402L422.309 686.924V687H420.545L418.939 683.812ZM417.691 682.477H418.91C419.375 682.477 419.732 682.359 419.982 682.125C420.236 681.887 420.363 681.562 420.363 681.152C420.363 680.727 420.24 680.396 419.994 680.162C419.748 679.924 419.385 679.805 418.904 679.805H417.691V682.477ZM429.205 683.361C429.205 683.908 429.133 684.412 428.988 684.873C428.844 685.334 428.635 685.73 428.361 686.062C428.088 686.395 427.754 686.654 427.359 686.842C426.969 687.025 426.527 687.117 426.035 687.117C425.543 687.117 425.105 687.025 424.723 686.842C424.34 686.654 424.018 686.395 423.756 686.062C423.494 685.727 423.295 685.33 423.158 684.873C423.021 684.412 422.953 683.908 422.953 683.361V682.119C422.953 681.572 423.021 681.068 423.158 680.607C423.295 680.146 423.494 679.75 423.756 679.418C424.018 679.082 424.338 678.82 424.717 678.633C425.1 678.445 425.537 678.352 426.029 678.352C426.525 678.352 426.969 678.445 427.359 678.633C427.754 678.82 428.088 679.082 428.361 679.418C428.635 679.75 428.844 680.146 428.988 680.607C429.133 681.068 429.205 681.572 429.205 682.119V683.361ZM427.535 682.107C427.535 681.76 427.506 681.439 427.447 681.146C427.393 680.854 427.305 680.602 427.184 680.391C427.062 680.18 426.906 680.016 426.715 679.898C426.527 679.777 426.299 679.717 426.029 679.717C425.764 679.717 425.541 679.777 425.361 679.898C425.182 680.016 425.037 680.18 424.928 680.391C424.818 680.602 424.74 680.854 424.693 681.146C424.646 681.439 424.623 681.76 424.623 682.107V683.361C424.623 683.705 424.646 684.023 424.693 684.316C424.74 684.609 424.818 684.863 424.928 685.078C425.037 685.293 425.182 685.461 425.361 685.582C425.541 685.703 425.766 685.764 426.035 685.764C426.301 685.764 426.527 685.703 426.715 685.582C426.906 685.461 427.061 685.295 427.178 685.084C427.299 684.869 427.389 684.615 427.447 684.322C427.506 684.029 427.535 683.709 427.535 683.361V682.107ZM432.164 686.057C432.164 685.904 432.189 685.764 432.24 685.635C432.291 685.502 432.365 685.389 432.463 685.295C432.561 685.197 432.68 685.121 432.82 685.066C432.961 685.008 433.119 684.979 433.295 684.979C433.471 684.979 433.629 685.008 433.77 685.066C433.91 685.121 434.027 685.197 434.121 685.295C434.219 685.389 434.293 685.502 434.344 685.635C434.398 685.764 434.426 685.904 434.426 686.057C434.426 686.205 434.398 686.344 434.344 686.473C434.293 686.602 434.219 686.715 434.121 686.812C434.027 686.906 433.91 686.98 433.77 687.035C433.629 687.09 433.471 687.117 433.295 687.117C433.119 687.117 432.961 687.09 432.82 687.035C432.68 686.98 432.561 686.906 432.463 686.812C432.365 686.715 432.291 686.602 432.24 686.473C432.189 686.344 432.164 686.205 432.164 686.057ZM443.59 684.328C443.562 684.758 443.469 685.145 443.309 685.488C443.152 685.832 442.941 686.125 442.676 686.367C442.41 686.609 442.094 686.797 441.727 686.93C441.359 687.059 440.953 687.123 440.508 687.123C440.004 687.123 439.557 687.031 439.166 686.848C438.775 686.66 438.447 686.4 438.182 686.068C437.916 685.732 437.713 685.33 437.572 684.861C437.432 684.393 437.361 683.877 437.361 683.314V682.166C437.361 681.6 437.436 681.082 437.584 680.613C437.732 680.145 437.943 679.742 438.217 679.406C438.49 679.07 438.82 678.811 439.207 678.627C439.598 678.439 440.035 678.346 440.52 678.346C440.988 678.346 441.404 678.412 441.768 678.545C442.135 678.678 442.447 678.867 442.705 679.113C442.963 679.359 443.166 679.66 443.314 680.016C443.463 680.371 443.557 680.771 443.596 681.217H441.955C441.939 680.963 441.9 680.74 441.838 680.549C441.779 680.357 441.691 680.199 441.574 680.074C441.461 679.945 441.316 679.85 441.141 679.787C440.969 679.721 440.762 679.688 440.52 679.688C440.266 679.688 440.045 679.742 439.857 679.852C439.67 679.961 439.514 680.121 439.389 680.332C439.268 680.543 439.178 680.803 439.119 681.111C439.061 681.416 439.031 681.764 439.031 682.154V683.314C439.031 684.154 439.148 684.775 439.383 685.178C439.621 685.58 439.996 685.781 440.508 685.781C440.938 685.781 441.277 685.668 441.527 685.441C441.777 685.211 441.916 684.84 441.943 684.328H443.59ZM450.826 683.361C450.826 683.908 450.754 684.412 450.609 684.873C450.465 685.334 450.256 685.73 449.982 686.062C449.709 686.395 449.375 686.654 448.98 686.842C448.59 687.025 448.148 687.117 447.656 687.117C447.164 687.117 446.727 687.025 446.344 686.842C445.961 686.654 445.639 686.395 445.377 686.062C445.115 685.727 444.916 685.33 444.779 684.873C444.643 684.412 444.574 683.908 444.574 683.361V682.119C444.574 681.572 444.643 681.068 444.779 680.607C444.916 680.146 445.115 679.75 445.377 679.418C445.639 679.082 445.959 678.82 446.338 678.633C446.721 678.445 447.158 678.352 447.65 678.352C448.146 678.352 448.59 678.445 448.98 678.633C449.375 678.82 449.709 679.082 449.982 679.418C450.256 679.75 450.465 680.146 450.609 680.607C450.754 681.068 450.826 681.572 450.826 682.119V683.361ZM449.156 682.107C449.156 681.76 449.127 681.439 449.068 681.146C449.014 680.854 448.926 680.602 448.805 680.391C448.684 680.18 448.527 680.016 448.336 679.898C448.148 679.777 447.92 679.717 447.65 679.717C447.385 679.717 447.162 679.777 446.982 679.898C446.803 680.016 446.658 680.18 446.549 680.391C446.439 680.602 446.361 680.854 446.314 681.146C446.268 681.439 446.244 681.76 446.244 682.107V683.361C446.244 683.705 446.268 684.023 446.314 684.316C446.361 684.609 446.439 684.863 446.549 685.078C446.658 685.293 446.803 685.461 446.982 685.582C447.162 685.703 447.387 685.764 447.656 685.764C447.922 685.764 448.148 685.703 448.336 685.582C448.527 685.461 448.682 685.295 448.799 685.084C448.92 684.869 449.01 684.615 449.068 684.322C449.127 684.029 449.156 683.709 449.156 683.361V682.107ZM454.102 678.469L454.91 681.674L455.83 678.469H457.875V687H456.363V684.475L456.434 680.484L455.314 684.188H454.5L453.498 680.643L453.568 684.475V687H452.057V678.469H454.102Z" fill="white"/>
<path d="M540.007 233.067V343.405C540.162 347.11 543.242 350.032 546.969 350H704.807C708.575 349.975 711.631 346.947 711.68 343.192L711.999 231.989C712.057 228.079 708.829 224.904 704.906 225.002L546.945 225.655C542.964 225.761 539.835 229.1 540.007 233.067Z" fill="#B2BD08"/>
<path opacity="0.8" d="M626.79 268.733L623.75 271.773C623.36 272.163 622.74 272.163 622.35 271.773L619.31 268.733C618.92 268.343 618.92 267.723 619.31 267.333L622.35 264.292C622.74 263.903 623.36 263.903 623.75 264.292L626.79 267.333C627.17 267.723 627.17 268.353 626.79 268.733Z" fill="#262626"/>
<path d="M622.7 270.193L620.89 268.383C620.7 268.193 620.7 267.873 620.89 267.673L622.7 265.863C622.89 265.673 623.21 265.673 623.41 265.863L625.22 267.673C625.41 267.863 625.41 268.183 625.22 268.383L623.41 270.193C623.21 270.393 622.89 270.393 622.7 270.193Z" fill="#7B8260"/>
<path opacity="0.8" d="M624.09 268.253L623.25 269.093C623.13 269.213 622.95 269.213 622.83 269.093L621.99 268.253C621.87 268.133 621.87 267.953 621.99 267.833L622.83 266.993C622.95 266.873 623.13 266.873 623.25 266.993L624.09 267.833C624.21 267.943 624.21 268.133 624.09 268.253Z" fill="#262626"/>
<g opacity="0.8">
<path opacity="0.8" d="M608.17 316.282H602C601.45 316.282 601 315.832 601 315.282V309.113C601 308.563 601.45 308.113 602 308.113H608.17C608.72 308.113 609.17 308.563 609.17 309.113V315.282C609.17 315.842 608.73 316.282 608.17 316.282Z" fill="#262626"/>
<path opacity="0.8" d="M608.17 307.462H602C601.45 307.462 601 307.012 601 306.462V300.292C601 299.742 601.45 299.292 602 299.292H608.17C608.72 299.292 609.17 299.742 609.17 300.292V306.462C609.17 307.012 608.73 307.462 608.17 307.462Z" fill="#262626"/>
<path opacity="0.8" d="M608.17 298.583H602C601.45 298.583 601 298.133 601 297.583V291.412C601 290.862 601.45 290.412 602 290.412H608.17C608.72 290.412 609.17 290.862 609.17 291.412V297.583C609.17 298.133 608.73 298.583 608.17 298.583Z" fill="#262626"/>
<path opacity="0.8" d="M616.98 316.282H610.81C610.26 316.282 609.81 315.832 609.81 315.282V309.113C609.81 308.563 610.26 308.113 610.81 308.113H616.98C617.53 308.113 617.98 308.563 617.98 309.113V315.282C617.98 315.842 617.53 316.282 616.98 316.282Z" fill="#262626"/>
<path opacity="0.8" d="M625.79 316.282H619.62C619.07 316.282 618.62 315.832 618.62 315.282V309.113C618.62 308.563 619.07 308.113 619.62 308.113H625.79C626.34 308.113 626.79 308.563 626.79 309.113V315.282C626.79 315.842 626.34 316.282 625.79 316.282Z" fill="#262626"/>
<path opacity="0.8" d="M616.98 298.583H610.81C610.26 298.583 609.81 298.133 609.81 297.583V291.412C609.81 290.862 610.26 290.412 610.81 290.412H616.98C617.53 290.412 617.98 290.862 617.98 291.412V297.583C617.98 298.133 617.53 298.583 616.98 298.583Z" fill="#262626"/>
<path opacity="0.8" d="M625.79 298.583H619.62C619.07 298.583 618.62 298.133 618.62 297.583V291.412C618.62 290.862 619.07 290.412 619.62 290.412H625.79C626.34 290.412 626.79 290.862 626.79 291.412V297.583C626.79 298.133 626.34 298.583 625.79 298.583Z" fill="#262626"/>
<path opacity="0.8" d="M625.79 289.882H619.62C619.07 289.882 618.62 289.432 618.62 288.882V282.712C618.62 282.162 619.07 281.712 619.62 281.712H625.79C626.34 281.712 626.79 282.162 626.79 282.712V288.882C626.79 289.432 626.34 289.882 625.79 289.882Z" fill="#262626"/>
<path opacity="0.8" d="M634.6 316.282H628.43C627.88 316.282 627.43 315.832 627.43 315.282V309.113C627.43 308.563 627.88 308.113 628.43 308.113H634.6C635.15 308.113 635.6 308.563 635.6 309.113V315.282C635.6 315.842 635.15 316.282 634.6 316.282Z" fill="#262626"/>
<path opacity="0.8" d="M643.41 316.282H637.24C636.69 316.282 636.24 315.832 636.24 315.282V309.113C636.24 308.563 636.69 308.113 637.24 308.113H643.41C643.96 308.113 644.41 308.563 644.41 309.113V315.282C644.41 315.842 643.96 316.282 643.41 316.282Z" fill="#262626"/>
<path opacity="0.8" d="M652.21 316.282H646.04C645.49 316.282 645.04 315.832 645.04 315.282V309.113C645.04 308.563 645.49 308.113 646.04 308.113H652.21C652.76 308.113 653.21 308.563 653.21 309.113V315.282C653.22 315.842 652.77 316.282 652.21 316.282Z" fill="#262626"/>
</g>
</g>
<defs>
<filter id="filter0_d" x="611.868" y="101.416" width="22.784" height="79.3055" filterUnits="userSpaceOnUse" color-interpolation-filters="sRGB">
<feFlood flood-opacity="0" result="BackgroundImageFix"/>
<feColorMatrix in="SourceAlpha" type="matrix" values="0 0 0 0 0 0 0 0 0 0 0 0 0 0 0 0 0 0 127 0"/>
<feOffset dy="4"/>
<feGaussianBlur stdDeviation="3"/>
<feColorMatrix type="matrix" values="0 0 0 0 0 0 0 0 0 0 0 0 0 0 0 0 0 0 0.25 0"/>
<feBlend mode="normal" in2="BackgroundImageFix" result="effect1_dropShadow"/>
<feBlend mode="normal" in="SourceGraphic" in2="effect1_dropShadow" result="shape"/>
</filter>
<linearGradient id="paint0_linear" x1="626.674" y1="81.8408" x2="626.674" y2="710" gradientUnits="userSpaceOnUse">
<stop offset="0.605422" stop-color="#4F565E"/>
<stop offset="1" stop-color="#59616A"/>
</linearGradient>
<clipPath id="clip0">
<rect width="1253.61" height="792" fill="white"/>
</clipPath>
</defs>
</svg>
