<svg width="1254" height="792" viewBox="0 0 1254 792" fill="none" xmlns="http://www.w3.org/2000/svg">
<path d="M1253.61 0H0V792H1253.61V0Z" fill="#4F565E"/>
<path d="M500 739.001C463.5 699.002 467.5 198.5 467.5 198.5C467.5 198.5 468.5 90 491 48.5C502.5 26.5 735.857 30.5 745.5 48.5C768 90.5 772.5 198.5 772.5 198.5C772.5 198.5 778.5 696.002 742.5 739.001C712.5 771.5 524.181 765.5 500 739.001Z" fill="url(#paint0_linear)"/>
<path d="M537.6 512.48C529.97 510.49 512.68 504.66 506.24 515.86C499.47 527.64 504.92 533.37 508.72 537.15C514.09 542.49 529.99 546.52 537.56 546.46C543.19 546.42 555.94 546.55 559.72 542.38C559.72 542.38 564.94 540.03 559.83 528.31C557.11 522.05 544.2 514.2 537.6 512.48Z" fill="#DDE0D9"/>
<path d="M540.9 561.27C533.27 559.28 515.98 553.45 509.54 564.65C502.77 576.43 508.22 582.16 512.02 585.94C517.39 591.28 533.29 595.31 540.86 595.25C546.49 595.21 559.24 595.34 563.02 591.17C563.02 591.17 568.24 588.82 563.13 577.1C560.4 570.84 547.5 562.99 540.9 561.27Z" fill="#DDE0D9"/>
<path d="M543.71 612.87C536.08 610.88 518.79 605.05 512.35 616.25C505.58 628.03 511.03 633.76 514.83 637.54C520.2 642.88 536.1 646.91 543.67 646.85C549.3 646.81 562.05 646.94 565.83 642.77C565.83 642.77 571.05 640.42 565.94 628.7C563.22 622.45 550.31 614.6 543.71 612.87Z" fill="#DDE0D9"/>
<path d="M547.86 663.3C540.23 661.31 522.94 655.48 516.5 666.68C509.73 678.46 515.18 684.19 518.98 687.97C524.35 693.31 540.25 697.34 547.82 697.28C553.45 697.24 566.2 697.37 569.98 693.2C569.98 693.2 575.2 690.85 570.09 679.13C567.36 672.87 554.46 665.02 547.86 663.3Z" fill="#DDE0D9"/>
<path d="M702.08 513.34C709.63 511.07 726.7 504.6 733.54 515.56C740.74 527.08 735.51 533.01 731.85 536.93C726.68 542.47 710.94 547.07 703.37 547.3C697.74 547.47 685.01 548.07 681.08 544.04C681.08 544.04 675.77 541.89 680.45 529.98C682.94 523.63 695.55 515.31 702.08 513.34Z" fill="#DDE0D9"/>
<path d="M700.59 562.22C708.14 559.95 725.21 553.48 732.05 564.44C739.25 575.96 734.02 581.89 730.36 585.81C725.19 591.35 709.45 595.95 701.88 596.18C696.25 596.35 683.52 596.95 679.59 592.92C679.59 592.92 674.28 590.77 678.96 578.86C681.44 572.51 694.05 564.19 700.59 562.22Z" fill="#DDE0D9"/>
<path d="M699.67 613.9C707.22 611.63 724.29 605.16 731.13 616.12C738.33 627.64 733.1 633.57 729.44 637.49C724.27 643.03 708.53 647.63 700.96 647.86C695.33 648.03 682.6 648.63 678.67 644.6C678.67 644.6 673.36 642.45 678.04 630.54C680.53 624.18 693.14 615.86 699.67 613.9Z" fill="#DDE0D9"/>
<path d="M697.39 664.44C704.94 662.17 722.01 655.7 728.85 666.66C736.05 678.18 730.82 684.11 727.16 688.03C721.99 693.57 706.25 698.17 698.68 698.4C693.05 698.57 680.32 699.17 676.39 695.14C676.39 695.14 671.08 692.99 675.76 681.08C678.25 674.72 690.86 666.4 697.39 664.44Z" fill="#DDE0D9"/>
<path d="M620.51 522.03C612.7 521.9 594.45 524.07 590.55 530.83C585.69 539.23 593.62 546.29 597.6 549.17C602.86 552.98 616.5 556 622.5 556C628.512 556 639.82 552.93 644.52 549.75C647.97 547.42 657.04 540.88 654.22 533.56C651.72 527.06 634.89 522.28 620.51 522.03Z" fill="#DDE0D9"/>
<path d="M620.39 573.07C612.58 572.94 594.33 575.11 590.43 581.87C585.57 590.27 593.5 597.33 597.48 600.21C602.74 604.02 615.88 608.5 622.35 608.09C628.01 607.73 639.7 603.97 644.4 600.79C647.85 598.46 656.92 591.92 654.1 584.6C651.6 578.1 634.77 573.31 620.39 573.07Z" fill="#DDE0D9"/>
<path d="M619.5 623.66C611.69 623.53 593.44 625.7 589.54 632.46C584.68 640.86 592.61 647.92 596.59 650.8C601.85 654.61 614.99 659.09 621.46 658.68C627.12 658.32 638.81 654.56 643.51 651.38C646.96 649.05 656.03 642.51 653.21 635.19C650.71 628.69 633.87 623.9 619.5 623.66Z" fill="#DDE0D9"/>
<path d="M621.04 674.55C613.23 674.42 594.98 676.59 591.08 683.35C586.22 691.75 594.15 698.81 598.13 701.69C603.39 705.5 616.53 709.98 623 709.57C628.66 709.21 640.35 705.45 645.05 702.27C648.5 699.94 657.57 693.4 654.75 686.08C652.24 679.58 635.41 674.79 621.04 674.55Z" fill="#DDE0D9"/>
<path d="M616.5 39C583.48 39.08 542.47 46.2 519.67 51.15C510.42 53.16 503.11 60.23 500.78 69.4L489.58 128.38C487.22 137.63 478.64 222.1 478.85 252.27C479.364 325.019 475.427 399.896 523.11 459.84C529.47 467.81 562.87 507.27 619.68 506.45C696.63 505.33 731.9 429.72 731.9 429.72C731.9 429.72 770.05 363.75 757.29 236.21C747.6 139.38 741.49 99.96 737.5 79C735.86 70.4 728.44 56.94 720.47 53.31C704.31 45.97 663 38.8873 616.5 39Z" fill="#C3C4C4"/>
<path d="M609.5 47.5C586.5 47.5 532.46 49.24 521.2 68.78C500.26 105.1 496.98 200.65 497.9 245.1C498.65 281.37 497.17 357.1 513.84 389.31C519.16 399.6 536.21 418.82 547.57 421.11C547.57 421.11 596.79 408.46 613.62 407.95C633.38 407.35 691.96 418.66 691.96 418.66C706.36 413.79 723.12 383.67 727 368.98C745.087 300.5 739.157 280.5 740 229.5C740.68 188.35 728.25 82.97 712.34 65.27C694.99 45.98 635.5 47.5 609.5 47.5Z" fill="#75797C"/>
<path d="M608.37 407.83L581.11 412.63L571.28 415.12C564.35 416.87 563.36 426.31 569.77 429.46L579.48 434.23C602.07 444.69 607.98 444.97 619.36 444.27C653.75 442.16 668.62 430.18 670.76 428.57C670.93 428.44 671.09 428.31 671.25 428.16C676.22 423.66 673.5 415.32 666.89 414.17L630.5 407.83C625.1 406.55 608.37 407.83 608.37 407.83Z" fill="#A2A4A2"/>
<path d="M568.73 450.7C561.55 446.51 540.17 433.85 530.17 428.55C525.34 425.99 515.05 432.43 513.52 437.68C510.658 447.5 526.7 463.93 526.7 463.93C526.7 463.93 540.51 480.01 547.07 480.76C554.64 481.63 561.8 473.01 564.31 468.77C566.68 464.74 572.76 453.05 568.73 450.7Z" fill="#A2A4A2"/>
<path d="M707.23 419.08C691.186 429.25 674.784 443.429 656.57 449.5C656.57 449.5 648 451.5 648 459.5L651.23 479.83C651.95 484.03 653.72 488.01 656.57 491.18C659.64 494.6 663.6 496.8 667.27 495.18C667.27 495.18 681.95 487.74 693.28 478.24C707.1 466.65 710.02 461.15 712.59 458.81C712.81 458.61 713.02 458.4 713.19 458.16C719.962 449.184 728.56 439.49 732.5 428.5C733.45 424.28 730.25 420.08 726.1 418.86C719.207 416.849 714.063 415.203 707.23 419.08Z" fill="#A2A4A2"/>
<path d="M584.158 158.054L584.198 158.147L590.521 165.946H595.795V155.543H592.727V163.421L592.673 163.289L586.403 155.543H581.089V165.946H584.158V158.054ZM597.137 163.289C597.137 163.714 597.186 164.072 597.284 164.365C597.381 164.657 597.563 164.923 597.828 165.162C598.067 165.383 598.324 165.556 598.599 165.68C598.873 165.795 599.228 165.884 599.662 165.946C600.096 165.999 600.623 166.034 601.243 166.052C601.863 166.07 602.77 166.078 603.966 166.078C605.162 166.078 606.074 166.07 606.703 166.052C607.332 166.034 607.859 165.999 608.284 165.946C608.718 165.884 609.076 165.795 609.36 165.68C609.652 165.556 609.913 165.383 610.144 165.162C610.409 164.923 610.591 164.657 610.688 164.365C610.786 164.072 610.834 163.714 610.834 163.289C610.834 162.279 610.834 161.088 610.834 159.715V158.2C610.834 157.775 610.786 157.425 610.688 157.151C610.591 156.867 610.409 156.606 610.144 156.367C609.913 156.137 609.656 155.96 609.373 155.836C609.099 155.712 608.749 155.623 608.324 155.57C607.907 155.517 607.398 155.486 606.796 155.477C606.193 155.459 605.264 155.45 604.006 155.45C602.748 155.45 601.818 155.459 601.216 155.477C600.614 155.486 600.096 155.517 599.662 155.57C599.236 155.623 598.882 155.712 598.599 155.836C598.315 155.96 598.059 156.137 597.828 156.367C597.563 156.606 597.381 156.867 597.284 157.151C597.186 157.425 597.137 157.775 597.137 158.2V163.289ZM600.073 158.652C600.073 158.457 600.144 158.302 600.286 158.187C600.437 158.072 600.685 158.014 601.03 158.014C604.511 158.014 606.495 158.014 606.982 158.014C607.354 158.014 607.606 158.059 607.739 158.147C607.881 158.236 607.952 158.404 607.952 158.652V161.681V162.877C607.952 163.045 607.867 163.187 607.699 163.302C607.54 163.408 607.287 163.461 606.942 163.461C603.488 163.461 601.517 163.461 601.03 163.461C600.658 163.461 600.406 163.421 600.273 163.342C600.14 163.253 600.073 163.098 600.073 162.877V158.652ZM612.174 155.543V165.985H615.429V155.543H612.174ZM615.429 160.578L621.381 165.985H626.097L619.361 160.578L625.326 155.543H621.009L615.429 160.578ZM630.115 163.554V161.827H637.807V159.715H630.115V157.961H638.312V155.543H630.301H626.993H626.86V165.985H627.086H630.301H638.312V163.554H630.115ZM653.872 155.543H649.967L646.566 159.781L643.165 155.543H639.259L644.918 162.359V165.985H648.186V162.359L653.872 155.543Z" fill="#1B5096"/>
<g filter="url(#filter0_d)">
<path d="M615.66 58.56C613.65 58.78 610.87 59.55 610.14 60.86C609.44 62.11 613.63 63.8 615.06 63.78C618.1 63.73 621.19 62.21 621.97 61.01C622.54 60.14 621.15 57.96 615.66 58.56Z" fill="#292E32"/>
<path d="M615.66 75.44C613.65 75.66 610.87 76.43 610.14 77.74C609.44 78.99 613.63 80.68 615.06 80.66C618.1 80.61 621.19 79.09 621.97 77.89C622.54 77.02 621.15 74.84 615.66 75.44Z" fill="#292E32"/>
<path d="M615.52 94.33C613.51 94.55 610.73 95.32 610 96.63C609.3 97.88 613.49 99.57 614.92 99.55C617.96 99.5 621.05 97.98 621.83 96.78C622.4 95.91 621 93.73 615.52 94.33Z" fill="#292E32"/>
<path d="M615.66 112.55C613.65 112.77 610.87 113.54 610.14 114.85C609.44 116.1 613.63 117.79 615.06 117.77C618.1 117.72 621.19 116.2 621.97 115C622.54 114.13 621.15 111.95 615.66 112.55Z" fill="#292E32"/>
<path d="M615.99 131.21C613.98 131.43 611.2 132.2 610.47 133.51C609.77 134.76 613.96 136.45 615.39 136.43C618.43 136.38 621.52 134.86 622.3 133.66C622.86 132.79 621.47 130.61 615.99 131.21Z" fill="#292E32"/>
</g>
<defs>
<filter id="filter0_d" x="603.922" y="56.457" width="24.4931" height="89.9732" filterUnits="userSpaceOnUse" color-interpolation-filters="sRGB">
<feFlood flood-opacity="0" result="BackgroundImageFix"/>
<feColorMatrix in="SourceAlpha" type="matrix" values="0 0 0 0 0 0 0 0 0 0 0 0 0 0 0 0 0 0 127 0"/>
<feOffset dy="4"/>
<feGaussianBlur stdDeviation="3"/>
<feColorMatrix type="matrix" values="0 0 0 0 0 0 0 0 0 0 0 0 0 0 0 0 0 0 0.25 0"/>
<feBlend mode="normal" in2="BackgroundImageFix" result="effect1_dropShadow"/>
<feBlend mode="normal" in="SourceGraphic" in2="effect1_dropShadow" result="shape"/>
</filter>
<linearGradient id="paint0_linear" x1="620.123" y1="33.4627" x2="620.123" y2="761.182" gradientUnits="userSpaceOnUse">
<stop offset="0.605422" stop-color="#4F565E"/>
<stop offset="1" stop-color="#59616A"/>
</linearGradient>
</defs>
</svg>
