<svg width="1254" height="792" viewBox="0 0 1254 792" fill="none" xmlns="http://www.w3.org/2000/svg">
<g clip-path="url(#clip0)">
<path d="M1665.73 0H-373.343V1288.24H1665.73V0Z" fill="#4F565E"/>
<path d="M532.083 689.396C500.712 655.017 504.15 224.846 504.15 224.846C504.15 224.846 505.009 131.593 524.348 95.9243C534.232 77.0157 734.797 80.4536 743.085 95.9243C762.423 132.022 766.291 224.846 766.291 224.846C766.291 224.846 771.448 652.439 740.507 689.396C714.722 717.328 552.866 712.171 532.083 689.396Z" fill="url(#paint0_linear)"/>
<path d="M564.399 494.706C557.842 492.995 542.981 487.985 537.446 497.611C531.627 507.735 536.312 512.66 539.578 515.909C544.193 520.499 557.859 523.962 564.365 523.911C569.204 523.876 580.162 523.988 583.411 520.404C583.411 520.404 587.898 518.384 583.506 508.311C581.168 502.931 570.072 496.184 564.399 494.706Z" fill="#DDE0D9"/>
<path d="M567.236 536.64C560.678 534.929 545.817 529.919 540.282 539.545C534.464 549.669 539.148 554.594 542.414 557.843C547.029 562.433 560.695 565.896 567.201 565.845C572.04 565.811 582.999 565.922 586.247 562.338C586.247 562.338 590.734 560.318 586.342 550.245C583.996 544.865 572.908 538.118 567.236 536.64Z" fill="#DDE0D9"/>
<path d="M569.651 580.989C563.093 579.279 548.233 574.268 542.698 583.894C536.879 594.019 541.563 598.943 544.829 602.192C549.444 606.782 563.11 610.246 569.616 610.194C574.455 610.16 585.414 610.271 588.663 606.687C588.663 606.687 593.149 604.668 588.757 594.594C586.419 589.223 575.323 582.476 569.651 580.989Z" fill="#DDE0D9"/>
<path d="M573.218 624.332C566.66 622.622 551.799 617.611 546.264 627.237C540.446 637.362 545.13 642.287 548.396 645.536C553.011 650.125 566.677 653.589 573.183 653.538C578.022 653.503 588.98 653.615 592.229 650.031C592.229 650.031 596.716 648.011 592.324 637.938C589.978 632.558 578.89 625.811 573.218 624.332Z" fill="#DDE0D9"/>
<path d="M705.767 495.445C712.256 493.494 726.927 487.933 732.806 497.353C738.994 507.254 734.499 512.351 731.353 515.72C726.91 520.481 713.382 524.435 706.875 524.633C702.036 524.779 691.095 525.295 687.718 521.831C687.718 521.831 683.154 519.983 687.176 509.747C689.316 504.289 700.154 497.138 705.767 495.445Z" fill="#DDE0D9"/>
<path d="M704.486 537.456C710.975 535.505 725.646 529.944 731.525 539.364C737.713 549.265 733.218 554.362 730.073 557.731C725.629 562.493 712.101 566.446 705.595 566.644C700.756 566.79 689.815 567.306 686.437 563.842C686.437 563.842 681.873 561.994 685.895 551.758C688.027 546.3 698.865 539.149 704.486 537.456Z" fill="#DDE0D9"/>
<path d="M703.695 581.874C710.184 579.923 724.856 574.362 730.735 583.782C736.923 593.683 732.428 598.78 729.282 602.149C724.839 606.911 711.31 610.864 704.804 611.062C699.965 611.208 689.024 611.724 685.646 608.26C685.646 608.26 681.082 606.412 685.105 596.176C687.245 590.71 698.083 583.559 703.695 581.874Z" fill="#DDE0D9"/>
<path d="M701.736 625.312C708.225 623.361 722.896 617.8 728.775 627.22C734.963 637.121 730.468 642.218 727.322 645.587C722.879 650.349 709.351 654.303 702.844 654.5C698.006 654.646 687.064 655.162 683.687 651.698C683.687 651.698 679.123 649.85 683.145 639.614C685.285 634.148 696.123 626.997 701.736 625.312Z" fill="#DDE0D9"/>
<path d="M635.659 502.914C628.946 502.802 613.261 504.667 609.909 510.477C605.732 517.697 612.547 523.765 615.968 526.24C620.489 529.515 632.212 532.11 637.369 532.11C642.536 532.11 652.255 529.472 656.295 526.739C659.26 524.736 667.056 519.115 664.632 512.824C662.483 507.237 648.018 503.129 635.659 502.914Z" fill="#DDE0D9"/>
<path d="M635.556 546.782C628.843 546.67 613.158 548.535 609.806 554.345C605.629 561.565 612.444 567.633 615.865 570.108C620.386 573.383 631.679 577.233 637.24 576.881C642.105 576.571 652.152 573.34 656.192 570.606C659.157 568.604 666.953 562.983 664.529 556.691C662.38 551.105 647.915 546.988 635.556 546.782Z" fill="#DDE0D9"/>
<path d="M634.791 590.263C628.078 590.151 612.393 592.016 609.041 597.826C604.864 605.046 611.679 611.114 615.1 613.589C619.621 616.864 630.915 620.714 636.475 620.362C641.34 620.052 651.387 616.821 655.427 614.087C658.392 612.085 666.188 606.464 663.764 600.173C661.615 594.586 647.142 590.469 634.791 590.263Z" fill="#DDE0D9"/>
<path d="M636.114 634.002C629.402 633.89 613.716 635.755 610.364 641.565C606.187 648.785 613.003 654.853 616.424 657.328C620.945 660.602 632.238 664.453 637.799 664.101C642.664 663.791 652.711 660.56 656.75 657.826C659.716 655.824 667.511 650.203 665.087 643.911C662.93 638.325 648.465 634.208 636.114 634.002Z" fill="#DDE0D9"/>
<path d="M632.212 87.7592C603.832 87.828 568.585 93.9475 548.989 98.2019C541.039 99.9295 534.756 106.006 532.753 113.887L523.127 164.58C521.099 172.53 513.724 245.13 513.905 271.06C514.347 333.587 510.963 397.942 551.946 449.463C557.412 456.313 586.118 490.228 634.945 489.523C701.082 488.56 731.396 423.575 731.396 423.575C731.396 423.575 764.185 366.875 753.218 257.257C744.89 174.034 739.639 140.153 736.209 122.138C734.8 114.747 728.422 103.178 721.572 100.058C707.683 93.7498 672.178 87.6624 632.212 87.7592Z" fill="#C3C4C4"/>
<path d="M626.196 95.0648C606.428 95.0648 559.982 96.5603 550.304 113.355C532.306 144.571 529.487 226.694 530.278 264.898C530.923 296.071 529.651 361.16 543.978 388.844C548.551 397.688 563.205 414.207 572.968 416.175C572.968 416.175 615.272 405.303 629.737 404.864C646.72 404.349 697.069 414.069 697.069 414.069C709.445 409.884 723.85 383.996 727.185 371.37C742.73 312.513 737.634 295.324 738.358 251.49C738.942 216.123 728.259 125.551 714.585 110.338C699.673 93.7584 648.542 95.0648 626.196 95.0648Z" fill="#75797C"/>
<path d="M625.225 404.761L601.795 408.887L593.347 411.027C587.39 412.531 586.54 420.644 592.049 423.352L600.394 427.451C619.81 436.442 624.89 436.682 634.67 436.081C664.228 434.267 677.008 423.971 678.848 422.587C678.994 422.475 679.131 422.363 679.269 422.234C683.54 418.367 681.203 411.199 675.522 410.21L644.245 404.761C639.604 403.661 625.225 404.761 625.225 404.761Z" fill="#A2A4A2"/>
<path d="M591.155 441.607C584.984 438.006 566.608 427.125 558.013 422.57C553.862 420.369 545.018 425.904 543.703 430.417C541.243 438.857 555.031 452.978 555.031 452.978C555.031 452.978 566.9 466.798 572.539 467.443C579.045 468.191 585.199 460.782 587.356 457.138C589.393 453.674 594.619 443.627 591.155 441.607Z" fill="#A2A4A2"/>
<path d="M710.193 414.43C696.404 423.171 682.306 435.357 666.652 440.576C666.652 440.576 659.286 442.295 659.286 449.17L662.062 466.644C662.681 470.253 664.202 473.674 666.652 476.399C669.29 479.338 672.694 481.229 675.848 479.837C675.848 479.837 688.465 473.442 698.203 465.277C710.081 455.316 712.591 450.589 714.8 448.577C714.989 448.406 715.169 448.225 715.315 448.019C721.136 440.304 728.526 431.972 731.912 422.527C732.728 418.9 729.978 415.29 726.411 414.241C720.487 412.512 716.066 411.098 710.193 414.43Z" fill="#A2A4A2"/>
<path d="M604.828 189.615L604.867 189.706L611.055 197.337H616.216V187.158H613.213V194.867L613.161 194.737L607.025 187.158H601.825V197.337H604.828V189.615ZM617.529 194.737C617.529 195.153 617.577 195.504 617.672 195.79C617.767 196.076 617.945 196.336 618.205 196.57C618.439 196.787 618.69 196.956 618.959 197.077C619.228 197.19 619.574 197.276 619.999 197.337C620.424 197.389 620.939 197.424 621.546 197.441C622.153 197.458 623.041 197.467 624.211 197.467C625.381 197.467 626.274 197.458 626.889 197.441C627.504 197.424 628.02 197.389 628.436 197.337C628.861 197.276 629.212 197.19 629.489 197.077C629.775 196.956 630.031 196.787 630.256 196.57C630.516 196.336 630.694 196.076 630.789 195.79C630.884 195.504 630.932 195.153 630.932 194.737C630.932 193.749 630.932 192.583 630.932 191.24V189.758C630.932 189.342 630.884 189 630.789 188.731C630.694 188.454 630.516 188.198 630.256 187.964C630.031 187.739 629.779 187.565 629.502 187.444C629.233 187.323 628.891 187.236 628.475 187.184C628.068 187.132 627.569 187.102 626.98 187.093C626.391 187.076 625.481 187.067 624.25 187.067C623.019 187.067 622.109 187.076 621.52 187.093C620.931 187.102 620.424 187.132 619.999 187.184C619.583 187.236 619.236 187.323 618.959 187.444C618.682 187.565 618.43 187.739 618.205 187.964C617.945 188.198 617.767 188.454 617.672 188.731C617.577 189 617.529 189.342 617.529 189.758V194.737ZM620.402 190.2C620.402 190.009 620.471 189.858 620.61 189.745C620.757 189.632 621 189.576 621.338 189.576C624.744 189.576 626.685 189.576 627.162 189.576C627.526 189.576 627.773 189.619 627.903 189.706C628.042 189.793 628.111 189.957 628.111 190.2V193.164V194.334C628.111 194.499 628.029 194.637 627.864 194.75C627.708 194.854 627.461 194.906 627.123 194.906C623.743 194.906 621.815 194.906 621.338 194.906C620.974 194.906 620.727 194.867 620.597 194.789C620.467 194.702 620.402 194.551 620.402 194.334V190.2ZM632.243 187.158V197.376H635.428V187.158H632.243ZM635.428 192.085L641.252 197.376H645.867L639.276 192.085L645.113 187.158H640.888L635.428 192.085ZM649.799 194.997V193.307H657.326V191.24H649.799V189.524H657.82V187.158H649.981H646.744H646.614V197.376H646.835H649.981H657.82V194.997H649.799ZM673.046 187.158H669.224L665.896 191.305L662.568 187.158H658.746L664.284 193.827V197.376H667.482V193.827L673.046 187.158Z" fill="#1B5096"/>
<g filter="url(#filter0_d)">
<path d="M631.49 104.571C629.763 104.76 627.373 105.422 626.746 106.547C626.144 107.622 629.746 109.074 630.975 109.057C633.587 109.014 636.243 107.708 636.914 106.676C637.404 105.929 636.209 104.055 631.49 104.571Z" fill="#292E32"/>
<path d="M631.49 119.079C629.763 119.268 627.373 119.93 626.746 121.055C626.144 122.13 629.746 123.582 630.975 123.565C633.587 123.522 636.243 122.216 636.914 121.184C637.404 120.437 636.209 118.563 631.49 119.079Z" fill="#292E32"/>
<path d="M631.37 135.314C629.642 135.503 627.253 136.165 626.626 137.291C626.024 138.365 629.625 139.818 630.854 139.801C633.467 139.758 636.123 138.451 636.793 137.42C637.283 136.672 636.08 134.799 631.37 135.314Z" fill="#292E32"/>
<path d="M631.49 150.974C629.763 151.163 627.373 151.825 626.746 152.951C626.144 154.025 629.746 155.478 630.975 155.46C633.587 155.417 636.243 154.111 636.914 153.08C637.404 152.332 636.209 150.458 631.49 150.974Z" fill="#292E32"/>
<path d="M631.774 167.012C630.046 167.201 627.657 167.863 627.03 168.989C626.428 170.063 630.029 171.515 631.258 171.498C633.871 171.455 636.527 170.149 637.197 169.118C637.679 168.37 636.484 166.496 631.774 167.012Z" fill="#292E32"/>
</g>
<path d="M543.323 230.991V347.751C543.487 351.672 546.735 354.764 550.665 354.73H717.098C721.071 354.704 724.293 351.5 724.344 347.526L724.681 229.851C724.742 225.714 721.339 222.354 717.201 222.458L550.639 223.149C546.441 223.261 543.142 226.794 543.323 230.991Z" fill="#B2BD08"/>
<path opacity="0.17" d="M543.323 231.19V347.95C543.487 351.871 546.735 354.963 550.665 354.929H717.098C721.071 354.903 724.293 351.698 724.344 347.725L724.681 230.05C724.742 225.913 721.339 222.553 717.201 222.656L550.639 223.347C546.441 223.468 543.142 227.001 543.323 231.19Z" fill="url(#paint1_linear)"/>
<path opacity="0.12" d="M724.793 346.464V229.704C724.629 225.783 721.382 222.691 717.452 222.725H551.019C547.046 222.751 543.824 225.956 543.772 229.929L543.435 347.604C543.375 351.741 546.778 355.101 550.915 354.998L717.478 354.307C721.675 354.194 724.966 350.662 724.793 346.464Z" fill="url(#paint2_linear)"/>
<path opacity="0.11" d="M724.793 346.464V229.704C724.629 225.783 721.382 222.691 717.452 222.725H551.019C547.046 222.751 543.824 225.956 543.772 229.929L543.435 347.604C543.375 351.741 546.778 355.101 550.915 354.998L717.478 354.307C721.675 354.194 724.966 350.662 724.793 346.464Z" fill="url(#paint3_linear)"/>
<path opacity="0.17" d="M543.323 231.19V347.95C543.487 351.871 546.735 354.963 550.665 354.929H717.098C721.071 354.903 724.293 351.698 724.344 347.725L724.681 230.05C724.742 225.913 721.339 222.553 717.201 222.656L550.639 223.347C546.441 223.468 543.142 227.001 543.323 231.19Z" fill="url(#paint4_linear)"/>
<path opacity="0.8" d="M637.378 256.124L633.282 260.22C632.756 260.745 631.921 260.745 631.396 260.22L627.299 256.124C626.774 255.598 626.774 254.763 627.299 254.237L631.396 250.141C631.921 249.616 632.756 249.616 633.282 250.141L637.378 254.237C637.89 254.763 637.89 255.612 637.378 256.124Z" fill="#262626"/>
<path d="M631.867 258.091L629.428 255.652C629.172 255.396 629.172 254.965 629.428 254.695L631.867 252.257C632.123 252.001 632.554 252.001 632.824 252.257L635.263 254.695C635.519 254.951 635.519 255.383 635.263 255.652L632.824 258.091C632.554 258.36 632.123 258.36 631.867 258.091Z" fill="#7B8260"/>
<path opacity="0.8" d="M633.74 255.477L632.608 256.609C632.446 256.77 632.204 256.77 632.042 256.609L630.91 255.477C630.749 255.315 630.749 255.073 630.91 254.911L632.042 253.779C632.204 253.618 632.446 253.618 632.608 253.779L633.74 254.911C633.902 255.059 633.902 255.315 633.74 255.477Z" fill="#262626"/>
<g opacity="0.8">
<path opacity="0.8" d="M612.313 327.317H604C603.258 327.317 602.652 326.71 602.652 325.969V317.656C602.652 316.915 603.258 316.309 604 316.309H612.313C613.054 316.309 613.66 316.915 613.66 317.656V325.969C613.66 326.724 613.068 327.317 612.313 327.317Z" fill="#262626"/>
<path opacity="0.8" d="M612.313 315.433H604C603.258 315.433 602.652 314.826 602.652 314.085V305.772C602.652 305.031 603.258 304.424 604 304.424H612.313C613.054 304.424 613.66 305.031 613.66 305.772V314.085C613.66 314.826 613.068 315.433 612.313 315.433Z" fill="#262626"/>
<path opacity="0.8" d="M612.313 303.468H604C603.258 303.468 602.652 302.861 602.652 302.12V293.807C602.652 293.066 603.258 292.46 604 292.46H612.313C613.054 292.46 613.66 293.066 613.66 293.807V302.12C613.66 302.861 613.068 303.468 612.313 303.468Z" fill="#262626"/>
<path opacity="0.8" d="M624.184 327.317H615.87C615.129 327.317 614.523 326.71 614.523 325.969V317.656C614.523 316.915 615.129 316.309 615.87 316.309H624.184C624.925 316.309 625.531 316.915 625.531 317.656V325.969C625.531 326.724 624.925 327.317 624.184 327.317Z" fill="#262626"/>
<path opacity="0.8" d="M636.054 327.317H627.741C627 327.317 626.393 326.71 626.393 325.969V317.656C626.393 316.915 627 316.309 627.741 316.309H636.054C636.795 316.309 637.402 316.915 637.402 317.656V325.969C637.402 326.724 636.795 327.317 636.054 327.317Z" fill="#262626"/>
<path opacity="0.8" d="M624.184 303.468H615.87C615.129 303.468 614.523 302.861 614.523 302.12V293.807C614.523 293.066 615.129 292.46 615.87 292.46H624.184C624.925 292.46 625.531 293.066 625.531 293.807V302.12C625.531 302.861 624.925 303.468 624.184 303.468Z" fill="#262626"/>
<path opacity="0.8" d="M636.054 303.468H627.741C627 303.468 626.393 302.861 626.393 302.12V293.807C626.393 293.066 627 292.46 627.741 292.46H636.054C636.795 292.46 637.402 293.066 637.402 293.807V302.12C637.402 302.861 636.795 303.468 636.054 303.468Z" fill="#262626"/>
<path opacity="0.8" d="M636.054 291.745H627.741C627 291.745 626.393 291.139 626.393 290.398V282.085C626.393 281.344 627 280.737 627.741 280.737H636.054C636.795 280.737 637.402 281.344 637.402 282.085V290.398C637.402 291.139 636.795 291.745 636.054 291.745Z" fill="#262626"/>
<path opacity="0.8" d="M647.925 327.317H639.611C638.87 327.317 638.264 326.71 638.264 325.969V317.656C638.264 316.915 638.87 316.309 639.611 316.309H647.925C648.666 316.309 649.272 316.915 649.272 317.656V325.969C649.272 326.724 648.666 327.317 647.925 327.317Z" fill="#262626"/>
<path opacity="0.8" d="M659.795 327.317H651.482C650.741 327.317 650.134 326.71 650.134 325.969V317.656C650.134 316.915 650.741 316.309 651.482 316.309H659.795C660.536 316.309 661.143 316.915 661.143 317.656V325.969C661.143 326.724 660.536 327.317 659.795 327.317Z" fill="#262626"/>
<path opacity="0.8" d="M671.652 327.317H663.339C662.598 327.317 661.992 326.71 661.992 325.969V317.656C661.992 316.915 662.598 316.309 663.339 316.309H671.652C672.393 316.309 673 316.915 673 317.656V325.969C673.013 326.724 672.407 327.317 671.652 327.317Z" fill="#262626"/>
</g>
</g>
<defs>
<filter id="filter0_d" x="620.558" y="102.482" width="22.7376" height="79.0163" filterUnits="userSpaceOnUse" color-interpolation-filters="sRGB">
<feFlood flood-opacity="0" result="BackgroundImageFix"/>
<feColorMatrix in="SourceAlpha" type="matrix" values="0 0 0 0 0 0 0 0 0 0 0 0 0 0 0 0 0 0 127 0"/>
<feOffset dy="4"/>
<feGaussianBlur stdDeviation="3"/>
<feColorMatrix type="matrix" values="0 0 0 0 0 0 0 0 0 0 0 0 0 0 0 0 0 0 0.25 0"/>
<feBlend mode="normal" in2="BackgroundImageFix" result="effect1_dropShadow"/>
<feBlend mode="normal" in="SourceGraphic" in2="effect1_dropShadow" result="shape"/>
</filter>
<linearGradient id="paint0_linear" x1="635.326" y1="83" x2="635.326" y2="708.46" gradientUnits="userSpaceOnUse">
<stop offset="0.605422" stop-color="#4F565E"/>
<stop offset="1" stop-color="#59616A"/>
</linearGradient>
<linearGradient id="paint1_linear" x1="633.998" y1="354.933" x2="633.998" y2="222.663" gradientUnits="userSpaceOnUse">
<stop stop-color="#B2BD08"/>
<stop offset="0.43" stop-color="#B0BB09"/>
<stop offset="0.5849" stop-color="#AAB40C"/>
<stop offset="0.6954" stop-color="#9FA911"/>
<stop offset="0.7846" stop-color="#909819"/>
<stop offset="0.8611" stop-color="#7C8223"/>
<stop offset="0.9287" stop-color="#63662F"/>
<stop offset="0.9885" stop-color="#46473D"/>
<stop offset="1" stop-color="#404040"/>
</linearGradient>
<linearGradient id="paint2_linear" x1="634.114" y1="222.728" x2="634.114" y2="354.997" gradientUnits="userSpaceOnUse">
<stop stop-color="#B2BD08"/>
<stop offset="0.43" stop-color="#B0BB09"/>
<stop offset="0.5849" stop-color="#AAB40C"/>
<stop offset="0.6954" stop-color="#9FA911"/>
<stop offset="0.7846" stop-color="#909819"/>
<stop offset="0.8611" stop-color="#7C8223"/>
<stop offset="0.9287" stop-color="#63662F"/>
<stop offset="0.9885" stop-color="#46473D"/>
<stop offset="1" stop-color="#404040"/>
</linearGradient>
<linearGradient id="paint3_linear" x1="543.432" y1="288.863" x2="724.796" y2="288.863" gradientUnits="userSpaceOnUse">
<stop stop-color="#B2BD08"/>
<stop offset="0.43" stop-color="#B0BB09"/>
<stop offset="0.5849" stop-color="#AAB40C"/>
<stop offset="0.6954" stop-color="#9FA911"/>
<stop offset="0.7846" stop-color="#909819"/>
<stop offset="0.8611" stop-color="#7C8223"/>
<stop offset="0.9287" stop-color="#63662F"/>
<stop offset="0.9885" stop-color="#46473D"/>
<stop offset="1" stop-color="#404040"/>
</linearGradient>
<linearGradient id="paint4_linear" x1="724.68" y1="288.798" x2="543.316" y2="288.798" gradientUnits="userSpaceOnUse">
<stop stop-color="#B2BD08"/>
<stop offset="0.43" stop-color="#B0BB09"/>
<stop offset="0.5849" stop-color="#AAB40C"/>
<stop offset="0.6954" stop-color="#9FA911"/>
<stop offset="0.7846" stop-color="#909819"/>
<stop offset="0.8611" stop-color="#7C8223"/>
<stop offset="0.9287" stop-color="#63662F"/>
<stop offset="0.9885" stop-color="#46473D"/>
<stop offset="1" stop-color="#404040"/>
</linearGradient>
<clipPath id="clip0">
<rect width="1253.61" height="792" fill="white"/>
</clipPath>
</defs>
</svg>
