<svg width="387" height="119" viewBox="0 0 387 119" fill="none" xmlns="http://www.w3.org/2000/svg">
<path opacity="0.8" d="M79.5625 0.125H91.9375V4.25H83.6875V24.875H87.8125V12.5H96.0625V29H79.5625V24.875H75.4375V4.25H79.5625V0.125ZM108.438 24.875H112.562V20.75H108.438V24.875ZM120.812 12.5V29H104.312V24.875H100.188V20.75H104.312V16.625H112.562V12.5H104.312V8.375H116.688V12.5H120.812ZM149.688 12.5H145.562V29H137.312V12.5H133.188V29H124.938V8.375H153.812V12.5H157.938V29H149.688V12.5ZM170.312 16.625H174.438V12.5H170.312V16.625ZM182.688 12.5V20.75H170.312V24.875H182.688V29H166.188V24.875H162.062V12.5H166.188V8.375H178.562V12.5H182.688ZM215.688 24.875V4.25H207.438V24.875H215.688ZM203.312 29V24.875H199.188V4.25H203.312V0.125H219.812V4.25H223.938V24.875H219.812V29H203.312ZM236.312 24.875H232.188V16.625H228.062V8.375H236.312V16.625H240.438V8.375H248.688V16.625H244.562V24.875H240.438V29H236.312V24.875ZM261.062 16.625H265.188V12.5H261.062V16.625ZM273.438 12.5V20.75H261.062V24.875H273.438V29H256.938V24.875H252.812V12.5H256.938V8.375H269.312V12.5H273.438ZM277.562 29V8.375H285.812V12.5H289.938V8.375H294.062V16.625H285.812V29H277.562ZM298.188 20.75H306.438V29H298.188V20.75ZM11.4531 107.777C11.4531 108.699 11.3438 109.555 11.125 110.344C10.9141 111.133 10.5977 111.816 10.1758 112.395C9.76172 112.965 9.24609 113.414 8.62891 113.742C8.01172 114.07 7.30469 114.234 6.50781 114.234C5.82812 114.234 5.23047 114.117 4.71484 113.883C4.19922 113.648 3.75 113.32 3.36719 112.898V118.875H0.109375V101.32H3.12109L3.23828 102.562C3.62891 102.094 4.08984 101.73 4.62109 101.473C5.15234 101.215 5.77344 101.086 6.48438 101.086C7.28906 101.086 8 101.242 8.61719 101.555C9.23438 101.859 9.75391 102.297 10.1758 102.867C10.5977 103.43 10.9141 104.109 11.125 104.906C11.3438 105.695 11.4531 106.57 11.4531 107.531V107.777ZM8.19531 107.531C8.19531 107 8.14453 106.504 8.04297 106.043C7.94922 105.574 7.79688 105.172 7.58594 104.836C7.38281 104.492 7.11719 104.223 6.78906 104.027C6.46875 103.832 6.07812 103.734 5.61719 103.734C5.04688 103.734 4.57812 103.848 4.21094 104.074C3.85156 104.293 3.57031 104.605 3.36719 105.012V110.309C3.57031 110.707 3.85156 111.027 4.21094 111.27C4.57812 111.504 5.05469 111.621 5.64062 111.621C6.10156 111.621 6.49219 111.52 6.8125 111.316C7.14062 111.113 7.40625 110.836 7.60938 110.484C7.8125 110.133 7.96094 109.727 8.05469 109.266C8.14844 108.797 8.19531 108.301 8.19531 107.777V107.531ZM23.582 101.086C24.0742 101.086 24.5273 101.121 24.9414 101.191C25.3633 101.254 25.7031 101.324 25.9609 101.402L25.4805 104.648C25.0508 104.547 24.6094 104.473 24.1562 104.426C23.7109 104.371 23.2852 104.344 22.8789 104.344C21.9648 104.344 21.2305 104.52 20.6758 104.871C20.1289 105.223 19.7188 105.727 19.4453 106.383V114H16.1875V101.32H19.2227L19.375 103.395C19.8906 102.676 20.5078 102.113 21.2266 101.707C21.9453 101.293 22.7305 101.086 23.582 101.086ZM35.043 114.234C34.0664 114.234 33.1797 114.074 32.3828 113.754C31.5859 113.434 30.9023 113 30.332 112.453C29.7617 111.898 29.3203 111.25 29.0078 110.508C28.7031 109.758 28.5508 108.957 28.5508 108.105V107.637C28.5508 106.668 28.7031 105.785 29.0078 104.988C29.3125 104.184 29.7383 103.492 30.2852 102.914C30.832 102.336 31.4805 101.887 32.2305 101.566C32.9805 101.246 33.7969 101.086 34.6797 101.086C35.5938 101.086 36.4062 101.238 37.1172 101.543C37.8359 101.84 38.4414 102.262 38.9336 102.809C39.4336 103.355 39.8125 104.016 40.0703 104.789C40.3281 105.555 40.457 106.402 40.457 107.332V108.715H31.8555C31.918 109.145 32.043 109.539 32.2305 109.898C32.4258 110.25 32.6719 110.555 32.9688 110.812C33.2656 111.07 33.6055 111.27 33.9883 111.41C34.3711 111.551 34.7891 111.621 35.2422 111.621C35.5625 111.621 35.8789 111.59 36.1914 111.527C36.5117 111.465 36.8164 111.375 37.1055 111.258C37.3945 111.133 37.6641 110.98 37.9141 110.801C38.1641 110.621 38.3828 110.41 38.5703 110.168L40.1992 111.926C39.9961 112.215 39.7305 112.5 39.4023 112.781C39.082 113.055 38.6992 113.301 38.2539 113.52C37.8164 113.73 37.3281 113.902 36.7891 114.035C36.25 114.168 35.668 114.234 35.043 114.234ZM34.6562 103.723C34.2891 103.723 33.9531 103.789 33.6484 103.922C33.3438 104.047 33.0742 104.23 32.8398 104.473C32.6133 104.715 32.4219 105.004 32.2656 105.34C32.1094 105.676 31.9922 106.051 31.9141 106.465H37.2578V106.207C37.2422 105.863 37.1758 105.539 37.0586 105.234C36.9414 104.93 36.7734 104.668 36.5547 104.449C36.3359 104.223 36.0664 104.047 35.7461 103.922C35.4336 103.789 35.0703 103.723 34.6562 103.723ZM51.4844 110.52C51.4844 110.324 51.4375 110.152 51.3438 110.004C51.2578 109.855 51.0977 109.719 50.8633 109.594C50.6367 109.461 50.332 109.34 49.9492 109.23C49.5664 109.121 49.082 109.012 48.4961 108.902C47.7539 108.754 47.0742 108.57 46.457 108.352C45.8477 108.125 45.3242 107.855 44.8867 107.543C44.4492 107.223 44.1055 106.855 43.8555 106.441C43.6133 106.027 43.4922 105.551 43.4922 105.012C43.4922 104.488 43.6172 103.988 43.8672 103.512C44.1172 103.035 44.4766 102.617 44.9453 102.258C45.4141 101.898 45.9844 101.613 46.6562 101.402C47.3281 101.191 48.0859 101.086 48.9297 101.086C49.8125 101.086 50.6055 101.191 51.3086 101.402C52.0117 101.605 52.6055 101.891 53.0898 102.258C53.582 102.617 53.957 103.047 54.2148 103.547C54.4727 104.047 54.6016 104.59 54.6016 105.176H51.3438C51.3438 104.684 51.1445 104.273 50.7461 103.945C50.3477 103.609 49.7422 103.441 48.9297 103.441C48.1719 103.441 47.5977 103.578 47.207 103.852C46.8242 104.125 46.6328 104.461 46.6328 104.859C46.6328 105.047 46.6719 105.223 46.75 105.387C46.8281 105.543 46.9648 105.688 47.1602 105.82C47.3633 105.945 47.6367 106.062 47.9805 106.172C48.3242 106.273 48.7617 106.363 49.293 106.441C50.0586 106.566 50.7695 106.727 51.4258 106.922C52.082 107.117 52.6484 107.371 53.125 107.684C53.6016 107.988 53.9727 108.363 54.2383 108.809C54.5117 109.246 54.6484 109.77 54.6484 110.379C54.6484 110.941 54.5117 111.461 54.2383 111.938C53.9727 112.406 53.5898 112.812 53.0898 113.156C52.5977 113.5 52 113.77 51.2969 113.965C50.5938 114.152 49.8086 114.246 48.9414 114.246C47.9883 114.246 47.1445 114.121 46.4102 113.871C45.6836 113.621 45.0742 113.297 44.582 112.898C44.0898 112.492 43.7148 112.035 43.457 111.527C43.207 111.012 43.082 110.496 43.082 109.98H46.1875C46.2109 110.324 46.3047 110.621 46.4688 110.871C46.6328 111.113 46.8438 111.312 47.1016 111.469C47.3594 111.617 47.6523 111.727 47.9805 111.797C48.3164 111.867 48.6602 111.902 49.0117 111.902C49.8164 111.902 50.4297 111.773 50.8516 111.516C51.2734 111.258 51.4844 110.926 51.4844 110.52ZM65.8984 110.52C65.8984 110.324 65.8516 110.152 65.7578 110.004C65.6719 109.855 65.5117 109.719 65.2773 109.594C65.0508 109.461 64.7461 109.34 64.3633 109.23C63.9805 109.121 63.4961 109.012 62.9102 108.902C62.168 108.754 61.4883 108.57 60.8711 108.352C60.2617 108.125 59.7383 107.855 59.3008 107.543C58.8633 107.223 58.5195 106.855 58.2695 106.441C58.0273 106.027 57.9062 105.551 57.9062 105.012C57.9062 104.488 58.0312 103.988 58.2812 103.512C58.5312 103.035 58.8906 102.617 59.3594 102.258C59.8281 101.898 60.3984 101.613 61.0703 101.402C61.7422 101.191 62.5 101.086 63.3438 101.086C64.2266 101.086 65.0195 101.191 65.7227 101.402C66.4258 101.605 67.0195 101.891 67.5039 102.258C67.9961 102.617 68.3711 103.047 68.6289 103.547C68.8867 104.047 69.0156 104.59 69.0156 105.176H65.7578C65.7578 104.684 65.5586 104.273 65.1602 103.945C64.7617 103.609 64.1562 103.441 63.3438 103.441C62.5859 103.441 62.0117 103.578 61.6211 103.852C61.2383 104.125 61.0469 104.461 61.0469 104.859C61.0469 105.047 61.0859 105.223 61.1641 105.387C61.2422 105.543 61.3789 105.688 61.5742 105.82C61.7773 105.945 62.0508 106.062 62.3945 106.172C62.7383 106.273 63.1758 106.363 63.707 106.441C64.4727 106.566 65.1836 106.727 65.8398 106.922C66.4961 107.117 67.0625 107.371 67.5391 107.684C68.0156 107.988 68.3867 108.363 68.6523 108.809C68.9258 109.246 69.0625 109.77 69.0625 110.379C69.0625 110.941 68.9258 111.461 68.6523 111.938C68.3867 112.406 68.0039 112.812 67.5039 113.156C67.0117 113.5 66.4141 113.77 65.7109 113.965C65.0078 114.152 64.2227 114.246 63.3555 114.246C62.4023 114.246 61.5586 114.121 60.8242 113.871C60.0977 113.621 59.4883 113.297 58.9961 112.898C58.5039 112.492 58.1289 112.035 57.8711 111.527C57.6211 111.012 57.4961 110.496 57.4961 109.98H60.6016C60.625 110.324 60.7188 110.621 60.8828 110.871C61.0469 111.113 61.2578 111.312 61.5156 111.469C61.7734 111.617 62.0664 111.727 62.3945 111.797C62.7305 111.867 63.0742 111.902 63.4258 111.902C64.2305 111.902 64.8438 111.773 65.2656 111.516C65.6875 111.258 65.8984 110.926 65.8984 110.52ZM95.2891 109.547C95.2891 109.242 95.2344 108.957 95.125 108.691C95.0234 108.426 94.8438 108.18 94.5859 107.953C94.3359 107.719 94.0039 107.508 93.5898 107.32C93.1836 107.125 92.6758 106.945 92.0664 106.781C91.3242 106.578 90.6133 106.324 89.9336 106.02C89.2617 105.715 88.668 105.348 88.1523 104.918C87.6367 104.488 87.2227 103.988 86.9102 103.418C86.6055 102.848 86.4531 102.191 86.4531 101.449C86.4531 100.73 86.6055 100.078 86.9102 99.4922C87.2148 98.9062 87.6367 98.4062 88.1758 97.9922C88.7148 97.5781 89.3516 97.2617 90.0859 97.043C90.8203 96.8164 91.6172 96.7031 92.4766 96.7031C93.3672 96.7031 94.1797 96.832 94.9141 97.0898C95.6562 97.3477 96.293 97.7109 96.8242 98.1797C97.3555 98.6406 97.7695 99.1914 98.0664 99.832C98.3633 100.473 98.5117 101.176 98.5117 101.941H95.3008C95.2852 101.559 95.2148 101.207 95.0898 100.887C94.9727 100.566 94.793 100.293 94.5508 100.066C94.3164 99.832 94.0195 99.6523 93.6602 99.5273C93.3086 99.3945 92.8945 99.3281 92.418 99.3281C91.9805 99.3281 91.5898 99.3828 91.2461 99.4922C90.9102 99.5938 90.625 99.7422 90.3906 99.9375C90.1562 100.125 89.9766 100.352 89.8516 100.617C89.7344 100.875 89.6758 101.156 89.6758 101.461C89.6758 101.781 89.7539 102.07 89.9102 102.328C90.0742 102.586 90.3086 102.82 90.6133 103.031C90.918 103.234 91.2852 103.422 91.7148 103.594C92.1523 103.766 92.6445 103.926 93.1914 104.074C93.9727 104.301 94.6914 104.578 95.3477 104.906C96.0039 105.234 96.5664 105.625 97.0352 106.078C97.5117 106.523 97.8789 107.035 98.1367 107.613C98.4023 108.184 98.5352 108.82 98.5352 109.523C98.5352 110.273 98.3828 110.941 98.0781 111.527C97.7812 112.105 97.3672 112.598 96.8359 113.004C96.3047 113.402 95.6719 113.707 94.9375 113.918C94.2031 114.121 93.4023 114.223 92.5352 114.223C91.9961 114.223 91.457 114.172 90.918 114.07C90.3867 113.977 89.875 113.828 89.3828 113.625C88.8984 113.422 88.4453 113.168 88.0234 112.863C87.6016 112.559 87.2344 112.203 86.9219 111.797C86.6172 111.391 86.375 110.93 86.1953 110.414C86.0234 109.898 85.9375 109.328 85.9375 108.703H89.1719C89.1875 109.219 89.2773 109.66 89.4414 110.027C89.6055 110.395 89.832 110.695 90.1211 110.93C90.418 111.164 90.7695 111.336 91.1758 111.445C91.5898 111.555 92.043 111.609 92.5352 111.609C92.9727 111.609 93.3594 111.559 93.6953 111.457C94.0391 111.355 94.3281 111.215 94.5625 111.035C94.7969 110.855 94.9766 110.641 95.1016 110.391C95.2266 110.133 95.2891 109.852 95.2891 109.547ZM104.348 107.742V114H101.055V96.9375H106.891C107.82 96.9375 108.66 97.0742 109.41 97.3477C110.16 97.6133 110.797 97.9883 111.32 98.4727C111.852 98.9492 112.258 99.5234 112.539 100.195C112.828 100.867 112.973 101.613 112.973 102.434C112.973 103.199 112.828 103.906 112.539 104.555C112.258 105.203 111.852 105.766 111.32 106.242C110.797 106.711 110.16 107.078 109.41 107.344C108.66 107.609 107.82 107.742 106.891 107.742H104.348ZM104.348 105.07H106.891C107.359 105.07 107.766 105 108.109 104.859C108.453 104.719 108.738 104.527 108.965 104.285C109.199 104.043 109.371 103.766 109.48 103.453C109.598 103.133 109.656 102.801 109.656 102.457C109.656 102.059 109.598 101.688 109.48 101.344C109.371 101 109.199 100.699 108.965 100.441C108.738 100.184 108.453 99.9805 108.109 99.832C107.766 99.6836 107.359 99.6094 106.891 99.6094H104.348V105.07ZM123.648 110.438H118.527L117.52 114H114.051L119.641 96.9375H122.629L128.113 114H124.645L123.648 110.438ZM119.336 107.637H122.875L121.129 101.355L119.336 107.637ZM141.52 108.656C141.465 109.516 141.277 110.289 140.957 110.977C140.645 111.664 140.223 112.25 139.691 112.734C139.16 113.219 138.527 113.594 137.793 113.859C137.059 114.117 136.246 114.246 135.355 114.246C134.348 114.246 133.453 114.062 132.672 113.695C131.891 113.32 131.234 112.801 130.703 112.137C130.172 111.465 129.766 110.66 129.484 109.723C129.203 108.785 129.062 107.754 129.062 106.629V104.332C129.062 103.199 129.211 102.164 129.508 101.227C129.805 100.289 130.227 99.4844 130.773 98.8125C131.32 98.1406 131.98 97.6211 132.754 97.2539C133.535 96.8789 134.41 96.6914 135.379 96.6914C136.316 96.6914 137.148 96.8242 137.875 97.0898C138.609 97.3555 139.234 97.7344 139.75 98.2266C140.266 98.7188 140.672 99.3203 140.969 100.031C141.266 100.742 141.453 101.543 141.531 102.434H138.25C138.219 101.926 138.141 101.48 138.016 101.098C137.898 100.715 137.723 100.398 137.488 100.148C137.262 99.8906 136.973 99.6992 136.621 99.5742C136.277 99.4414 135.863 99.375 135.379 99.375C134.871 99.375 134.43 99.4844 134.055 99.7031C133.68 99.9219 133.367 100.242 133.117 100.664C132.875 101.086 132.695 101.605 132.578 102.223C132.461 102.832 132.402 103.527 132.402 104.309V106.629C132.402 108.309 132.637 109.551 133.105 110.355C133.582 111.16 134.332 111.562 135.355 111.562C136.215 111.562 136.895 111.336 137.395 110.883C137.895 110.422 138.172 109.68 138.227 108.656H141.52ZM154.586 106.523H147.578V111.34H155.77V114H144.273V96.9375H155.734V99.6211H147.578V103.922H154.586V106.523ZM172.891 114V96.9375H178.621C179.551 96.9375 180.395 97.0312 181.152 97.2188C181.918 97.4062 182.57 97.6914 183.109 98.0742C183.648 98.457 184.062 98.9414 184.352 99.5273C184.648 100.113 184.797 100.805 184.797 101.602C184.789 102.398 184.574 103.113 184.152 103.746C183.738 104.379 183.125 104.859 182.312 105.188C182.805 105.312 183.23 105.5 183.59 105.75C183.949 106 184.246 106.297 184.48 106.641C184.723 106.977 184.898 107.348 185.008 107.754C185.125 108.152 185.184 108.566 185.184 108.996C185.184 109.816 185.043 110.539 184.762 111.164C184.48 111.789 184.078 112.312 183.555 112.734C183.031 113.156 182.395 113.473 181.645 113.684C180.895 113.895 180.051 114 179.113 114H172.891ZM176.195 106.477V111.34H179.125C180.023 111.332 180.707 111.113 181.176 110.684C181.652 110.246 181.891 109.676 181.891 108.973C181.898 108.191 181.688 107.582 181.258 107.145C180.828 106.707 180.164 106.484 179.266 106.477H176.195ZM176.195 104.098H178.645C179.559 104.09 180.262 103.898 180.754 103.523C181.246 103.148 181.496 102.598 181.504 101.871C181.504 101.074 181.258 100.504 180.766 100.16C180.273 99.8086 179.562 99.6289 178.633 99.6211H176.195V104.098ZM195.719 110.438H190.598L189.59 114H186.121L191.711 96.9375H194.699L200.184 114H196.715L195.719 110.438ZM191.406 107.637H194.945L193.199 101.355L191.406 107.637ZM207.531 107.625H205.035V114H201.742V96.9375H207.461C208.406 96.9375 209.262 97.0508 210.027 97.2773C210.793 97.4961 211.445 97.8203 211.984 98.25C212.531 98.6797 212.949 99.2148 213.238 99.8555C213.535 100.496 213.684 101.238 213.684 102.082C213.684 102.691 213.609 103.242 213.461 103.734C213.32 104.219 213.113 104.656 212.84 105.047C212.574 105.43 212.25 105.766 211.867 106.055C211.492 106.344 211.07 106.594 210.602 106.805L214.27 113.848V114H210.742L207.531 107.625ZM205.035 104.953H207.473C208.402 104.953 209.117 104.719 209.617 104.25C210.125 103.773 210.379 103.125 210.379 102.305C210.379 101.453 210.133 100.793 209.641 100.324C209.148 99.8477 208.422 99.6094 207.461 99.6094H205.035V104.953ZM236.664 98.2148V101.32H241.398V103.723H236.664V109.172C236.664 109.633 236.715 110.02 236.816 110.332C236.926 110.637 237.078 110.883 237.273 111.07C237.469 111.25 237.703 111.379 237.977 111.457C238.258 111.535 238.57 111.574 238.914 111.574C239.164 111.574 239.418 111.562 239.676 111.539C239.941 111.516 240.191 111.488 240.426 111.457C240.668 111.418 240.891 111.379 241.094 111.34C241.305 111.301 241.484 111.262 241.633 111.223L241.949 113.461C241.723 113.594 241.457 113.711 241.152 113.812C240.848 113.906 240.523 113.984 240.18 114.047C239.836 114.109 239.477 114.156 239.102 114.188C238.734 114.227 238.371 114.246 238.012 114.246C237.316 114.246 236.684 114.156 236.113 113.977C235.551 113.789 235.066 113.504 234.66 113.121C234.262 112.73 233.953 112.238 233.734 111.645C233.516 111.043 233.406 110.324 233.406 109.488V103.723H230.512V101.32H233.406V98.2148H236.664ZM244.656 107.543C244.656 106.621 244.789 105.77 245.055 104.988C245.32 104.199 245.707 103.516 246.215 102.938C246.73 102.359 247.355 101.906 248.09 101.578C248.832 101.25 249.68 101.086 250.633 101.086C251.586 101.086 252.434 101.25 253.176 101.578C253.918 101.906 254.543 102.359 255.051 102.938C255.566 103.516 255.957 104.199 256.223 104.988C256.488 105.77 256.621 106.621 256.621 107.543V107.789C256.621 108.719 256.488 109.578 256.223 110.367C255.957 111.148 255.57 111.828 255.062 112.406C254.555 112.984 253.93 113.438 253.188 113.766C252.445 114.086 251.602 114.246 250.656 114.246C249.703 114.246 248.852 114.086 248.102 113.766C247.359 113.438 246.73 112.984 246.215 112.406C245.707 111.828 245.32 111.148 245.055 110.367C244.789 109.578 244.656 108.719 244.656 107.789V107.543ZM247.914 107.789C247.914 108.32 247.965 108.82 248.066 109.289C248.168 109.75 248.328 110.156 248.547 110.508C248.766 110.852 249.047 111.125 249.391 111.328C249.742 111.531 250.164 111.633 250.656 111.633C251.133 111.633 251.543 111.531 251.887 111.328C252.23 111.125 252.508 110.852 252.719 110.508C252.938 110.156 253.098 109.75 253.199 109.289C253.301 108.82 253.352 108.32 253.352 107.789V107.543C253.352 107.027 253.301 106.539 253.199 106.078C253.098 105.617 252.938 105.211 252.719 104.859C252.508 104.508 252.23 104.23 251.887 104.027C251.543 103.824 251.125 103.723 250.633 103.723C250.148 103.723 249.734 103.824 249.391 104.027C249.047 104.23 248.766 104.508 248.547 104.859C248.328 105.211 248.168 105.617 248.066 106.078C247.965 106.539 247.914 107.027 247.914 107.543V107.789ZM279.543 111.633C279.863 111.633 280.168 111.586 280.457 111.492C280.746 111.398 281 111.266 281.219 111.094C281.438 110.922 281.605 110.715 281.723 110.473C281.848 110.23 281.902 109.961 281.887 109.664H284.957C284.973 110.32 284.836 110.93 284.547 111.492C284.266 112.055 283.879 112.539 283.387 112.945C282.895 113.352 282.32 113.672 281.664 113.906C281.016 114.133 280.328 114.246 279.602 114.246C278.617 114.246 277.754 114.082 277.012 113.754C276.27 113.418 275.648 112.961 275.148 112.383C274.656 111.805 274.281 111.129 274.023 110.355C273.773 109.574 273.648 108.738 273.648 107.848V107.496C273.648 106.605 273.773 105.773 274.023 105C274.273 104.219 274.648 103.539 275.148 102.961C275.648 102.383 276.266 101.926 277 101.59C277.742 101.254 278.602 101.086 279.578 101.086C280.359 101.086 281.082 101.203 281.746 101.438C282.41 101.672 282.98 102.004 283.457 102.434C283.941 102.855 284.316 103.371 284.582 103.98C284.848 104.582 284.973 105.258 284.957 106.008H281.887C281.902 105.695 281.855 105.398 281.746 105.117C281.637 104.836 281.477 104.594 281.266 104.391C281.055 104.188 280.801 104.027 280.504 103.91C280.207 103.785 279.883 103.723 279.531 103.723C279.016 103.723 278.59 103.828 278.254 104.039C277.918 104.25 277.648 104.531 277.445 104.883C277.25 105.234 277.109 105.637 277.023 106.09C276.945 106.543 276.906 107.012 276.906 107.496V107.848C276.906 108.34 276.945 108.816 277.023 109.277C277.102 109.73 277.238 110.133 277.434 110.484C277.637 110.828 277.906 111.105 278.242 111.316C278.586 111.527 279.02 111.633 279.543 111.633ZM287.898 107.543C287.898 106.621 288.031 105.77 288.297 104.988C288.562 104.199 288.949 103.516 289.457 102.938C289.973 102.359 290.598 101.906 291.332 101.578C292.074 101.25 292.922 101.086 293.875 101.086C294.828 101.086 295.676 101.25 296.418 101.578C297.16 101.906 297.785 102.359 298.293 102.938C298.809 103.516 299.199 104.199 299.465 104.988C299.73 105.77 299.863 106.621 299.863 107.543V107.789C299.863 108.719 299.73 109.578 299.465 110.367C299.199 111.148 298.812 111.828 298.305 112.406C297.797 112.984 297.172 113.438 296.43 113.766C295.688 114.086 294.844 114.246 293.898 114.246C292.945 114.246 292.094 114.086 291.344 113.766C290.602 113.438 289.973 112.984 289.457 112.406C288.949 111.828 288.562 111.148 288.297 110.367C288.031 109.578 287.898 108.719 287.898 107.789V107.543ZM291.156 107.789C291.156 108.32 291.207 108.82 291.309 109.289C291.41 109.75 291.57 110.156 291.789 110.508C292.008 110.852 292.289 111.125 292.633 111.328C292.984 111.531 293.406 111.633 293.898 111.633C294.375 111.633 294.785 111.531 295.129 111.328C295.473 111.125 295.75 110.852 295.961 110.508C296.18 110.156 296.34 109.75 296.441 109.289C296.543 108.82 296.594 108.32 296.594 107.789V107.543C296.594 107.027 296.543 106.539 296.441 106.078C296.34 105.617 296.18 105.211 295.961 104.859C295.75 104.508 295.473 104.23 295.129 104.027C294.785 103.824 294.367 103.723 293.875 103.723C293.391 103.723 292.977 103.824 292.633 104.027C292.289 104.23 292.008 104.508 291.789 104.859C291.57 105.211 291.41 105.617 291.309 106.078C291.207 106.539 291.156 107.027 291.156 107.543V107.789ZM305.711 101.32L305.91 103.078C306.363 102.445 306.914 101.957 307.562 101.613C308.211 101.262 308.93 101.086 309.719 101.086C310.359 101.086 310.945 101.18 311.477 101.367C312.008 101.555 312.465 101.855 312.848 102.27C313.238 102.676 313.539 103.203 313.75 103.852C313.969 104.492 314.078 105.273 314.078 106.195V114H310.82V106.242C310.82 105.742 310.762 105.332 310.645 105.012C310.535 104.684 310.375 104.426 310.164 104.238C309.953 104.051 309.699 103.922 309.402 103.852C309.105 103.773 308.77 103.734 308.395 103.734C307.84 103.734 307.367 103.848 306.977 104.074C306.586 104.293 306.27 104.598 306.027 104.988V114H302.758V101.32H305.711ZM323.148 98.2148V101.32H327.883V103.723H323.148V109.172C323.148 109.633 323.199 110.02 323.301 110.332C323.41 110.637 323.562 110.883 323.758 111.07C323.953 111.25 324.188 111.379 324.461 111.457C324.742 111.535 325.055 111.574 325.398 111.574C325.648 111.574 325.902 111.562 326.16 111.539C326.426 111.516 326.676 111.488 326.91 111.457C327.152 111.418 327.375 111.379 327.578 111.34C327.789 111.301 327.969 111.262 328.117 111.223L328.434 113.461C328.207 113.594 327.941 113.711 327.637 113.812C327.332 113.906 327.008 113.984 326.664 114.047C326.32 114.109 325.961 114.156 325.586 114.188C325.219 114.227 324.855 114.246 324.496 114.246C323.801 114.246 323.168 114.156 322.598 113.977C322.035 113.789 321.551 113.504 321.145 113.121C320.746 112.73 320.438 112.238 320.219 111.645C320 111.043 319.891 110.324 319.891 109.488V103.723H316.996V101.32H319.891V98.2148H323.148ZM332.453 101.32H339.355V111.352H342.789V114H332.453V111.352H336.062V103.98H332.453V101.32ZM335.828 98.0742C335.828 97.8242 335.871 97.5938 335.957 97.3828C336.051 97.1641 336.18 96.9805 336.344 96.832C336.508 96.6758 336.703 96.5547 336.93 96.4688C337.164 96.3828 337.422 96.3398 337.703 96.3398C338.281 96.3398 338.738 96.5039 339.074 96.832C339.418 97.1523 339.59 97.5664 339.59 98.0742C339.59 98.582 339.418 99 339.074 99.3281C338.738 99.6484 338.281 99.8086 337.703 99.8086C337.422 99.8086 337.164 99.7656 336.93 99.6797C336.703 99.5938 336.508 99.4766 336.344 99.3281C336.18 99.1719 336.051 98.9883 335.957 98.7773C335.871 98.5586 335.828 98.3242 335.828 98.0742ZM348.953 101.32L349.152 103.078C349.605 102.445 350.156 101.957 350.805 101.613C351.453 101.262 352.172 101.086 352.961 101.086C353.602 101.086 354.188 101.18 354.719 101.367C355.25 101.555 355.707 101.855 356.09 102.27C356.48 102.676 356.781 103.203 356.992 103.852C357.211 104.492 357.32 105.273 357.32 106.195V114H354.062V106.242C354.062 105.742 354.004 105.332 353.887 105.012C353.777 104.684 353.617 104.426 353.406 104.238C353.195 104.051 352.941 103.922 352.645 103.852C352.348 103.773 352.012 103.734 351.637 103.734C351.082 103.734 350.609 103.848 350.219 104.074C349.828 104.293 349.512 104.598 349.27 104.988V114H346V101.32H348.953ZM368.5 112.219C368.07 112.852 367.551 113.348 366.941 113.707C366.34 114.066 365.68 114.246 364.961 114.246C364.305 114.246 363.703 114.145 363.156 113.941C362.609 113.738 362.141 113.418 361.75 112.98C361.359 112.535 361.055 111.973 360.836 111.293C360.625 110.605 360.52 109.781 360.52 108.82V101.32H363.777V108.844C363.777 109.359 363.812 109.793 363.883 110.145C363.961 110.496 364.082 110.781 364.246 111C364.41 111.211 364.625 111.363 364.891 111.457C365.156 111.551 365.48 111.598 365.863 111.598C366.512 111.598 367.039 111.477 367.445 111.234C367.852 110.984 368.16 110.645 368.371 110.215V101.32H371.641V114H368.688L368.5 112.219ZM380.98 114.234C380.004 114.234 379.117 114.074 378.32 113.754C377.523 113.434 376.84 113 376.27 112.453C375.699 111.898 375.258 111.25 374.945 110.508C374.641 109.758 374.488 108.957 374.488 108.105V107.637C374.488 106.668 374.641 105.785 374.945 104.988C375.25 104.184 375.676 103.492 376.223 102.914C376.77 102.336 377.418 101.887 378.168 101.566C378.918 101.246 379.734 101.086 380.617 101.086C381.531 101.086 382.344 101.238 383.055 101.543C383.773 101.84 384.379 102.262 384.871 102.809C385.371 103.355 385.75 104.016 386.008 104.789C386.266 105.555 386.395 106.402 386.395 107.332V108.715H377.793C377.855 109.145 377.98 109.539 378.168 109.898C378.363 110.25 378.609 110.555 378.906 110.812C379.203 111.07 379.543 111.27 379.926 111.41C380.309 111.551 380.727 111.621 381.18 111.621C381.5 111.621 381.816 111.59 382.129 111.527C382.449 111.465 382.754 111.375 383.043 111.258C383.332 111.133 383.602 110.98 383.852 110.801C384.102 110.621 384.32 110.41 384.508 110.168L386.137 111.926C385.934 112.215 385.668 112.5 385.34 112.781C385.02 113.055 384.637 113.301 384.191 113.52C383.754 113.73 383.266 113.902 382.727 114.035C382.188 114.168 381.605 114.234 380.98 114.234ZM380.594 103.723C380.227 103.723 379.891 103.789 379.586 103.922C379.281 104.047 379.012 104.23 378.777 104.473C378.551 104.715 378.359 105.004 378.203 105.34C378.047 105.676 377.93 106.051 377.852 106.465H383.195V106.207C383.18 105.863 383.113 105.539 382.996 105.234C382.879 104.93 382.711 104.668 382.492 104.449C382.273 104.223 382.004 104.047 381.684 103.922C381.371 103.789 381.008 103.723 380.594 103.723Z" fill="#4F565E"/>
</svg>
