<svg width="1254" height="792" viewBox="0 0 1254 792" fill="none" xmlns="http://www.w3.org/2000/svg">
<g clip-path="url(#clip0)">
<path d="M1665.73 0H-373.343V1288.24H1665.73V0Z" fill="#4F565E"/>
<path d="M332.822 1553.09C240.905 1452.36 250.978 191.949 250.978 191.949C250.978 191.949 253.496 -81.2853 310.158 -185.794C339.118 -241.197 926.778 -231.124 951.062 -185.794C1007.72 -80.0263 1019.06 191.949 1019.06 191.949C1019.06 191.949 1034.17 1444.8 943.507 1553.09C867.958 1634.93 393.717 1619.82 332.822 1553.09Z" fill="url(#paint0_linear)"/>
<path d="M626.203 -209.718C543.049 -209.517 439.774 -191.586 382.357 -179.121C359.063 -174.059 340.654 -156.255 334.786 -133.162L306.581 15.3666C300.638 38.6608 279.031 251.381 279.56 327.357C280.854 510.56 270.941 699.123 391.02 850.078C407.036 870.149 491.147 969.521 634.211 967.456C827.993 964.635 916.813 774.228 916.813 774.228C916.813 774.228 1012.89 608.096 980.752 286.914C956.35 43.0678 940.964 -56.2032 930.916 -108.987C926.786 -130.644 908.1 -164.54 888.029 -173.681C847.334 -192.166 743.303 -210.002 626.203 -209.718Z" fill="#C3C4C4"/>
<path d="M608.575 -188.313C550.654 -188.313 425.422 -183.929 397.066 -134.721C344.333 -43.2571 325.217 197.363 327.534 309.301C329.422 400.64 325.695 591.35 367.675 672.464C381.073 698.377 417.044 758.715 452.617 752.545C488.19 746.375 585.494 720.508 627.877 719.224C677.638 717.713 773.566 741.05 816.233 746.375C858.9 751.701 863.146 726.255 889.244 672.464C942.768 562.145 936.716 308.894 936.716 308.894C936.716 308.894 907.621 -98.9889 867.555 -143.563C823.863 -192.14 674.05 -188.313 608.575 -188.313Z" fill="#75797C"/>
<path d="M605.729 719.102L538.935 732.32L512.199 739.959C494.747 744.366 492.381 765.64 508.523 773.573L532.976 785.585C589.864 811.927 604.747 812.632 633.405 810.869C720.009 805.555 757.456 775.386 762.845 771.332C763.273 771.004 763.676 770.677 764.079 770.299C776.595 758.967 769.745 737.964 753.099 735.068L661.459 719.102C647.86 715.879 605.729 719.102 605.729 719.102Z" fill="#A2A4A2"/>
<path d="M505.904 827.062C487.823 816.51 433.982 784.628 408.799 771.281C396.635 764.835 370.722 781.052 366.869 794.273C359.662 819.003 400.06 860.379 400.06 860.379C400.06 860.379 434.838 900.873 451.358 902.761C470.421 904.952 488.452 883.245 494.773 872.567C500.742 862.418 516.053 832.98 505.904 827.062Z" fill="#A2A4A2"/>
<path d="M854.687 747.433C814.284 773.043 772.979 808.75 727.11 824.039C727.11 824.039 705.529 829.076 705.529 849.222L713.663 900.419C715.476 910.996 719.933 921.019 727.11 929.002C734.842 937.614 744.814 943.154 754.056 939.075C754.056 939.075 791.025 920.339 819.557 896.415C854.36 867.228 861.713 853.378 868.185 847.485C868.739 846.981 869.268 846.452 869.696 845.848C886.75 823.243 908.402 798.831 918.324 771.155C920.716 760.528 912.658 749.951 902.207 746.879C884.849 741.814 871.895 737.669 854.687 747.433Z" fill="#A2A4A2"/>
<path d="M562.991 87.042L563.072 87.231L575.924 103.08H586.643V81.939H580.406V97.95L580.298 97.68L567.554 81.939H556.754V103.08H562.991V87.042ZM590.315 97.68C590.315 98.544 590.414 99.273 590.612 99.867C590.81 100.461 591.179 101.001 591.719 101.487C592.205 101.937 592.727 102.288 593.285 102.54C593.843 102.774 594.563 102.954 595.445 103.08C596.327 103.188 597.398 103.26 598.658 103.296C599.918 103.332 601.763 103.35 604.193 103.35C606.623 103.35 608.477 103.332 609.755 103.296C611.033 103.26 612.104 103.188 612.968 103.08C613.85 102.954 614.579 102.774 615.155 102.54C615.749 102.288 616.28 101.937 616.748 101.487C617.288 101.001 617.657 100.461 617.855 99.867C618.053 99.273 618.152 98.544 618.152 97.68C618.152 95.628 618.152 93.207 618.152 90.417V87.339C618.152 86.475 618.053 85.764 617.855 85.206C617.657 84.63 617.288 84.099 616.748 83.613C616.28 83.145 615.758 82.785 615.182 82.533C614.624 82.281 613.913 82.101 613.049 81.993C612.203 81.885 611.168 81.822 609.944 81.804C608.72 81.768 606.83 81.75 604.274 81.75C601.718 81.75 599.828 81.768 598.604 81.804C597.38 81.822 596.327 81.885 595.445 81.993C594.581 82.101 593.861 82.281 593.285 82.533C592.709 82.785 592.187 83.145 591.719 83.613C591.179 84.099 590.81 84.63 590.612 85.206C590.414 85.764 590.315 86.475 590.315 87.339V97.68ZM596.282 88.257C596.282 87.861 596.426 87.546 596.714 87.312C597.02 87.078 597.524 86.961 598.226 86.961C605.3 86.961 609.332 86.961 610.322 86.961C611.078 86.961 611.591 87.051 611.861 87.231C612.149 87.411 612.293 87.753 612.293 88.257V94.413V96.843C612.293 97.185 612.122 97.473 611.78 97.707C611.456 97.923 610.943 98.031 610.241 98.031C603.221 98.031 599.216 98.031 598.226 98.031C597.47 98.031 596.957 97.95 596.687 97.788C596.417 97.608 596.282 97.293 596.282 96.843V88.257ZM621.82 81.939V103.161H628.435V81.939H621.82ZM628.435 92.172L640.531 103.161H650.116L636.427 92.172L648.55 81.939H639.775L628.435 92.172ZM659.227 98.22V94.71H674.86V90.417H659.227V86.853H675.886V81.939H659.605H652.882H652.612V103.161H653.071H659.605H675.886V98.22H659.227ZM708.455 81.939H700.517L693.605 90.552L686.693 81.939H678.755L690.257 95.79V103.161H696.899V95.79L708.455 81.939Z" fill="#1B5096"/>
<g filter="url(#filter0_d)">
<path d="M624.918 22.4933C619.856 23.0474 612.856 24.9864 611.017 28.2854C609.254 31.4332 619.806 35.6891 623.407 35.6388C631.063 35.5128 638.844 31.6851 640.809 28.6631C642.219 26.4722 638.718 20.9824 624.918 22.4933Z" fill="#292E32"/>
</g>
<path d="M1015.86 591.231V594H1014.22V586.036H1017.48C1017.91 586.041 1018.31 586.102 1018.69 586.221C1019.07 586.339 1019.39 586.512 1019.67 586.74C1019.95 586.964 1020.18 587.239 1020.33 587.567C1020.5 587.891 1020.58 588.26 1020.58 588.675C1020.58 589.08 1020.5 589.443 1020.33 589.762C1020.18 590.076 1019.95 590.343 1019.67 590.562C1019.39 590.78 1019.07 590.947 1018.69 591.061C1018.31 591.174 1017.91 591.231 1017.48 591.231H1015.86ZM1015.86 589.919H1017.48C1017.69 589.914 1017.88 589.885 1018.06 589.83C1018.24 589.775 1018.4 589.696 1018.52 589.591C1018.66 589.486 1018.76 589.358 1018.83 589.208C1018.9 589.053 1018.94 588.88 1018.94 588.688C1018.94 588.483 1018.9 588.301 1018.83 588.142C1018.76 587.978 1018.66 587.839 1018.52 587.725C1018.4 587.606 1018.24 587.515 1018.06 587.451C1017.88 587.387 1017.69 587.353 1017.48 587.349H1015.86V589.919ZM1024.34 592.701H1029.05V594H1022.65V586.036H1024.34V592.701ZM1035.66 592.312H1032.36L1031.72 594H1030.06L1033.25 586.036H1034.78L1037.96 594H1036.3L1035.66 592.312ZM1032.83 591.067H1035.18L1034.01 587.984L1032.83 591.067ZM1042.47 589.762L1044.45 586.036H1046.27L1043.28 591.231V594H1041.63V591.163L1038.68 586.036H1040.49L1042.47 589.762ZM1060.89 590.876L1061.66 586.036H1063.18L1061.69 594H1060.24L1059.25 589.133L1058.26 594H1056.8L1055.32 586.036H1056.85L1057.61 590.849L1058.53 586.036H1059.96L1060.89 590.876ZM1064.87 586.043H1070.55V587.396H1068.51V592.646H1070.55V594H1064.87V592.646H1066.87V587.396H1064.87V586.043ZM1079.75 587.349H1076.91V594H1075.25V587.349H1072.46V586.036H1079.75V587.349ZM1087.33 594H1085.73V590.767H1082.86V594H1081.26V586.036H1082.86V589.454H1085.73V586.036H1087.33V594ZM1102.93 592.312H1099.62L1098.99 594H1097.33L1100.52 586.036H1102.04L1105.23 594H1103.57L1102.93 592.312ZM1100.1 591.067H1102.45L1101.27 587.984L1100.1 591.067ZM1109.64 591.088H1108.09V594H1106.45V586.036H1109.56C1109.99 586.041 1110.39 586.091 1110.77 586.187C1111.15 586.282 1111.48 586.428 1111.77 586.624C1112.05 586.82 1112.27 587.071 1112.44 587.376C1112.6 587.677 1112.68 588.037 1112.68 588.456C1112.68 588.757 1112.64 589.021 1112.57 589.249C1112.49 589.477 1112.38 589.68 1112.24 589.857C1112.11 590.031 1111.94 590.183 1111.75 590.315C1111.57 590.448 1111.36 590.564 1111.14 590.664L1113.02 593.932V594H1111.27L1109.64 591.088ZM1108.09 589.775H1109.56C1109.76 589.771 1109.95 589.746 1110.13 589.7C1110.31 589.65 1110.47 589.577 1110.61 589.481C1110.75 589.381 1110.85 589.258 1110.93 589.112C1111.01 588.962 1111.05 588.784 1111.05 588.579C1111.05 588.369 1111.02 588.189 1110.94 588.039C1110.86 587.884 1110.75 587.759 1110.62 587.663C1110.49 587.563 1110.33 587.488 1110.15 587.438C1109.96 587.387 1109.77 587.362 1109.56 587.362H1108.09V589.775ZM1118.05 591.088H1116.5V594H1114.86V586.036H1117.97C1118.39 586.041 1118.8 586.091 1119.18 586.187C1119.56 586.282 1119.89 586.428 1120.17 586.624C1120.46 586.82 1120.68 587.071 1120.84 587.376C1121.01 587.677 1121.09 588.037 1121.09 588.456C1121.09 588.757 1121.05 589.021 1120.97 589.249C1120.9 589.477 1120.79 589.68 1120.65 589.857C1120.52 590.031 1120.35 590.183 1120.16 590.315C1119.97 590.448 1119.77 590.564 1119.54 590.664L1121.43 593.932V594H1119.67L1118.05 591.088ZM1116.5 589.775H1117.97C1118.17 589.771 1118.36 589.746 1118.54 589.7C1118.72 589.65 1118.88 589.577 1119.02 589.481C1119.16 589.381 1119.26 589.258 1119.34 589.112C1119.42 588.962 1119.46 588.784 1119.46 588.579C1119.46 588.369 1119.42 588.189 1119.35 588.039C1119.27 587.884 1119.16 587.759 1119.03 587.663C1118.89 587.563 1118.74 587.488 1118.55 587.438C1118.37 587.387 1118.18 587.362 1117.97 587.362H1116.5V589.775ZM1129.92 590.459C1129.92 590.956 1129.84 591.425 1129.68 591.867C1129.53 592.309 1129.3 592.697 1129.01 593.029C1128.72 593.362 1128.36 593.626 1127.94 593.822C1127.52 594.014 1127.04 594.109 1126.51 594.109C1125.97 594.109 1125.49 594.014 1125.07 593.822C1124.65 593.626 1124.29 593.362 1124 593.029C1123.7 592.697 1123.48 592.309 1123.33 591.867C1123.17 591.425 1123.09 590.956 1123.09 590.459V589.591C1123.09 589.094 1123.17 588.625 1123.33 588.183C1123.48 587.741 1123.7 587.353 1123.99 587.021C1124.28 586.683 1124.64 586.417 1125.05 586.221C1125.48 586.025 1125.96 585.927 1126.5 585.927C1127.03 585.927 1127.51 586.025 1127.93 586.221C1128.36 586.417 1128.71 586.681 1129.01 587.014C1129.3 587.346 1129.52 587.736 1129.68 588.183C1129.84 588.625 1129.92 589.094 1129.92 589.591V590.459ZM1128.28 589.584C1128.28 589.288 1128.25 589.001 1128.18 588.723C1128.11 588.44 1128 588.189 1127.86 587.971C1127.72 587.752 1127.53 587.576 1127.31 587.444C1127.09 587.308 1126.82 587.239 1126.5 587.239C1126.17 587.239 1125.9 587.308 1125.68 587.444C1125.45 587.576 1125.27 587.754 1125.13 587.978C1124.99 588.196 1124.89 588.447 1124.82 588.729C1124.76 589.007 1124.73 589.292 1124.73 589.584V590.459C1124.73 590.751 1124.76 591.038 1124.82 591.32C1124.89 591.598 1125 591.849 1125.14 592.072C1125.28 592.291 1125.46 592.469 1125.68 592.605C1125.91 592.742 1126.19 592.811 1126.51 592.811C1126.83 592.811 1127.1 592.744 1127.32 592.612C1127.55 592.476 1127.73 592.298 1127.87 592.079C1128.01 591.856 1128.11 591.603 1128.18 591.32C1128.25 591.038 1128.28 590.751 1128.28 590.459V589.584ZM1136.57 590.876L1137.33 586.036H1138.85L1137.37 594H1135.92L1134.92 589.133L1133.93 594H1132.48L1131 586.036H1132.52L1133.29 590.849L1134.2 586.036H1135.64L1136.57 590.876ZM1151.21 590.732L1150.28 591.635V594H1148.64V586.036H1150.28V589.57L1151.04 588.654L1153.36 586.036H1155.38L1152.32 589.598L1155.54 594H1153.57L1151.21 590.732ZM1162.62 590.527H1158.82V592.701H1163.24V594H1157.16V586.036H1163.23V587.349H1158.82V589.222H1162.62V590.527ZM1168.59 589.762L1170.58 586.036H1172.39L1169.4 591.231V594H1167.75V591.163L1164.8 586.036H1166.62L1168.59 589.762ZM1178.68 591.895C1178.68 591.708 1178.63 591.55 1178.53 591.423C1178.44 591.291 1178.31 591.179 1178.14 591.088C1177.98 590.997 1177.79 590.919 1177.58 590.855C1177.36 590.792 1177.14 590.732 1176.91 590.678C1176.52 590.577 1176.14 590.466 1175.78 590.343C1175.42 590.22 1175.11 590.067 1174.83 589.885C1174.57 589.698 1174.35 589.47 1174.19 589.201C1174.03 588.928 1173.95 588.593 1173.95 588.196C1173.95 587.813 1174.04 587.481 1174.22 587.198C1174.4 586.911 1174.63 586.674 1174.92 586.487C1175.21 586.3 1175.54 586.161 1175.91 586.07C1176.28 585.975 1176.65 585.927 1177.04 585.927C1177.46 585.927 1177.86 585.975 1178.24 586.07C1178.62 586.166 1178.96 586.314 1179.24 586.515C1179.53 586.715 1179.77 586.97 1179.95 587.28C1180.13 587.59 1180.23 587.962 1180.25 588.395H1178.6C1178.6 588.194 1178.55 588.019 1178.46 587.868C1178.38 587.718 1178.27 587.592 1178.12 587.492C1177.98 587.387 1177.82 587.31 1177.63 587.26C1177.44 587.205 1177.25 587.178 1177.04 587.178C1176.85 587.178 1176.66 587.198 1176.47 587.239C1176.3 587.28 1176.14 587.342 1176 587.424C1175.86 587.506 1175.75 587.608 1175.67 587.731C1175.59 587.854 1175.54 587.998 1175.54 588.162C1175.54 588.344 1175.6 588.497 1175.7 588.62C1175.8 588.743 1175.93 588.848 1176.1 588.935C1176.27 589.021 1176.46 589.094 1176.67 589.153C1176.89 589.213 1177.11 589.27 1177.34 589.324C1177.74 589.42 1178.11 589.534 1178.46 589.666C1178.82 589.794 1179.13 589.955 1179.4 590.151C1179.67 590.347 1179.88 590.584 1180.04 590.862C1180.19 591.14 1180.27 591.475 1180.27 591.867C1180.27 592.268 1180.18 592.61 1180 592.893C1179.82 593.175 1179.58 593.408 1179.28 593.59C1178.98 593.768 1178.64 593.9 1178.25 593.986C1177.87 594.068 1177.47 594.109 1177.07 594.109C1176.66 594.109 1176.26 594.066 1175.86 593.979C1175.46 593.888 1175.11 593.743 1174.79 593.542C1174.47 593.337 1174.21 593.073 1174 592.749C1173.79 592.425 1173.68 592.029 1173.67 591.56H1175.31C1175.32 591.806 1175.37 592.013 1175.47 592.182C1175.57 592.35 1175.71 592.487 1175.87 592.592C1176.04 592.692 1176.23 592.765 1176.45 592.811C1176.66 592.852 1176.88 592.872 1177.11 592.872C1177.32 592.872 1177.51 592.852 1177.7 592.811C1177.89 592.77 1178.05 592.71 1178.19 592.633C1178.34 592.551 1178.45 592.448 1178.54 592.325C1178.63 592.202 1178.68 592.059 1178.68 591.895Z" fill="#EAEAEA"/>
<path d="M1018.92 706.895C1018.92 706.708 1018.88 706.55 1018.78 706.423C1018.68 706.291 1018.55 706.179 1018.39 706.088C1018.22 705.997 1018.03 705.919 1017.82 705.855C1017.61 705.792 1017.38 705.732 1017.16 705.678C1016.76 705.577 1016.38 705.466 1016.02 705.343C1015.67 705.22 1015.35 705.067 1015.08 704.885C1014.81 704.698 1014.6 704.47 1014.44 704.201C1014.28 703.928 1014.2 703.593 1014.2 703.196C1014.2 702.813 1014.29 702.481 1014.46 702.198C1014.64 701.911 1014.87 701.674 1015.16 701.487C1015.45 701.3 1015.78 701.161 1016.15 701.07C1016.52 700.975 1016.9 700.927 1017.29 700.927C1017.71 700.927 1018.1 700.975 1018.48 701.07C1018.87 701.166 1019.2 701.314 1019.49 701.515C1019.78 701.715 1020.01 701.97 1020.19 702.28C1020.37 702.59 1020.47 702.962 1020.49 703.395H1018.84C1018.84 703.194 1018.79 703.019 1018.71 702.868C1018.63 702.718 1018.51 702.592 1018.37 702.492C1018.22 702.387 1018.06 702.31 1017.87 702.26C1017.69 702.205 1017.49 702.178 1017.29 702.178C1017.09 702.178 1016.9 702.198 1016.72 702.239C1016.54 702.28 1016.38 702.342 1016.24 702.424C1016.1 702.506 1015.99 702.608 1015.91 702.731C1015.83 702.854 1015.79 702.998 1015.79 703.162C1015.79 703.344 1015.84 703.497 1015.94 703.62C1016.04 703.743 1016.18 703.848 1016.34 703.935C1016.51 704.021 1016.7 704.094 1016.92 704.153C1017.14 704.213 1017.36 704.27 1017.59 704.324C1017.98 704.42 1018.36 704.534 1018.71 704.666C1019.06 704.794 1019.38 704.955 1019.64 705.151C1019.91 705.347 1020.13 705.584 1020.28 705.862C1020.44 706.14 1020.51 706.475 1020.51 706.867C1020.51 707.268 1020.42 707.61 1020.24 707.893C1020.06 708.175 1019.82 708.408 1019.52 708.59C1019.23 708.768 1018.88 708.9 1018.5 708.986C1018.11 709.068 1017.72 709.109 1017.31 709.109C1016.91 709.109 1016.5 709.066 1016.1 708.979C1015.71 708.888 1015.35 708.743 1015.03 708.542C1014.71 708.337 1014.45 708.073 1014.24 707.749C1014.04 707.425 1013.93 707.029 1013.91 706.56H1015.56C1015.56 706.806 1015.61 707.013 1015.71 707.182C1015.82 707.35 1015.95 707.487 1016.12 707.592C1016.29 707.692 1016.48 707.765 1016.69 707.811C1016.91 707.852 1017.13 707.872 1017.35 707.872C1017.56 707.872 1017.76 707.852 1017.94 707.811C1018.13 707.77 1018.29 707.71 1018.43 707.633C1018.58 707.551 1018.7 707.448 1018.78 707.325C1018.87 707.202 1018.92 707.059 1018.92 706.895ZM1024.27 706.231V709H1022.63V701.036H1025.89C1026.31 701.041 1026.72 701.102 1027.1 701.221C1027.47 701.339 1027.8 701.512 1028.08 701.74C1028.36 701.964 1028.58 702.239 1028.74 702.567C1028.91 702.891 1028.99 703.26 1028.99 703.675C1028.99 704.08 1028.91 704.443 1028.74 704.762C1028.58 705.076 1028.36 705.343 1028.08 705.562C1027.8 705.78 1027.47 705.947 1027.1 706.061C1026.72 706.174 1026.31 706.231 1025.89 706.231H1024.27ZM1024.27 704.919H1025.89C1026.1 704.914 1026.29 704.885 1026.47 704.83C1026.65 704.775 1026.8 704.696 1026.93 704.591C1027.06 704.486 1027.17 704.358 1027.24 704.208C1027.31 704.053 1027.35 703.88 1027.35 703.688C1027.35 703.483 1027.31 703.301 1027.24 703.142C1027.17 702.978 1027.06 702.839 1026.93 702.725C1026.8 702.606 1026.65 702.515 1026.47 702.451C1026.29 702.387 1026.1 702.353 1025.89 702.349H1024.27V704.919ZM1035.66 707.312H1032.36L1031.72 709H1030.06L1033.25 701.036H1034.78L1037.96 709H1036.3L1035.66 707.312ZM1032.83 706.067H1035.18L1034.01 702.984L1032.83 706.067ZM1045.71 706.341C1045.67 706.806 1045.55 707.211 1045.36 707.558C1045.17 707.904 1044.92 708.193 1044.62 708.426C1044.32 708.654 1043.98 708.825 1043.58 708.938C1043.19 709.052 1042.78 709.109 1042.34 709.109C1041.81 709.109 1041.33 709.018 1040.9 708.836C1040.48 708.649 1040.12 708.394 1039.82 708.07C1039.52 707.742 1039.28 707.359 1039.12 706.922C1038.96 706.48 1038.88 706.004 1038.87 705.493V704.557C1038.88 704.037 1038.97 703.556 1039.13 703.114C1039.3 702.672 1039.54 702.289 1039.84 701.966C1040.15 701.642 1040.51 701.389 1040.94 701.207C1041.36 701.02 1041.83 700.927 1042.35 700.927C1042.82 700.927 1043.25 700.988 1043.64 701.111C1044.03 701.234 1044.37 701.417 1044.66 701.658C1044.96 701.895 1045.2 702.187 1045.38 702.533C1045.56 702.88 1045.67 703.278 1045.72 703.729H1044.08C1044.03 703.256 1043.86 702.889 1043.57 702.629C1043.28 702.369 1042.88 702.239 1042.35 702.239C1042.05 702.239 1041.78 702.301 1041.55 702.424C1041.33 702.547 1041.13 702.715 1040.98 702.93C1040.82 703.139 1040.71 703.383 1040.63 703.661C1040.55 703.939 1040.51 704.235 1040.51 704.55V705.493C1040.51 705.812 1040.55 706.113 1040.62 706.396C1040.7 706.674 1040.82 706.917 1040.97 707.127C1041.12 707.337 1041.31 707.503 1041.54 707.626C1041.77 707.749 1042.03 707.811 1042.34 707.811C1042.58 707.811 1042.8 707.783 1043 707.729C1043.2 707.669 1043.38 707.58 1043.53 707.462C1043.68 707.343 1043.8 707.191 1043.89 707.004C1043.99 706.817 1044.05 706.596 1044.08 706.341H1045.71ZM1053.32 705.527H1049.51V707.701H1053.93V709H1047.86V701.036H1053.93V702.349H1049.51V704.222H1053.32V705.527ZM1064.7 709V701.036H1067.72C1068.14 701.041 1068.54 701.082 1068.92 701.159C1069.3 701.237 1069.64 701.364 1069.92 701.542C1070.21 701.715 1070.44 701.941 1070.61 702.219C1070.78 702.492 1070.87 702.829 1070.87 703.23C1070.87 703.636 1070.75 703.98 1070.52 704.263C1070.29 704.545 1069.98 704.759 1069.59 704.905C1069.82 704.96 1070.03 705.044 1070.22 705.158C1070.4 705.272 1070.55 705.409 1070.67 705.568C1070.8 705.723 1070.9 705.899 1070.96 706.095C1071.03 706.291 1071.06 706.498 1071.06 706.717C1071.06 707.127 1070.98 707.478 1070.83 707.77C1070.67 708.057 1070.45 708.291 1070.18 708.474C1069.9 708.656 1069.58 708.79 1069.21 708.877C1068.83 708.959 1068.43 709 1068 709H1064.7ZM1066.34 705.527V707.694H1068C1068.2 707.694 1068.38 707.672 1068.56 707.626C1068.73 707.58 1068.88 707.517 1069.01 707.435C1069.14 707.348 1069.24 707.241 1069.31 707.113C1069.39 706.981 1069.43 706.828 1069.43 706.655C1069.43 706.464 1069.4 706.3 1069.33 706.163C1069.26 706.022 1069.17 705.906 1069.05 705.814C1068.94 705.719 1068.79 705.648 1068.62 705.603C1068.46 705.557 1068.28 705.532 1068.07 705.527H1066.34ZM1066.34 704.372H1067.83C1068.02 704.372 1068.2 704.354 1068.36 704.317C1068.53 704.281 1068.68 704.224 1068.81 704.146C1068.94 704.069 1069.04 703.969 1069.11 703.846C1069.19 703.718 1069.23 703.565 1069.23 703.388C1069.23 703.187 1069.19 703.023 1069.11 702.896C1069.03 702.763 1068.93 702.659 1068.79 702.581C1068.66 702.499 1068.51 702.442 1068.34 702.41C1068.16 702.378 1067.98 702.362 1067.79 702.362H1066.34V704.372ZM1077.7 707.312H1074.4L1073.76 709H1072.1L1075.3 701.036H1076.82L1080.01 709H1078.34L1077.7 707.312ZM1074.87 706.067H1077.22L1076.05 702.984L1074.87 706.067ZM1084.42 706.088H1082.86V709H1081.23V701.036H1084.33C1084.76 701.041 1085.16 701.091 1085.54 701.187C1085.93 701.282 1086.26 701.428 1086.54 701.624C1086.82 701.82 1087.05 702.071 1087.21 702.376C1087.38 702.677 1087.46 703.037 1087.46 703.456C1087.46 703.757 1087.42 704.021 1087.34 704.249C1087.26 704.477 1087.16 704.68 1087.02 704.857C1086.88 705.031 1086.72 705.183 1086.53 705.315C1086.34 705.448 1086.14 705.564 1085.91 705.664L1087.8 708.932V709H1086.04L1084.42 706.088ZM1082.86 704.775H1084.33C1084.54 704.771 1084.73 704.746 1084.91 704.7C1085.09 704.65 1085.25 704.577 1085.39 704.481C1085.52 704.381 1085.63 704.258 1085.71 704.112C1085.79 703.962 1085.83 703.784 1085.83 703.579C1085.83 703.369 1085.79 703.189 1085.71 703.039C1085.64 702.884 1085.53 702.759 1085.39 702.663C1085.26 702.563 1085.1 702.488 1084.92 702.438C1084.74 702.387 1084.54 702.362 1084.33 702.362H1082.86V704.775ZM1104.97 702.349H1102.13V709H1100.48V702.349H1097.68V701.036H1104.97V702.349ZM1113.1 705.459C1113.1 705.956 1113.02 706.425 1112.87 706.867C1112.71 707.309 1112.49 707.697 1112.2 708.029C1111.9 708.362 1111.55 708.626 1111.12 708.822C1110.7 709.014 1110.23 709.109 1109.69 709.109C1109.16 709.109 1108.68 709.014 1108.25 708.822C1107.83 708.626 1107.47 708.362 1107.18 708.029C1106.89 707.697 1106.66 707.309 1106.51 706.867C1106.35 706.425 1106.28 705.956 1106.28 705.459V704.591C1106.28 704.094 1106.35 703.625 1106.51 703.183C1106.66 702.741 1106.88 702.353 1107.17 702.021C1107.46 701.683 1107.82 701.417 1108.24 701.221C1108.66 701.025 1109.14 700.927 1109.68 700.927C1110.21 700.927 1110.69 701.025 1111.12 701.221C1111.54 701.417 1111.9 701.681 1112.19 702.014C1112.48 702.346 1112.7 702.736 1112.86 703.183C1113.02 703.625 1113.1 704.094 1113.1 704.591V705.459ZM1111.46 704.584C1111.46 704.288 1111.43 704.001 1111.36 703.723C1111.29 703.44 1111.19 703.189 1111.04 702.971C1110.9 702.752 1110.72 702.576 1110.49 702.444C1110.27 702.308 1110 702.239 1109.68 702.239C1109.36 702.239 1109.08 702.308 1108.86 702.444C1108.64 702.576 1108.45 702.754 1108.31 702.978C1108.18 703.196 1108.07 703.447 1108.01 703.729C1107.94 704.007 1107.91 704.292 1107.91 704.584V705.459C1107.91 705.751 1107.94 706.038 1108.01 706.32C1108.07 706.598 1108.18 706.849 1108.32 707.072C1108.46 707.291 1108.64 707.469 1108.87 707.605C1109.1 707.742 1109.37 707.811 1109.69 707.811C1110.01 707.811 1110.28 707.744 1110.51 707.612C1110.73 707.476 1110.91 707.298 1111.05 707.079C1111.2 706.856 1111.3 706.603 1111.36 706.32C1111.43 706.038 1111.46 705.751 1111.46 705.459V704.584ZM1126.46 706.088H1124.9V709H1123.27V701.036H1126.37C1126.8 701.041 1127.21 701.091 1127.58 701.187C1127.97 701.282 1128.3 701.428 1128.58 701.624C1128.86 701.82 1129.09 702.071 1129.25 702.376C1129.42 702.677 1129.5 703.037 1129.5 703.456C1129.5 703.757 1129.46 704.021 1129.38 704.249C1129.3 704.477 1129.2 704.68 1129.06 704.857C1128.92 705.031 1128.76 705.183 1128.57 705.315C1128.38 705.448 1128.18 705.564 1127.95 705.664L1129.84 708.932V709H1128.08L1126.46 706.088ZM1124.9 704.775H1126.37C1126.58 704.771 1126.77 704.746 1126.95 704.7C1127.13 704.65 1127.29 704.577 1127.43 704.481C1127.56 704.381 1127.67 704.258 1127.75 704.112C1127.83 703.962 1127.87 703.784 1127.87 703.579C1127.87 703.369 1127.83 703.189 1127.75 703.039C1127.68 702.884 1127.57 702.759 1127.43 702.663C1127.3 702.563 1127.14 702.488 1126.96 702.438C1126.78 702.387 1126.58 702.362 1126.37 702.362H1124.9V704.775ZM1137.4 705.527H1133.59V707.701H1138.02V709H1131.94V701.036H1138.01V702.349H1133.59V704.222H1137.4V705.527ZM1145.04 706.895C1145.05 706.708 1145 706.55 1144.9 706.423C1144.8 706.291 1144.67 706.179 1144.51 706.088C1144.35 705.997 1144.16 705.919 1143.94 705.855C1143.73 705.792 1143.51 705.732 1143.28 705.678C1142.88 705.577 1142.5 705.466 1142.14 705.343C1141.79 705.22 1141.47 705.067 1141.2 704.885C1140.93 704.698 1140.72 704.47 1140.56 704.201C1140.4 703.928 1140.32 703.593 1140.32 703.196C1140.32 702.813 1140.41 702.481 1140.59 702.198C1140.76 701.911 1141 701.674 1141.28 701.487C1141.57 701.3 1141.91 701.161 1142.27 701.07C1142.64 700.975 1143.02 700.927 1143.41 700.927C1143.83 700.927 1144.23 700.975 1144.61 701.07C1144.99 701.166 1145.32 701.314 1145.61 701.515C1145.9 701.715 1146.14 701.97 1146.31 702.28C1146.5 702.59 1146.6 702.962 1146.62 703.395H1144.97C1144.96 703.194 1144.92 703.019 1144.83 702.868C1144.75 702.718 1144.64 702.592 1144.49 702.492C1144.35 702.387 1144.18 702.31 1144 702.26C1143.81 702.205 1143.61 702.178 1143.41 702.178C1143.21 702.178 1143.02 702.198 1142.84 702.239C1142.66 702.28 1142.5 702.342 1142.36 702.424C1142.23 702.506 1142.12 702.608 1142.04 702.731C1141.95 702.854 1141.91 702.998 1141.91 703.162C1141.91 703.344 1141.96 703.497 1142.06 703.62C1142.17 703.743 1142.3 703.848 1142.47 703.935C1142.63 704.021 1142.83 704.094 1143.04 704.153C1143.26 704.213 1143.48 704.27 1143.71 704.324C1144.11 704.42 1144.48 704.534 1144.83 704.666C1145.19 704.794 1145.5 704.955 1145.77 705.151C1146.04 705.347 1146.25 705.584 1146.4 705.862C1146.56 706.14 1146.64 706.475 1146.64 706.867C1146.64 707.268 1146.54 707.61 1146.36 707.893C1146.18 708.175 1145.95 708.408 1145.64 708.59C1145.35 708.768 1145.01 708.9 1144.62 708.986C1144.24 709.068 1143.84 709.109 1143.44 709.109C1143.03 709.109 1142.63 709.066 1142.23 708.979C1141.83 708.888 1141.47 708.743 1141.15 708.542C1140.83 708.337 1140.57 708.073 1140.37 707.749C1140.16 707.425 1140.05 707.029 1140.03 706.56H1141.68C1141.68 706.806 1141.74 707.013 1141.84 707.182C1141.94 707.35 1142.08 707.487 1142.24 707.592C1142.41 707.692 1142.6 707.765 1142.81 707.811C1143.03 707.852 1143.25 707.872 1143.48 707.872C1143.68 707.872 1143.88 707.852 1144.07 707.811C1144.25 707.77 1144.42 707.71 1144.56 707.633C1144.7 707.551 1144.82 707.448 1144.91 707.325C1145 707.202 1145.04 707.059 1145.04 706.895ZM1155.42 702.349H1152.58V709H1150.93V702.349H1148.13V701.036H1155.42V702.349ZM1161.78 707.312H1158.48L1157.85 709H1156.19L1159.38 701.036H1160.9L1164.09 709H1162.43L1161.78 707.312ZM1158.95 706.067H1161.31L1160.13 702.984L1158.95 706.067ZM1168.5 706.088H1166.95V709H1165.31V701.036H1168.42C1168.84 701.041 1169.25 701.091 1169.62 701.187C1170.01 701.282 1170.34 701.428 1170.62 701.624C1170.91 701.82 1171.13 702.071 1171.29 702.376C1171.46 702.677 1171.54 703.037 1171.54 703.456C1171.54 703.757 1171.5 704.021 1171.42 704.249C1171.35 704.477 1171.24 704.68 1171.1 704.857C1170.96 705.031 1170.8 705.183 1170.61 705.315C1170.42 705.448 1170.22 705.564 1169.99 705.664L1171.88 708.932V709H1170.12L1168.5 706.088ZM1166.95 704.775H1168.42C1168.62 704.771 1168.81 704.746 1168.99 704.7C1169.17 704.65 1169.33 704.577 1169.47 704.481C1169.6 704.381 1169.71 704.258 1169.79 704.112C1169.87 703.962 1169.91 703.784 1169.91 703.579C1169.91 703.369 1169.87 703.189 1169.8 703.039C1169.72 702.884 1169.61 702.759 1169.47 702.663C1169.34 702.563 1169.19 702.488 1169 702.438C1168.82 702.387 1168.62 702.362 1168.42 702.362H1166.95V704.775ZM1180.64 702.349H1177.81V709H1176.15V702.349H1173.36V701.036H1180.64V702.349Z" fill="#EAEAEA"/>
<path d="M1025.06 518.258H1072.56V566.715H1025.06V518.258Z" fill="#D6D6D6"/>
<path d="M1073.43 571.466H1025.14C1022.47 571.466 1020.31 569.305 1020.31 566.636V518.337C1020.31 515.667 1022.47 513.507 1025.14 513.507H1073.43C1076.1 513.507 1078.26 515.667 1078.26 518.337V566.636C1078.26 569.305 1076.1 571.466 1073.43 571.466ZM1029.97 561.806H1068.6V523.167H1029.97V561.806Z" fill="#A2A4A2"/>
<path d="M1072.56 518.258H1121.02V566.715H1072.56V518.258Z" fill="#D6D6D6"/>
<path d="M1120.94 571.466H1072.64C1069.97 571.466 1067.81 569.305 1067.81 566.636V518.337C1067.81 515.667 1069.97 513.507 1072.64 513.507H1120.94C1123.61 513.507 1125.77 515.667 1125.77 518.337V566.636C1125.77 569.305 1123.61 571.466 1120.94 571.466ZM1077.47 561.806H1116.11V523.167H1077.47V561.806Z" fill="#A2A4A2"/>
<path d="M1072.56 470.751H1121.02V518.258H1072.56V470.751Z" fill="#D6D6D6"/>
<path d="M1026 632H1167.5V679.507H1026V632Z" fill="#D6D6D6"/>
<path d="M1120.94 523.959H1072.64C1069.97 523.959 1067.81 521.798 1067.81 519.129V470.83C1067.81 468.16 1069.97 466 1072.64 466H1120.94C1123.61 466 1125.77 468.16 1125.77 470.83V519.129C1125.77 521.798 1123.61 523.959 1120.94 523.959ZM1077.47 514.299H1116.11V475.66H1077.47V514.299Z" fill="#A2A4A2"/>
<path d="M1121.02 518.258H1168.53V566.715H1121.02V518.258Z" fill="#D6D6D6"/>
<path d="M1168.92 571.466H1120.98C1118.33 571.466 1116.18 569.322 1116.18 566.672V518.733C1116.18 516.083 1118.33 513.939 1120.98 513.939H1168.92C1171.57 513.939 1173.71 516.083 1173.71 518.733V566.672C1173.71 569.322 1171.57 571.466 1168.92 571.466ZM1125.77 561.878H1164.12V523.527H1125.77V561.878Z" fill="#A2A4A2"/>
<path d="M1058.66 553.99V531.414C1058.66 530.14 1057.2 529.412 1056.18 530.177L1041.13 541.465C1040.31 542.084 1040.31 543.321 1041.13 543.94L1056.18 555.228C1057.2 555.993 1058.66 555.265 1058.66 553.99Z" fill="#4F565E"/>
<path d="M1136.39 553.99V531.414C1136.39 530.14 1137.85 529.412 1138.86 530.177L1153.92 541.465C1154.74 542.084 1154.74 543.321 1153.92 543.94L1138.86 555.228C1137.84 555.993 1136.39 555.265 1136.39 553.99Z" fill="#4F565E"/>
<path d="M1085.2 533.114H1107.78C1109.05 533.114 1109.78 534.57 1109.02 535.589L1097.73 550.64C1097.11 551.465 1095.87 551.465 1095.25 550.64L1083.97 535.589C1083.2 534.57 1083.93 533.114 1085.2 533.114Z" fill="#4F565E"/>
<path d="M1085.2 503.32H1107.78C1109.05 503.32 1109.78 501.864 1109.02 500.845L1097.73 485.795C1097.11 484.969 1095.87 484.969 1095.25 485.795L1083.97 500.845C1083.2 501.865 1083.93 503.32 1085.2 503.32Z" fill="#4F565E"/>
<path d="M1161.17 685H1032.83C1025.74 685 1020 682.838 1020 680.167V631.833C1020 629.162 1025.74 627 1032.83 627H1161.17C1168.26 627 1174 629.162 1174 631.833V680.167C1174 682.838 1168.26 685 1161.17 685ZM1029.82 675.333H1164.18V656V636.667H1029.82V675.333Z" fill="#A2A4A2"/>
<g opacity="0.8">
<path d="M88.375 122.25H97.875V112.75H93.125V108H88.375V98.5H93.125V93.75H107.375V98.5H97.875V108H102.625V112.75H107.375V122.25H102.625V127H88.375V122.25ZM135.875 127V122.25H131.125V117.5H126.375V112.75H121.625V127H112.125V93.75H116.875V98.5H121.625V103.25H126.375V108H131.125V93.75H140.625V127H135.875ZM154.875 117.5V127H145.375V98.5H150.125V93.75H164.375V98.5H169.125V127H159.625V117.5H154.875ZM154.875 98.5V112.75H159.625V98.5H154.875ZM192.875 122.25H188.125V117.5H183.375V127H173.875V93.75H183.375V103.25H188.125V98.5H192.875V93.75H202.375V98.5H197.625V103.25H192.875V108H188.125V112.75H192.875V117.5H197.625V122.25H202.375V127H192.875V122.25ZM226.125 103.25V108H216.625V122.25H230.875V127H207.125V93.75H230.875V98.5H216.625V103.25H226.125ZM105 164.75H109.75V160H119.25V150.5H105V145.75H124V150.5H128.75V160H124V164.75H114.5V174.25H128.75V179H105V164.75ZM147.75 174.25V150.5H143V174.25H147.75ZM138.25 179V174.25H133.5V150.5H138.25V145.75H152.5V150.5H157.25V174.25H152.5V179H138.25ZM162 164.75H166.75V160H176.25V150.5H162V145.75H181V150.5H185.75V160H181V164.75H171.5V174.25H185.75V179H162V164.75ZM204.75 174.25V150.5H200V174.25H204.75ZM195.25 179V174.25H190.5V150.5H195.25V145.75H209.5V150.5H214.25V174.25H209.5V179H195.25Z" fill="#B2BD08"/>
<path d="M110.707 646.49L110.777 647.642C110.959 647.231 111.208 646.909 111.524 646.675C111.847 646.435 112.236 646.314 112.693 646.314C113.461 646.314 113.962 646.651 114.196 647.325C114.384 647.009 114.621 646.763 114.908 646.587C115.201 646.405 115.553 646.314 115.963 646.314C116.25 646.314 116.517 646.367 116.763 646.473C117.015 646.578 117.231 646.748 117.413 646.982C117.601 647.211 117.744 647.51 117.844 647.879C117.949 648.242 118.002 648.688 118.002 649.215V656H115.778V649.206C115.778 649.024 115.758 648.875 115.717 648.758C115.682 648.641 115.632 648.55 115.567 648.485C115.503 648.415 115.427 648.368 115.339 648.345C115.257 648.315 115.172 648.301 115.084 648.301C114.914 648.301 114.771 648.342 114.653 648.424C114.536 648.5 114.445 648.605 114.381 648.74V656H112.228V649.197C112.228 649.016 112.21 648.866 112.175 648.749C112.14 648.632 112.09 648.541 112.025 648.477C111.967 648.412 111.896 648.368 111.814 648.345C111.732 648.315 111.645 648.301 111.551 648.301C111.363 648.301 111.211 648.354 111.094 648.459C110.982 648.564 110.895 648.705 110.83 648.881V656H108.606V646.49H110.707ZM125.938 656C125.88 655.883 125.83 655.748 125.789 655.596C125.748 655.443 125.713 655.282 125.684 655.112C125.549 655.259 125.394 655.396 125.218 655.525C125.042 655.654 124.846 655.769 124.629 655.868C124.418 655.962 124.184 656.035 123.926 656.088C123.668 656.146 123.39 656.176 123.091 656.176C122.604 656.176 122.156 656.105 121.746 655.965C121.342 655.824 120.993 655.628 120.7 655.376C120.407 655.124 120.179 654.825 120.015 654.479C119.851 654.128 119.769 653.747 119.769 653.337C119.769 652.335 120.141 651.562 120.885 651.017C121.635 650.466 122.751 650.19 124.233 650.19H125.596V649.628C125.596 649.171 125.446 648.811 125.147 648.547C124.849 648.277 124.418 648.143 123.855 648.143C123.357 648.143 122.994 648.251 122.766 648.468C122.537 648.679 122.423 648.963 122.423 649.32H119.979C119.979 648.916 120.067 648.532 120.243 648.169C120.425 647.806 120.686 647.486 121.025 647.211C121.371 646.936 121.79 646.719 122.282 646.561C122.78 646.396 123.349 646.314 123.987 646.314C124.562 646.314 125.095 646.385 125.587 646.525C126.085 646.666 126.516 646.874 126.879 647.149C127.242 647.425 127.526 647.773 127.731 648.195C127.937 648.611 128.039 649.095 128.039 649.646V653.724C128.039 654.233 128.071 654.655 128.136 654.989C128.2 655.323 128.294 655.61 128.417 655.851V656H125.938ZM123.609 654.286C123.855 654.286 124.084 654.257 124.295 654.198C124.506 654.14 124.696 654.063 124.866 653.97C125.036 653.876 125.183 653.771 125.306 653.653C125.429 653.53 125.525 653.407 125.596 653.284V651.649H124.348C123.967 651.649 123.642 651.688 123.372 651.764C123.103 651.834 122.883 651.937 122.713 652.071C122.543 652.2 122.417 652.358 122.335 652.546C122.253 652.728 122.212 652.927 122.212 653.144C122.212 653.472 122.326 653.744 122.555 653.961C122.789 654.178 123.141 654.286 123.609 654.286ZM130.553 651.175C130.553 650.454 130.635 649.795 130.799 649.197C130.969 648.6 131.215 648.087 131.537 647.659C131.859 647.231 132.249 646.9 132.706 646.666C133.169 646.432 133.696 646.314 134.288 646.314C134.786 646.314 135.223 646.405 135.598 646.587C135.979 646.763 136.315 647.015 136.608 647.343V642.5H139.061V656H136.854L136.731 655.007C136.433 655.376 136.081 655.663 135.677 655.868C135.272 656.073 134.804 656.176 134.271 656.176C133.69 656.176 133.169 656.056 132.706 655.815C132.249 655.569 131.859 655.232 131.537 654.805C131.221 654.377 130.978 653.87 130.808 653.284C130.638 652.692 130.553 652.051 130.553 651.359V651.175ZM132.996 651.359C132.996 651.758 133.028 652.13 133.093 652.476C133.163 652.815 133.274 653.114 133.427 653.372C133.579 653.624 133.775 653.823 134.016 653.97C134.256 654.116 134.549 654.189 134.895 654.189C135.316 654.189 135.665 654.099 135.94 653.917C136.222 653.735 136.444 653.486 136.608 653.17V649.32C136.444 648.998 136.225 648.749 135.949 648.573C135.674 648.392 135.328 648.301 134.912 648.301C134.566 648.301 134.271 648.377 134.024 648.529C133.784 648.676 133.588 648.881 133.436 649.145C133.283 649.402 133.172 649.707 133.102 650.059C133.031 650.404 132.996 650.776 132.996 651.175V651.359ZM146.232 656.176C145.5 656.176 144.835 656.056 144.237 655.815C143.64 655.575 143.127 655.25 142.699 654.84C142.271 654.424 141.94 653.938 141.706 653.381C141.478 652.818 141.363 652.218 141.363 651.579V651.228C141.363 650.501 141.478 649.839 141.706 649.241C141.935 648.638 142.254 648.119 142.664 647.686C143.074 647.252 143.561 646.915 144.123 646.675C144.686 646.435 145.298 646.314 145.96 646.314C146.646 646.314 147.255 646.429 147.788 646.657C148.327 646.88 148.781 647.196 149.15 647.606C149.525 648.017 149.81 648.512 150.003 649.092C150.196 649.666 150.293 650.302 150.293 650.999V652.036H143.842C143.889 652.358 143.982 652.654 144.123 652.924C144.27 653.188 144.454 653.416 144.677 653.609C144.899 653.803 145.154 653.952 145.441 654.058C145.729 654.163 146.042 654.216 146.382 654.216C146.622 654.216 146.859 654.192 147.094 654.146C147.334 654.099 147.562 654.031 147.779 653.943C147.996 653.85 148.198 653.735 148.386 653.601C148.573 653.466 148.737 653.308 148.878 653.126L150.1 654.444C149.947 654.661 149.748 654.875 149.502 655.086C149.262 655.291 148.975 655.476 148.641 655.64C148.312 655.798 147.946 655.927 147.542 656.026C147.138 656.126 146.701 656.176 146.232 656.176ZM145.942 648.292C145.667 648.292 145.415 648.342 145.187 648.441C144.958 648.535 144.756 648.673 144.58 648.854C144.41 649.036 144.267 649.253 144.149 649.505C144.032 649.757 143.944 650.038 143.886 650.349H147.894V650.155C147.882 649.897 147.832 649.654 147.744 649.426C147.656 649.197 147.53 649.001 147.366 648.837C147.202 648.667 147 648.535 146.76 648.441C146.525 648.342 146.253 648.292 145.942 648.292ZM169.321 653.021L170.147 646.49H172.389L170.684 656H168.539L167.291 649.953L166.087 656H163.942L162.237 646.49H164.47L165.296 653.047L166.491 646.49H168.126L169.321 653.021ZM174.7 646.49H179.877V654.014H182.452V656H174.7V654.014H177.407V648.485H174.7V646.49ZM177.231 644.056C177.231 643.868 177.264 643.695 177.328 643.537C177.398 643.373 177.495 643.235 177.618 643.124C177.741 643.007 177.888 642.916 178.058 642.852C178.233 642.787 178.427 642.755 178.638 642.755C179.071 642.755 179.414 642.878 179.666 643.124C179.924 643.364 180.053 643.675 180.053 644.056C180.053 644.437 179.924 644.75 179.666 644.996C179.414 645.236 179.071 645.356 178.638 645.356C178.427 645.356 178.233 645.324 178.058 645.26C177.888 645.195 177.741 645.107 177.618 644.996C177.495 644.879 177.398 644.741 177.328 644.583C177.264 644.419 177.231 644.243 177.231 644.056ZM189.343 644.161V646.49H192.894V648.292H189.343V652.379C189.343 652.725 189.381 653.015 189.457 653.249C189.539 653.478 189.653 653.662 189.8 653.803C189.946 653.938 190.122 654.034 190.327 654.093C190.538 654.151 190.772 654.181 191.03 654.181C191.218 654.181 191.408 654.172 191.602 654.154C191.801 654.137 191.988 654.116 192.164 654.093C192.346 654.063 192.513 654.034 192.665 654.005C192.823 653.976 192.958 653.946 193.069 653.917L193.307 655.596C193.137 655.695 192.938 655.783 192.709 655.859C192.48 655.93 192.237 655.988 191.979 656.035C191.722 656.082 191.452 656.117 191.171 656.141C190.896 656.17 190.623 656.185 190.354 656.185C189.832 656.185 189.357 656.117 188.93 655.982C188.508 655.842 188.145 655.628 187.84 655.341C187.541 655.048 187.31 654.679 187.146 654.233C186.981 653.782 186.899 653.243 186.899 652.616V648.292H184.729V646.49H186.899V644.161H189.343ZM198.114 647.8C198.431 647.337 198.814 646.974 199.266 646.71C199.723 646.446 200.232 646.314 200.795 646.314C201.293 646.314 201.75 646.391 202.166 646.543C202.582 646.689 202.939 646.921 203.238 647.237C203.537 647.554 203.769 647.961 203.933 648.459C204.103 648.951 204.188 649.546 204.188 650.243V656H201.744V650.226C201.744 649.886 201.7 649.593 201.612 649.347C201.53 649.101 201.41 648.901 201.252 648.749C201.094 648.597 200.903 648.485 200.681 648.415C200.458 648.339 200.206 648.301 199.925 648.301C199.515 648.301 199.157 648.374 198.853 648.521C198.554 648.667 198.308 648.872 198.114 649.136V656H195.671V642.5H198.114V647.8ZM125.912 666.5H131.229V678.014H133.954V680H125.912V678.014H128.76V668.495H125.912V666.5ZM135.879 675.157C135.879 674.466 135.979 673.827 136.178 673.241C136.377 672.649 136.667 672.137 137.048 671.703C137.435 671.27 137.903 670.93 138.454 670.684C139.011 670.438 139.646 670.314 140.361 670.314C141.076 670.314 141.712 670.438 142.269 670.684C142.825 670.93 143.294 671.27 143.675 671.703C144.062 672.137 144.354 672.649 144.554 673.241C144.753 673.827 144.853 674.466 144.853 675.157V675.342C144.853 676.039 144.753 676.684 144.554 677.275C144.354 677.861 144.064 678.371 143.684 678.805C143.303 679.238 142.834 679.578 142.277 679.824C141.721 680.064 141.088 680.185 140.379 680.185C139.664 680.185 139.025 680.064 138.463 679.824C137.906 679.578 137.435 679.238 137.048 678.805C136.667 678.371 136.377 677.861 136.178 677.275C135.979 676.684 135.879 676.039 135.879 675.342V675.157ZM138.322 675.342C138.322 675.74 138.36 676.115 138.437 676.467C138.513 676.812 138.633 677.117 138.797 677.381C138.961 677.639 139.172 677.844 139.43 677.996C139.693 678.148 140.01 678.225 140.379 678.225C140.736 678.225 141.044 678.148 141.302 677.996C141.56 677.844 141.768 677.639 141.926 677.381C142.09 677.117 142.21 676.812 142.286 676.467C142.362 676.115 142.4 675.74 142.4 675.342V675.157C142.4 674.771 142.362 674.404 142.286 674.059C142.21 673.713 142.09 673.408 141.926 673.145C141.768 672.881 141.56 672.673 141.302 672.521C141.044 672.368 140.73 672.292 140.361 672.292C139.998 672.292 139.688 672.368 139.43 672.521C139.172 672.673 138.961 672.881 138.797 673.145C138.633 673.408 138.513 673.713 138.437 674.059C138.36 674.404 138.322 674.771 138.322 675.157V675.342ZM151.066 677.179L151.189 677.864L151.312 677.205L153.404 670.49H155.953L152.341 680H150.047L146.417 670.49H148.966L151.066 677.179ZM162.448 680.176C161.716 680.176 161.051 680.056 160.453 679.815C159.855 679.575 159.343 679.25 158.915 678.84C158.487 678.424 158.156 677.938 157.922 677.381C157.693 676.818 157.579 676.218 157.579 675.579V675.228C157.579 674.501 157.693 673.839 157.922 673.241C158.15 672.638 158.47 672.119 158.88 671.686C159.29 671.252 159.776 670.915 160.339 670.675C160.901 670.435 161.514 670.314 162.176 670.314C162.861 670.314 163.471 670.429 164.004 670.657C164.543 670.88 164.997 671.196 165.366 671.606C165.741 672.017 166.025 672.512 166.219 673.092C166.412 673.666 166.509 674.302 166.509 674.999V676.036H160.058C160.104 676.358 160.198 676.654 160.339 676.924C160.485 677.188 160.67 677.416 160.893 677.609C161.115 677.803 161.37 677.952 161.657 678.058C161.944 678.163 162.258 678.216 162.598 678.216C162.838 678.216 163.075 678.192 163.31 678.146C163.55 678.099 163.778 678.031 163.995 677.943C164.212 677.85 164.414 677.735 164.602 677.601C164.789 677.466 164.953 677.308 165.094 677.126L166.315 678.444C166.163 678.661 165.964 678.875 165.718 679.086C165.478 679.291 165.19 679.476 164.856 679.64C164.528 679.798 164.162 679.927 163.758 680.026C163.354 680.126 162.917 680.176 162.448 680.176ZM162.158 672.292C161.883 672.292 161.631 672.342 161.402 672.441C161.174 672.535 160.972 672.673 160.796 672.854C160.626 673.036 160.482 673.253 160.365 673.505C160.248 673.757 160.16 674.038 160.102 674.349H164.109V674.155C164.098 673.897 164.048 673.654 163.96 673.426C163.872 673.197 163.746 673.001 163.582 672.837C163.418 672.667 163.216 672.535 162.976 672.441C162.741 672.342 162.469 672.292 162.158 672.292ZM188.024 675.342C188.024 676.051 187.945 676.701 187.787 677.293C187.635 677.885 187.403 678.395 187.093 678.822C186.782 679.25 186.396 679.584 185.933 679.824C185.47 680.059 184.931 680.176 184.315 680.176C183.759 680.176 183.275 680.073 182.865 679.868C182.461 679.657 182.112 679.364 181.819 678.989L181.705 680H179.508V666.5H181.951V671.352C182.232 671.023 182.563 670.769 182.944 670.587C183.331 670.405 183.782 670.314 184.298 670.314C184.919 670.314 185.461 670.435 185.924 670.675C186.393 670.915 186.782 671.249 187.093 671.677C187.403 672.104 187.635 672.617 187.787 673.215C187.945 673.807 188.024 674.454 188.024 675.157V675.342ZM185.581 675.157C185.581 674.771 185.552 674.404 185.493 674.059C185.435 673.713 185.332 673.411 185.186 673.153C185.045 672.89 184.852 672.682 184.605 672.529C184.359 672.377 184.052 672.301 183.683 672.301C183.237 672.301 182.874 672.395 182.593 672.582C182.317 672.77 182.104 673.027 181.951 673.355V677.144C182.104 677.472 182.317 677.729 182.593 677.917C182.874 678.104 183.243 678.198 183.7 678.198C184.069 678.198 184.374 678.128 184.614 677.987C184.854 677.841 185.045 677.642 185.186 677.39C185.332 677.132 185.435 676.83 185.493 676.484C185.552 676.133 185.581 675.752 185.581 675.342V675.157ZM194.317 676.01L194.599 677.029L197.13 670.49H199.828L195.003 681.424C194.897 681.664 194.76 681.925 194.59 682.206C194.426 682.487 194.218 682.748 193.966 682.988C193.714 683.229 193.406 683.431 193.043 683.595C192.686 683.759 192.261 683.841 191.769 683.841C191.651 683.841 191.543 683.835 191.443 683.823C191.344 683.817 191.247 683.806 191.153 683.788C191.06 683.776 190.966 683.759 190.872 683.735C190.784 683.718 190.688 683.694 190.582 683.665L190.881 681.802C190.98 681.802 191.106 681.805 191.259 681.811C191.417 681.822 191.543 681.828 191.637 681.828C191.83 681.828 192 681.77 192.146 681.652C192.299 681.535 192.428 681.406 192.533 681.266C192.639 681.125 192.724 680.996 192.788 680.879C192.853 680.762 192.896 680.703 192.92 680.703L193.509 679.596L189.483 670.49H192.155L194.317 676.01ZM74.3203 705.099H72.0439L76.834 691.203H79.1104L74.3203 705.099ZM85.1309 705.099H82.8545L87.6445 691.203H89.9209L85.1309 705.099ZM95.5283 702.005H101.522V704H93.0498V691.203H95.5283V702.005ZM112.219 691.203L112.228 699.685C112.228 700.399 112.128 701.035 111.929 701.592C111.735 702.148 111.451 702.62 111.076 703.007C110.707 703.388 110.253 703.678 109.714 703.877C109.181 704.076 108.571 704.176 107.886 704.176C107.241 704.176 106.658 704.076 106.137 703.877C105.621 703.678 105.179 703.388 104.81 703.007C104.44 702.626 104.153 702.157 103.948 701.601C103.749 701.038 103.649 700.399 103.649 699.685L103.658 691.203H106.128L106.137 699.685C106.143 700.511 106.292 701.135 106.585 701.557C106.884 701.979 107.317 702.189 107.886 702.189C108.489 702.189 108.949 701.979 109.266 701.557C109.588 701.135 109.752 700.511 109.758 699.685L109.767 691.203H112.219ZM117.132 699.307V704H114.662V691.203H119.039C119.736 691.203 120.366 691.306 120.929 691.511C121.491 691.71 121.969 691.991 122.361 692.354C122.76 692.712 123.064 693.143 123.275 693.646C123.492 694.15 123.601 694.71 123.601 695.325C123.601 695.899 123.492 696.43 123.275 696.916C123.064 697.402 122.76 697.824 122.361 698.182C121.969 698.533 121.491 698.809 120.929 699.008C120.366 699.207 119.736 699.307 119.039 699.307H117.132ZM117.132 697.303H119.039C119.391 697.303 119.695 697.25 119.953 697.145C120.211 697.039 120.425 696.896 120.595 696.714C120.771 696.532 120.899 696.324 120.981 696.09C121.069 695.85 121.113 695.601 121.113 695.343C121.113 695.044 121.069 694.766 120.981 694.508C120.899 694.25 120.771 694.024 120.595 693.831C120.425 693.638 120.211 693.485 119.953 693.374C119.695 693.263 119.391 693.207 119.039 693.207H117.132V697.303ZM134.244 698.542C134.244 699.362 134.136 700.118 133.919 700.81C133.702 701.501 133.389 702.096 132.979 702.594C132.568 703.092 132.067 703.481 131.476 703.763C130.89 704.038 130.228 704.176 129.489 704.176C128.751 704.176 128.095 704.038 127.521 703.763C126.946 703.481 126.463 703.092 126.07 702.594C125.678 702.09 125.379 701.495 125.174 700.81C124.969 700.118 124.866 699.362 124.866 698.542V696.679C124.866 695.858 124.969 695.103 125.174 694.411C125.379 693.72 125.678 693.125 126.07 692.627C126.463 692.123 126.943 691.73 127.512 691.449C128.086 691.168 128.742 691.027 129.48 691.027C130.225 691.027 130.89 691.168 131.476 691.449C132.067 691.73 132.568 692.123 132.979 692.627C133.389 693.125 133.702 693.72 133.919 694.411C134.136 695.103 134.244 695.858 134.244 696.679V698.542ZM131.739 696.661C131.739 696.14 131.695 695.659 131.607 695.22C131.525 694.78 131.394 694.402 131.212 694.086C131.03 693.77 130.796 693.523 130.509 693.348C130.228 693.166 129.885 693.075 129.48 693.075C129.082 693.075 128.748 693.166 128.479 693.348C128.209 693.523 127.992 693.77 127.828 694.086C127.664 694.402 127.547 694.78 127.477 695.22C127.406 695.659 127.371 696.14 127.371 696.661V698.542C127.371 699.058 127.406 699.535 127.477 699.975C127.547 700.414 127.664 700.795 127.828 701.117C127.992 701.439 128.209 701.691 128.479 701.873C128.748 702.055 129.085 702.146 129.489 702.146C129.888 702.146 130.228 702.055 130.509 701.873C130.796 701.691 131.027 701.442 131.203 701.126C131.385 700.804 131.52 700.423 131.607 699.983C131.695 699.544 131.739 699.063 131.739 698.542V696.661ZM145.011 699.992C144.97 700.637 144.829 701.217 144.589 701.732C144.354 702.248 144.038 702.688 143.64 703.051C143.241 703.414 142.767 703.695 142.216 703.895C141.665 704.088 141.056 704.185 140.388 704.185C139.632 704.185 138.961 704.047 138.375 703.771C137.789 703.49 137.297 703.101 136.898 702.603C136.5 702.099 136.195 701.495 135.984 700.792C135.773 700.089 135.668 699.315 135.668 698.472V696.749C135.668 695.899 135.779 695.123 136.002 694.42C136.225 693.717 136.541 693.113 136.951 692.609C137.361 692.105 137.856 691.716 138.437 691.44C139.022 691.159 139.679 691.019 140.405 691.019C141.108 691.019 141.732 691.118 142.277 691.317C142.828 691.517 143.297 691.801 143.684 692.17C144.07 692.539 144.375 692.99 144.598 693.523C144.82 694.057 144.961 694.657 145.02 695.325H142.559C142.535 694.944 142.477 694.61 142.383 694.323C142.295 694.036 142.163 693.799 141.987 693.611C141.817 693.418 141.601 693.274 141.337 693.181C141.079 693.081 140.769 693.031 140.405 693.031C140.024 693.031 139.693 693.113 139.412 693.277C139.131 693.441 138.896 693.682 138.709 693.998C138.527 694.314 138.393 694.704 138.305 695.167C138.217 695.624 138.173 696.146 138.173 696.731V698.472C138.173 699.731 138.349 700.663 138.7 701.267C139.058 701.87 139.62 702.172 140.388 702.172C141.032 702.172 141.542 702.002 141.917 701.662C142.292 701.316 142.5 700.76 142.541 699.992H145.011ZM155.865 698.542C155.865 699.362 155.757 700.118 155.54 700.81C155.323 701.501 155.01 702.096 154.6 702.594C154.189 703.092 153.688 703.481 153.097 703.763C152.511 704.038 151.849 704.176 151.11 704.176C150.372 704.176 149.716 704.038 149.142 703.763C148.567 703.481 148.084 703.092 147.691 702.594C147.299 702.09 147 701.495 146.795 700.81C146.59 700.118 146.487 699.362 146.487 698.542V696.679C146.487 695.858 146.59 695.103 146.795 694.411C147 693.72 147.299 693.125 147.691 692.627C148.084 692.123 148.564 691.73 149.133 691.449C149.707 691.168 150.363 691.027 151.102 691.027C151.846 691.027 152.511 691.168 153.097 691.449C153.688 691.73 154.189 692.123 154.6 692.627C155.01 693.125 155.323 693.72 155.54 694.411C155.757 695.103 155.865 695.858 155.865 696.679V698.542ZM153.36 696.661C153.36 696.14 153.316 695.659 153.229 695.22C153.146 694.78 153.015 694.402 152.833 694.086C152.651 693.77 152.417 693.523 152.13 693.348C151.849 693.166 151.506 693.075 151.102 693.075C150.703 693.075 150.369 693.166 150.1 693.348C149.83 693.523 149.613 693.77 149.449 694.086C149.285 694.402 149.168 694.78 149.098 695.22C149.027 695.659 148.992 696.14 148.992 696.661V698.542C148.992 699.058 149.027 699.535 149.098 699.975C149.168 700.414 149.285 700.795 149.449 701.117C149.613 701.439 149.83 701.691 150.1 701.873C150.369 702.055 150.706 702.146 151.11 702.146C151.509 702.146 151.849 702.055 152.13 701.873C152.417 701.691 152.648 701.442 152.824 701.126C153.006 700.804 153.141 700.423 153.229 699.983C153.316 699.544 153.36 699.063 153.36 698.542V696.661ZM162.088 699.219H160.216V704H157.746V691.203H162.035C162.744 691.203 163.386 691.288 163.96 691.458C164.534 691.622 165.023 691.865 165.428 692.188C165.838 692.51 166.151 692.911 166.368 693.392C166.591 693.872 166.702 694.429 166.702 695.062C166.702 695.519 166.646 695.932 166.535 696.301C166.43 696.664 166.274 696.992 166.069 697.285C165.87 697.572 165.627 697.824 165.34 698.041C165.059 698.258 164.742 698.445 164.391 698.604L167.142 703.886V704H164.496L162.088 699.219ZM160.216 697.215H162.044C162.741 697.215 163.277 697.039 163.652 696.688C164.033 696.33 164.224 695.844 164.224 695.229C164.224 694.59 164.039 694.095 163.67 693.743C163.301 693.386 162.756 693.207 162.035 693.207H160.216V697.215ZM168.504 704V691.203H171.817C172.667 691.203 173.435 691.35 174.12 691.643C174.812 691.93 175.4 692.334 175.887 692.855C176.379 693.371 176.757 693.989 177.021 694.71C177.29 695.431 177.425 696.222 177.425 697.083V698.138C177.425 698.999 177.29 699.79 177.021 700.511C176.757 701.226 176.385 701.844 175.904 702.365C175.424 702.881 174.847 703.282 174.173 703.569C173.499 703.856 172.755 704 171.94 704H168.504ZM170.991 693.207V702.014H171.94C172.403 702.014 172.816 701.926 173.18 701.75C173.549 701.574 173.859 701.319 174.111 700.985C174.369 700.651 174.565 700.247 174.7 699.772C174.835 699.292 174.902 698.747 174.902 698.138V697.065C174.902 696.491 174.835 695.97 174.7 695.501C174.571 695.026 174.375 694.619 174.111 694.279C173.854 693.939 173.531 693.676 173.145 693.488C172.764 693.301 172.321 693.207 171.817 693.207H170.991ZM187.242 698.393H181.986V702.005H188.13V704H179.508V691.203H188.104V693.216H181.986V696.441H187.242V698.393ZM194.52 699.219H192.647V704H190.178V691.203H194.467C195.176 691.203 195.817 691.288 196.392 691.458C196.966 691.622 197.455 691.865 197.859 692.188C198.27 692.51 198.583 692.911 198.8 693.392C199.022 693.872 199.134 694.429 199.134 695.062C199.134 695.519 199.078 695.932 198.967 696.301C198.861 696.664 198.706 696.992 198.501 697.285C198.302 697.572 198.059 697.824 197.771 698.041C197.49 698.258 197.174 698.445 196.822 698.604L199.573 703.886V704H196.928L194.52 699.219ZM192.647 697.215H194.476C195.173 697.215 195.709 697.039 196.084 696.688C196.465 696.33 196.655 695.844 196.655 695.229C196.655 694.59 196.471 694.095 196.102 693.743C195.732 693.386 195.188 693.207 194.467 693.207H192.647V697.215ZM209.918 698.542C209.918 699.362 209.81 700.118 209.593 700.81C209.376 701.501 209.062 702.096 208.652 702.594C208.242 703.092 207.741 703.481 207.149 703.763C206.563 704.038 205.901 704.176 205.163 704.176C204.425 704.176 203.769 704.038 203.194 703.763C202.62 703.481 202.137 703.092 201.744 702.594C201.352 702.09 201.053 701.495 200.848 700.81C200.643 700.118 200.54 699.362 200.54 698.542V696.679C200.54 695.858 200.643 695.103 200.848 694.411C201.053 693.72 201.352 693.125 201.744 692.627C202.137 692.123 202.617 691.73 203.186 691.449C203.76 691.168 204.416 691.027 205.154 691.027C205.898 691.027 206.563 691.168 207.149 691.449C207.741 691.73 208.242 692.123 208.652 692.627C209.062 693.125 209.376 693.72 209.593 694.411C209.81 695.103 209.918 695.858 209.918 696.679V698.542ZM207.413 696.661C207.413 696.14 207.369 695.659 207.281 695.22C207.199 694.78 207.067 694.402 206.886 694.086C206.704 693.77 206.47 693.523 206.183 693.348C205.901 693.166 205.559 693.075 205.154 693.075C204.756 693.075 204.422 693.166 204.152 693.348C203.883 693.523 203.666 693.77 203.502 694.086C203.338 694.402 203.221 694.78 203.15 695.22C203.08 695.659 203.045 696.14 203.045 696.661V698.542C203.045 699.058 203.08 699.535 203.15 699.975C203.221 700.414 203.338 700.795 203.502 701.117C203.666 701.439 203.883 701.691 204.152 701.873C204.422 702.055 204.759 702.146 205.163 702.146C205.562 702.146 205.901 702.055 206.183 701.873C206.47 701.691 206.701 701.442 206.877 701.126C207.059 700.804 207.193 700.423 207.281 699.983C207.369 699.544 207.413 699.063 207.413 698.542V696.661ZM214.356 702.585C214.356 702.356 214.395 702.146 214.471 701.952C214.547 701.753 214.658 701.583 214.805 701.442C214.951 701.296 215.13 701.182 215.341 701.1C215.552 701.012 215.789 700.968 216.053 700.968C216.316 700.968 216.554 701.012 216.765 701.1C216.976 701.182 217.151 701.296 217.292 701.442C217.438 701.583 217.55 701.753 217.626 701.952C217.708 702.146 217.749 702.356 217.749 702.585C217.749 702.808 217.708 703.016 217.626 703.209C217.55 703.402 217.438 703.572 217.292 703.719C217.151 703.859 216.976 703.971 216.765 704.053C216.554 704.135 216.316 704.176 216.053 704.176C215.789 704.176 215.552 704.135 215.341 704.053C215.13 703.971 214.951 703.859 214.805 703.719C214.658 703.572 214.547 703.402 214.471 703.209C214.395 703.016 214.356 702.808 214.356 702.585ZM231.495 699.992C231.454 700.637 231.313 701.217 231.073 701.732C230.839 702.248 230.522 702.688 230.124 703.051C229.726 703.414 229.251 703.695 228.7 703.895C228.149 704.088 227.54 704.185 226.872 704.185C226.116 704.185 225.445 704.047 224.859 703.771C224.273 703.49 223.781 703.101 223.383 702.603C222.984 702.099 222.68 701.495 222.469 700.792C222.258 700.089 222.152 699.315 222.152 698.472V696.749C222.152 695.899 222.264 695.123 222.486 694.42C222.709 693.717 223.025 693.113 223.436 692.609C223.846 692.105 224.341 691.716 224.921 691.44C225.507 691.159 226.163 691.019 226.89 691.019C227.593 691.019 228.217 691.118 228.762 691.317C229.312 691.517 229.781 691.801 230.168 692.17C230.555 692.539 230.859 692.99 231.082 693.523C231.305 694.057 231.445 694.657 231.504 695.325H229.043C229.02 694.944 228.961 694.61 228.867 694.323C228.779 694.036 228.647 693.799 228.472 693.611C228.302 693.418 228.085 693.274 227.821 693.181C227.563 693.081 227.253 693.031 226.89 693.031C226.509 693.031 226.178 693.113 225.896 693.277C225.615 693.441 225.381 693.682 225.193 693.998C225.012 694.314 224.877 694.704 224.789 695.167C224.701 695.624 224.657 696.146 224.657 696.731V698.472C224.657 699.731 224.833 700.663 225.185 701.267C225.542 701.87 226.104 702.172 226.872 702.172C227.517 702.172 228.026 702.002 228.401 701.662C228.776 701.316 228.984 700.76 229.025 699.992H231.495ZM242.35 698.542C242.35 699.362 242.241 700.118 242.024 700.81C241.808 701.501 241.494 702.096 241.084 702.594C240.674 703.092 240.173 703.481 239.581 703.763C238.995 704.038 238.333 704.176 237.595 704.176C236.856 704.176 236.2 704.038 235.626 703.763C235.052 703.481 234.568 703.092 234.176 702.594C233.783 702.09 233.484 701.495 233.279 700.81C233.074 700.118 232.972 699.362 232.972 698.542V696.679C232.972 695.858 233.074 695.103 233.279 694.411C233.484 693.72 233.783 693.125 234.176 692.627C234.568 692.123 235.049 691.73 235.617 691.449C236.191 691.168 236.848 691.027 237.586 691.027C238.33 691.027 238.995 691.168 239.581 691.449C240.173 691.73 240.674 692.123 241.084 692.627C241.494 693.125 241.808 693.72 242.024 694.411C242.241 695.103 242.35 695.858 242.35 696.679V698.542ZM239.845 696.661C239.845 696.14 239.801 695.659 239.713 695.22C239.631 694.78 239.499 694.402 239.317 694.086C239.136 693.77 238.901 693.523 238.614 693.348C238.333 693.166 237.99 693.075 237.586 693.075C237.188 693.075 236.854 693.166 236.584 693.348C236.314 693.523 236.098 693.77 235.934 694.086C235.77 694.402 235.652 694.78 235.582 695.22C235.512 695.659 235.477 696.14 235.477 696.661V698.542C235.477 699.058 235.512 699.535 235.582 699.975C235.652 700.414 235.77 700.795 235.934 701.117C236.098 701.439 236.314 701.691 236.584 701.873C236.854 702.055 237.19 702.146 237.595 702.146C237.993 702.146 238.333 702.055 238.614 701.873C238.901 701.691 239.133 701.442 239.309 701.126C239.49 700.804 239.625 700.423 239.713 699.983C239.801 699.544 239.845 699.063 239.845 698.542V696.661ZM247.263 691.203L248.476 696.011L249.855 691.203H252.923V704H250.655V700.212L250.761 694.227L249.082 699.781H247.86L246.357 694.464L246.463 700.212V704H244.195V691.203H247.263Z" fill="#EAEAEA"/>
</g>
</g>
<defs>
<filter id="filter0_d" x="603.637" y="-162.72" width="43.4614" height="208.359" filterUnits="userSpaceOnUse" color-interpolation-filters="sRGB">
<feFlood flood-opacity="0" result="BackgroundImageFix"/>
<feColorMatrix in="SourceAlpha" type="matrix" values="0 0 0 0 0 0 0 0 0 0 0 0 0 0 0 0 0 0 127 0"/>
<feOffset dy="4"/>
<feGaussianBlur stdDeviation="3"/>
<feColorMatrix type="matrix" values="0 0 0 0 0 0 0 0 0 0 0 0 0 0 0 0 0 0 0.25 0"/>
<feBlend mode="normal" in2="BackgroundImageFix" result="effect1_dropShadow"/>
<feBlend mode="normal" in="SourceGraphic" in2="effect1_dropShadow" result="shape"/>
</filter>
<linearGradient id="paint0_linear" x1="635.326" y1="-223.663" x2="635.326" y2="1608.94" gradientUnits="userSpaceOnUse">
<stop offset="0.605422" stop-color="#4F565E"/>
<stop offset="1" stop-color="#59616A"/>
</linearGradient>
<clipPath id="clip0">
<rect width="1253.61" height="792" fill="white"/>
</clipPath>
</defs>
</svg>
