<svg width="1254" height="792" viewBox="0 0 1254 792" fill="none" xmlns="http://www.w3.org/2000/svg">
<g clip-path="url(#clip0)">
<path d="M2232.39 -358H-940V1646.24H2232.39V-358Z" fill="#4F565E"/>
<path d="M325.302 1512.12C232.935 1410.9 243.057 144.325 243.057 144.325C243.057 144.325 245.588 -130.246 302.526 -235.266C331.628 -290.939 922.163 -280.817 946.565 -235.266C1003.5 -128.98 1014.89 144.325 1014.89 144.325C1014.89 144.325 1030.07 1403.3 938.973 1512.12C863.055 1594.36 386.494 1579.18 325.302 1512.12Z" fill="url(#paint0_linear)"/>
<path d="M620.117 -259.306C536.557 -259.104 432.777 -241.086 375.079 -228.56C351.671 -223.473 333.172 -205.582 327.276 -182.376L298.933 -33.121C292.961 -9.71295 271.248 204.047 271.78 280.395C273.08 464.494 263.118 653.979 383.784 805.673C399.879 825.842 484.401 925.699 628.164 923.624C822.894 920.79 912.149 729.451 912.149 729.451C912.149 729.451 1008.69 562.507 976.401 239.754C951.879 -5.28437 936.417 -105.041 926.32 -158.082C922.17 -179.845 903.393 -213.907 883.224 -223.093C842.329 -241.668 737.79 -259.592 620.117 -259.306Z" fill="#C3C4C4"/>
<path d="M602.403 -237.796C544.199 -237.796 407.445 -233.393 378.951 -183.945C325.96 -92.0335 317.659 149.766 319.988 262.251C321.886 354.036 318.14 545.679 360.325 627.189C373.788 653.229 416.935 701.867 445.683 707.663C445.683 707.663 570.239 675.65 612.829 674.36C662.834 672.842 811.077 701.463 811.077 701.463C847.517 689.139 889.93 612.917 899.749 575.742C945.521 402.446 930.514 351.834 932.647 222.774C934.368 118.639 902.912 -148.036 862.65 -192.827C818.744 -241.643 668.199 -237.796 602.403 -237.796Z" fill="#75797C"/>
<path d="M599.543 674.056L530.559 686.203L505.683 692.504C488.146 696.933 485.641 720.822 501.862 728.793L526.434 740.864C583.601 767.334 598.556 768.043 627.355 766.272C714.382 760.932 752.012 730.615 757.428 726.541C757.858 726.212 758.263 725.883 758.668 725.504C771.245 714.116 764.362 693.011 747.634 690.1L655.546 674.056C641.88 670.817 599.543 674.056 599.543 674.056Z" fill="#A2A4A2"/>
<path d="M499.23 782.543C481.061 771.94 426.956 739.903 401.65 726.491C389.427 720.012 363.388 736.309 359.516 749.595C352.274 774.445 392.869 816.023 392.869 816.023C392.869 816.023 427.817 856.715 444.417 858.613C463.574 860.815 481.693 839.001 488.045 828.271C494.043 818.073 509.429 788.49 499.23 782.543Z" fill="#A2A4A2"/>
<path d="M849.719 702.526C809.119 728.261 767.611 764.142 721.518 779.507C721.518 779.507 699.831 784.568 699.831 804.813L708.005 856.26C709.827 866.888 714.306 876.96 721.518 884.982C729.287 893.637 739.309 899.204 748.596 895.105C748.596 895.105 785.745 876.277 814.417 852.236C849.39 822.906 856.779 808.988 863.283 803.067C863.84 802.56 864.371 802.029 864.801 801.422C881.939 778.707 903.697 754.175 913.667 726.364C916.071 715.685 907.973 705.056 897.471 701.969C880.028 696.879 867.011 692.714 849.719 702.526Z" fill="#A2A4A2"/>
<path d="M538.042 40.299L538.141 40.53L553.849 59.901H566.95V34.062H559.327V53.631L559.195 53.301L543.619 34.062H530.419V59.901H538.042V40.299ZM570.283 53.301C570.283 54.357 570.404 55.248 570.646 55.974C570.888 56.7 571.339 57.36 571.999 57.954C572.593 58.504 573.231 58.933 573.913 59.241C574.595 59.527 575.475 59.747 576.553 59.901C577.631 60.033 578.94 60.121 580.48 60.165C582.02 60.209 584.275 60.231 587.245 60.231C590.215 60.231 592.481 60.209 594.043 60.165C595.605 60.121 596.914 60.033 597.97 59.901C599.048 59.747 599.939 59.527 600.643 59.241C601.369 58.933 602.018 58.504 602.59 57.954C603.25 57.36 603.701 56.7 603.943 55.974C604.185 55.248 604.306 54.357 604.306 53.301C604.306 50.793 604.306 47.834 604.306 44.424V40.662C604.306 39.606 604.185 38.737 603.943 38.055C603.701 37.351 603.25 36.702 602.59 36.108C602.018 35.536 601.38 35.096 600.676 34.788C599.994 34.48 599.125 34.26 598.069 34.128C597.035 33.996 595.77 33.919 594.274 33.897C592.778 33.853 590.468 33.831 587.344 33.831C584.22 33.831 581.91 33.853 580.414 33.897C578.918 33.919 577.631 33.996 576.553 34.128C575.497 34.26 574.617 34.48 573.913 34.788C573.209 35.096 572.571 35.536 571.999 36.108C571.339 36.702 570.888 37.351 570.646 38.055C570.404 38.737 570.283 39.606 570.283 40.662V53.301ZM577.576 41.784C577.576 41.3 577.752 40.915 578.104 40.629C578.478 40.343 579.094 40.2 579.952 40.2C588.598 40.2 593.526 40.2 594.736 40.2C595.66 40.2 596.287 40.31 596.617 40.53C596.969 40.75 597.145 41.168 597.145 41.784V49.308V52.278C597.145 52.696 596.936 53.048 596.518 53.334C596.122 53.598 595.495 53.73 594.637 53.73C586.057 53.73 581.162 53.73 579.952 53.73C579.028 53.73 578.401 53.631 578.071 53.433C577.741 53.213 577.576 52.828 577.576 52.278V41.784ZM607.634 34.062V60H615.719V34.062H607.634ZM615.719 46.569L630.503 60H642.218L625.487 46.569L640.304 34.062H629.579L615.719 46.569ZM652.199 53.961V49.671H671.306V44.424H652.199V40.068H672.56V34.062H652.661H644.444H644.114V60H644.675H652.661H672.56V53.961H652.199ZM711.211 34.062H701.509L693.061 44.589L684.613 34.062H674.911L688.969 50.991V60H697.087V50.991L711.211 34.062Z" fill="#1B5096"/>
</g>
<defs>
<linearGradient id="paint0_linear" x1="629.285" y1="-273.319" x2="629.285" y2="1568.25" gradientUnits="userSpaceOnUse">
<stop offset="0.605422" stop-color="#4F565E"/>
<stop offset="1" stop-color="#59616A"/>
</linearGradient>
<clipPath id="clip0">
<rect width="1253.61" height="792" fill="white"/>
</clipPath>
</defs>
</svg>
